<svg width="55" height="56" viewBox="0 0 55 56" fill="none" xmlns="http://www.w3.org/2000/svg">
<mask id="path-1-inside-1_170_629" fill="white">
<path d="M27.5 55.5C23.8886 55.5 20.3127 54.7887 16.9762 53.4067C13.6397 52.0247 10.6082 49.999 8.05456 47.4454C5.50095 44.8918 3.47531 41.8602 2.09331 38.5238C0.711305 35.1873 -1.82248e-06 31.6113 0 28C1.82249e-06 24.3886 0.711313 20.8126 2.09332 17.4762C3.47533 14.1397 5.50096 11.1082 8.05458 8.55455C10.6082 6.00094 13.6398 3.97531 16.9762 2.5933C20.3127 1.2113 23.8887 0.499997 27.5 0.5L27.5 4.79569C24.4528 4.79568 21.4354 5.39588 18.6201 6.562C15.8048 7.72813 13.2468 9.43734 11.0921 11.5921C8.93736 13.7468 7.22814 16.3048 6.06202 19.1201C4.89589 21.9354 4.29569 24.9528 4.29569 28C4.29569 31.0472 4.89588 34.0646 6.06201 36.8799C7.22813 39.6952 8.93735 42.2532 11.0921 44.4079C13.2468 46.5626 15.8048 48.2719 18.6201 49.438C21.4354 50.6041 24.4528 51.2043 27.5 51.2043V55.5Z"/>
</mask>
<path d="M27.5 55.5C23.8886 55.5 20.3127 54.7887 16.9762 53.4067C13.6397 52.0247 10.6082 49.999 8.05456 47.4454C5.50095 44.8918 3.47531 41.8602 2.09331 38.5238C0.711305 35.1873 -1.82248e-06 31.6113 0 28C1.82249e-06 24.3886 0.711313 20.8126 2.09332 17.4762C3.47533 14.1397 5.50096 11.1082 8.05458 8.55455C10.6082 6.00094 13.6398 3.97531 16.9762 2.5933C20.3127 1.2113 23.8887 0.499997 27.5 0.5L27.5 4.79569C24.4528 4.79568 21.4354 5.39588 18.6201 6.562C15.8048 7.72813 13.2468 9.43734 11.0921 11.5921C8.93736 13.7468 7.22814 16.3048 6.06202 19.1201C4.89589 21.9354 4.29569 24.9528 4.29569 28C4.29569 31.0472 4.89588 34.0646 6.06201 36.8799C7.22813 39.6952 8.93735 42.2532 11.0921 44.4079C13.2468 46.5626 15.8048 48.2719 18.6201 49.438C21.4354 50.6041 24.4528 51.2043 27.5 51.2043V55.5Z" fill="url(#paint0_linear_170_629)" stroke="url(#paint1_linear_170_629)" stroke-width="4" mask="url(#path-1-inside-1_170_629)"/>
<circle cx="27.4997" cy="28.0007" r="23.2692" fill="#1F1C3F" fill-opacity="0.6"/>
<circle cx="27.4997" cy="28.0007" r="20.7692" stroke="#272C4B" stroke-opacity="0.3" stroke-width="5"/>
<path d="M31.9047 35.4918H23.0906C20.4464 35.4918 18.6836 34.1697 18.6836 31.0847V24.9149C18.6836 21.8299 20.4464 20.5078 23.0906 20.5078H31.9047C34.549 20.5078 36.3118 21.8299 36.3118 24.9149V31.0847C36.3118 34.1697 34.549 35.4918 31.9047 35.4918Z" stroke="white" stroke-width="1.5" stroke-miterlimit="10" stroke-linecap="round" stroke-linejoin="round"/>
<path d="M31.9079 25.3555L29.149 27.559C28.2412 28.2818 26.7516 28.2818 25.8437 27.559L23.0938 25.3555" stroke="white" stroke-width="1.5" stroke-miterlimit="10" stroke-linecap="round" stroke-linejoin="round"/>
<defs>
<linearGradient id="paint0_linear_170_629" x1="-2.06495e-06" y1="-9.99997" x2="63.9356" y2="-4.97385" gradientUnits="userSpaceOnUse">
<stop stop-color="#8A2CFF"/>
<stop offset="1" stop-color="#6B05EA"/>
</linearGradient>
<linearGradient id="paint1_linear_170_629" x1="27.5" y1="0.5" x2="27.5" y2="9" gradientUnits="userSpaceOnUse">
<stop stop-color="#8F34FF"/>
<stop offset="1" stop-color="#8F34FF" stop-opacity="0"/>
</linearGradient>
</defs>
</svg>
