<svg width="37" height="37" viewBox="0 0 37 37" fill="none" xmlns="http://www.w3.org/2000/svg">
<path d="M18.5 2.3125C9.56074 2.3125 2.3125 9.56074 2.3125 18.5C2.3125 27.4393 9.56074 34.6875 18.5 34.6875C27.4393 34.6875 34.6875 27.4393 34.6875 18.5C34.6875 9.56074 27.4393 2.3125 18.5 2.3125ZM27.75 11.4794L26.2758 12.8922C26.1457 12.9897 26.0843 13.1487 26.1096 13.3041V23.6995C26.0843 23.8585 26.1457 24.0175 26.2758 24.1114L27.7211 25.5242V25.8386H20.4656V25.5387L21.9579 24.0897C22.1061 23.9416 22.1061 23.8982 22.1061 23.6778V15.2661L17.9508 25.8024H17.3907L12.5562 15.2661V22.3301C12.5128 22.6264 12.6176 22.9263 12.8271 23.1395L14.7711 25.4917V25.8061H9.25V25.4917L11.1939 23.1395C11.2964 23.0337 11.3726 22.9053 11.4165 22.7648C11.4604 22.6242 11.4708 22.4754 11.4469 22.3301V14.1641C11.4722 13.9364 11.3854 13.716 11.212 13.5606L9.48486 11.4794V11.165H14.8506L18.9914 20.2524L22.6372 11.1723H27.75V11.4794Z" fill="white"/>
</svg>
