<svg width="762" height="731" viewBox="0 0 762 731" fill="none" xmlns="http://www.w3.org/2000/svg">
<ellipse cx="380.933" cy="570.271" rx="375.09" ry="145.118" transform="rotate(-2.34908 380.933 570.271)" fill="url(#paint0_radial_170_264)"/>
<g filter="url(#filter0_df_170_264)">
<path fill-rule="evenodd" clip-rule="evenodd" d="M485.633 368.081C485.031 368.09 484.794 368.804 485.103 369.677C486.501 373.63 489.568 382.315 493.54 393.588L485.968 404.192C485.644 404.646 485.806 405.562 486.338 406.287C486.871 407.011 487.592 407.297 487.989 406.941C489.068 405.97 491.009 405.234 493.273 406.013C495.411 406.748 498.084 408.914 500.904 414.434C501.303 415.216 501.997 415.734 502.517 415.638C503.036 415.541 503.215 414.862 502.932 414.058C500.579 407.364 498.346 401.02 496.327 395.288L502.701 386.363L518.115 424.205C518.468 425.074 519.222 425.717 519.798 425.64C520.373 425.564 520.553 424.798 520.199 423.929L503.716 383.46C503.49 382.907 503.089 382.421 502.659 382.178C502.229 381.935 501.834 381.973 501.617 382.276L495.005 391.536C491.38 381.248 488.594 373.359 487.28 369.644C486.971 368.771 486.234 368.072 485.633 368.081ZM494.862 397.341C495.924 400.358 497.04 403.528 498.197 406.816C496.344 404.774 494.506 403.554 492.788 402.963C492.209 402.764 491.653 402.64 491.123 402.577L494.862 397.341Z" fill="url(#paint1_linear_170_264)"/>
<path d="M549.656 415.679C549.656 427.263 545.656 435.463 539.165 439.447L527.873 446.416C521.104 450.2 525.442 441.616 515.166 435.647C494.505 423.71 477.753 394.819 477.753 371.036C477.753 359.313 466.984 359.221 473.553 355.298L486.137 348.144C492.875 344.499 502.09 345.16 512.289 351.037C532.903 363.067 549.656 391.973 549.656 415.679Z" fill="url(#paint2_linear_170_264)"/>
<path d="M537.426 422.951C537.426 446.672 520.673 456.21 500.013 444.288C479.352 432.365 462.599 403.459 462.599 379.676C462.599 355.893 479.337 346.539 499.997 358.4C520.658 370.261 537.426 399.229 537.426 422.951Z" fill="url(#paint3_linear_170_264)"/>
<path d="M527.672 417.307C527.672 434.844 515.288 441.921 499.981 433.075C484.674 424.229 472.29 402.892 472.29 385.385C472.29 367.879 484.674 360.771 499.981 369.617C515.288 378.463 527.672 399.785 527.672 417.307Z" fill="url(#paint4_linear_170_264)"/>
<path d="M517.367 395.028L517.368 426.931L509.474 422.373L509.474 406.832L503.317 415.217L502.607 414.807L496.449 399.311L496.45 414.852L488.556 410.295L488.555 378.392L496.448 382.949L502.961 399.699L509.473 390.47L517.367 395.028Z" fill="#81C0FF"/>
<path d="M516.261 393.341L516.263 425.244L508.369 420.686L508.368 405.145L502.212 413.531L501.501 413.12L495.344 397.625L495.344 413.166L487.45 408.608L487.449 376.705L495.343 381.263L501.856 398.012L508.368 388.783L516.261 393.341Z" fill="white"/>
<g style="mix-blend-mode:multiply">
<path d="M502.568 430.673C487.292 421.858 474.877 400.49 474.877 382.983C474.877 376.707 476.415 371.799 479.215 368.461C474.923 371.538 472.308 377.384 472.308 385.383C472.308 402.921 484.692 424.289 499.999 433.073C509.813 438.734 518.459 437.826 523.32 431.827C518.259 435.534 510.844 435.457 502.568 430.673Z" fill="url(#paint5_linear_170_264)"/>
</g>
<g style="mix-blend-mode:multiply">
<g style="mix-blend-mode:multiply">
<path d="M513.058 351.644C512.782 351.475 512.52 351.29 512.243 351.121L511.505 350.736L499.075 357.921C499.398 358.09 499.69 358.213 500.013 358.397L500.659 358.813L513.058 351.644Z" fill="#1672FD"/>
</g>
<g style="mix-blend-mode:multiply">
<path d="M499.505 346.384L486.967 353.614C487.736 353.722 488.506 353.891 489.29 354.076L501.828 346.83C501.043 346.645 500.274 346.538 499.505 346.384Z" fill="#1672FD"/>
</g>
<g style="mix-blend-mode:multiply">
<path d="M520.394 356.892L508.087 364.045C508.503 364.399 508.918 364.768 509.333 365.137L521.641 357.984C521.225 357.615 520.825 357.307 520.394 356.892Z" fill="#1672FD"/>
</g>
<g style="mix-blend-mode:multiply">
<path d="M533.936 371.658L521.629 378.781L522.521 380.073L534.828 372.95L533.936 371.658Z" fill="#1672FD"/>
</g>
<g style="mix-blend-mode:multiply">
<path d="M527.72 363.953L515.413 371.091L516.474 372.291L528.781 365.153L527.72 363.953Z" fill="#1672FD"/>
</g>
<g style="mix-blend-mode:multiply">
<path d="M539.211 379.904L526.904 387.027C527.165 387.488 527.396 387.95 527.658 388.396L539.965 381.273C539.703 380.827 539.457 380.381 539.211 379.904Z" fill="#1672FD"/>
</g>
<g style="mix-blend-mode:multiply">
<path d="M547.519 428.657L535.382 435.657C535.089 436.472 534.782 437.195 534.428 438.011L546.519 431.026C546.889 430.288 547.212 429.488 547.519 428.657Z" fill="#1672FD"/>
</g>
<g style="mix-blend-mode:multiply">
<path d="M537.38 423.87C537.38 424.5 537.38 425.116 537.288 425.731L549.595 418.67C549.595 418.065 549.62 417.444 549.672 416.809L537.38 423.87Z" fill="#1672FD"/>
</g>
<g style="mix-blend-mode:multiply">
<path d="M549.101 408.257C549.101 407.687 548.978 407.134 548.886 406.564L536.579 413.656C536.671 414.226 536.718 414.779 536.794 415.333L549.101 408.257Z" fill="#1672FD"/>
</g>
<g style="mix-blend-mode:multiply">
<path d="M534.411 404.303C534.564 404.826 534.703 405.334 534.841 405.841L547.148 398.749C546.994 398.226 546.887 397.703 546.718 397.211L534.411 404.303Z" fill="#1672FD"/>
</g>
<g style="mix-blend-mode:multiply">
<path d="M544.055 389.903C543.855 389.41 543.67 388.918 543.455 388.364L531.148 395.472C531.363 395.964 531.532 396.441 531.748 397.01L544.055 389.903Z" fill="#1672FD"/>
</g>
</g>
<path d="M512.243 351.157C502.074 345.296 492.859 344.619 486.091 348.265L484.398 349.203C490.983 346.404 499.551 347.342 509.012 352.772C529.673 364.71 546.426 393.601 546.426 417.384C546.426 428.968 542.426 437.168 535.934 441.152C535.78 441.244 539.011 439.614 539.165 439.537C545.656 435.568 549.656 427.353 549.656 415.769C549.656 391.97 532.903 363.064 512.243 351.157Z" fill="url(#paint6_linear_170_264)"/>
<path d="M512.243 351.157C502.074 345.296 492.859 344.619 486.091 348.265L484.398 349.203C490.983 346.404 499.551 347.342 509.012 352.772C529.673 364.71 546.426 393.601 546.426 417.384C546.426 428.968 542.426 437.168 535.934 441.152C535.78 441.244 539.011 439.614 539.165 439.537C545.656 435.568 549.656 427.353 549.656 415.769C549.656 391.97 532.903 363.064 512.243 351.157Z" fill="black" fill-opacity="0.2"/>
<path style="mix-blend-mode:color-dodge" d="M501.641 357.313C491.734 351.591 482.889 350.991 476.197 354.329C482.442 352.59 490.181 353.883 498.565 358.729C519.225 370.666 535.978 399.557 535.978 423.34C535.978 435.647 531.363 444.185 524.163 447.816C533.301 445.262 539.055 436.001 539.055 421.925C539.055 398.173 522.302 369.282 501.641 357.313Z" fill="url(#paint7_radial_170_264)"/>
</g>
<g filter="url(#filter1_d_170_264)">
<path fill-rule="evenodd" clip-rule="evenodd" d="M453.055 86.1999C451.749 86.2197 451.234 87.772 451.904 89.6671C454.942 98.2564 461.605 117.124 470.234 141.615L453.785 164.652C453.08 165.639 453.431 167.629 454.588 169.203C455.746 170.778 457.313 171.399 458.174 170.624C460.519 168.515 464.736 166.917 469.655 168.609C474.298 170.205 480.107 174.911 486.233 186.904C487.1 188.602 488.608 189.728 489.736 189.519C490.865 189.309 491.253 187.832 490.64 186.087C485.527 171.544 480.676 157.761 476.29 145.309L490.137 125.917L523.624 208.132C524.393 210.02 526.03 211.416 527.28 211.25C528.53 211.084 528.921 209.419 528.152 207.531L492.341 119.613C491.852 118.411 490.981 117.353 490.047 116.826C489.113 116.299 488.253 116.38 487.782 117.04L473.418 137.157C465.542 114.807 459.489 97.6673 456.634 89.5954C455.963 87.7003 454.361 86.1801 453.055 86.1999ZM473.106 149.768C475.414 156.322 477.839 163.21 480.352 170.354C476.326 165.917 472.334 163.267 468.601 161.983C467.344 161.551 466.135 161.281 464.983 161.144L473.106 149.768Z" fill="url(#paint8_linear_170_264)"/>
<path d="M592.148 189.609C592.148 214.776 583.459 232.59 569.355 241.246L544.823 256.386C530.118 264.608 539.543 245.958 517.217 232.991C472.332 207.056 435.935 144.29 435.935 92.6196C435.935 67.1523 412.54 66.9517 426.811 58.4292L454.15 42.8881C468.789 34.9672 488.808 36.4043 510.967 49.1714C555.752 75.3072 592.148 138.107 592.148 189.609Z" fill="url(#paint9_linear_170_264)"/>
<path d="M565.578 205.408C565.578 256.944 529.182 277.666 484.297 251.764C439.411 225.862 403.015 163.063 403.015 111.393C403.015 59.7228 439.378 39.4024 484.263 65.1705C529.148 90.9387 565.578 153.872 565.578 205.408Z" fill="url(#paint10_linear_170_264)"/>
<path d="M544.387 193.144C544.387 231.245 517.482 246.619 484.228 227.402C450.973 208.184 424.069 161.828 424.069 123.794C424.069 85.7605 450.973 70.3197 484.228 89.5372C517.482 108.755 544.387 155.077 544.387 193.144Z" fill="url(#paint11_linear_170_264)"/>
<path d="M521.994 144.743L521.996 214.053L504.847 204.151L504.846 170.387L491.47 188.605L489.927 187.714L476.549 154.049L476.55 187.813L459.401 177.911L459.398 108.601L476.548 118.503L490.697 154.891L504.844 134.841L521.994 144.743Z" fill="#81C0FF"/>
<path d="M519.595 141.079L519.598 210.389L502.449 200.487L502.447 166.723L489.072 184.941L487.528 184.05L474.151 150.385L474.152 184.149L457.003 174.247L457 104.937L474.149 114.839L488.299 151.227L502.446 131.177L519.595 141.079Z" fill="white"/>
<g style="mix-blend-mode:multiply">
<path d="M489.844 222.185C456.656 203.034 429.685 156.611 429.685 118.577C429.685 104.941 433.027 94.2799 439.11 87.0273C429.785 93.7117 424.103 106.412 424.103 123.791C424.103 161.892 451.008 208.315 484.262 227.399C505.585 239.698 524.368 237.726 534.93 224.691C523.934 232.746 507.825 232.579 489.844 222.185Z" fill="url(#paint12_linear_170_264)"/>
</g>
<g style="mix-blend-mode:multiply">
<g style="mix-blend-mode:multiply">
<path d="M512.637 50.4885C512.035 50.1208 511.467 49.7198 510.865 49.3521L509.261 48.5166L482.256 64.1245C482.958 64.4922 483.593 64.7595 484.295 65.1606L485.699 66.063L512.637 50.4885Z" fill="#1672FD"/>
</g>
<g style="mix-blend-mode:multiply">
<path d="M483.192 39.0625L455.953 54.7707C457.624 55.0046 459.295 55.3723 461 55.7734L488.238 40.0317C486.534 39.6307 484.863 39.3967 483.192 39.0625Z" fill="#1672FD"/>
</g>
<g style="mix-blend-mode:multiply">
<path d="M528.574 61.8906L501.837 77.4317C502.739 78.2004 503.641 79.0025 504.544 79.8046L531.281 64.2636C530.379 63.4614 529.51 62.793 528.574 61.8906Z" fill="#1672FD"/>
</g>
<g style="mix-blend-mode:multiply">
<path d="M557.991 93.9707L531.254 109.445L533.192 112.252L559.93 96.7781L557.991 93.9707Z" fill="#1672FD"/>
</g>
<g style="mix-blend-mode:multiply">
<path d="M544.487 77.2305L517.749 92.7381L520.056 95.345L546.793 79.8374L544.487 77.2305Z" fill="#1672FD"/>
</g>
<g style="mix-blend-mode:multiply">
<path d="M569.452 111.887L542.715 127.361C543.283 128.364 543.784 129.366 544.352 130.335L571.09 114.861C570.522 113.892 569.987 112.923 569.452 111.887Z" fill="#1672FD"/>
</g>
<g style="mix-blend-mode:multiply">
<path d="M587.5 217.805L561.13 233.012C560.495 234.783 559.827 236.354 559.058 238.125L585.328 222.952C586.13 221.347 586.832 219.609 587.5 217.805Z" fill="#1672FD"/>
</g>
<g style="mix-blend-mode:multiply">
<path d="M565.476 207.405C565.476 208.775 565.476 210.112 565.275 211.449L592.013 196.108C592.013 194.794 592.068 193.446 592.18 192.064L565.476 207.405Z" fill="#1672FD"/>
</g>
<g style="mix-blend-mode:multiply">
<path d="M590.941 173.483C590.941 172.246 590.674 171.043 590.474 169.807L563.736 185.214C563.937 186.451 564.037 187.654 564.204 188.857L590.941 173.483Z" fill="#1672FD"/>
</g>
<g style="mix-blend-mode:multiply">
<path d="M559.026 164.892C559.36 166.028 559.661 167.131 559.962 168.234L586.699 152.827C586.365 151.69 586.131 150.554 585.763 149.484L559.026 164.892Z" fill="#1672FD"/>
</g>
<g style="mix-blend-mode:multiply">
<path d="M579.98 133.609C579.546 132.539 579.145 131.47 578.677 130.267L551.94 145.707C552.408 146.777 552.775 147.813 553.243 149.05L579.98 133.609Z" fill="#1672FD"/>
</g>
</g>
<path d="M510.867 49.4331C488.775 36.6994 468.755 35.2288 454.05 43.1498L450.373 45.1885C464.678 39.1058 483.294 41.1445 503.848 52.9423C548.734 78.8776 585.13 141.644 585.13 193.314C585.13 218.48 576.44 236.294 562.336 244.95C562.002 245.151 569.021 241.608 569.355 241.441C583.459 232.818 592.148 214.971 592.148 189.804C592.148 138.101 555.752 75.3015 510.867 49.4331Z" fill="url(#paint13_linear_170_264)"/>
<path d="M510.867 49.4331C488.775 36.6994 468.755 35.2288 454.05 43.1498L450.373 45.1885C464.678 39.1058 483.294 41.1445 503.848 52.9423C548.734 78.8776 585.13 141.644 585.13 193.314C585.13 218.48 576.44 236.294 562.336 244.95C562.002 245.151 569.021 241.608 569.355 241.441C583.459 232.818 592.148 214.971 592.148 189.804C592.148 138.101 555.752 75.3015 510.867 49.4331Z" fill="black" fill-opacity="0.2"/>
<path style="mix-blend-mode:color-dodge" d="M487.84 62.8088C466.316 50.3759 447.098 49.0725 432.56 56.325C446.129 52.5484 462.94 55.3558 481.155 65.8836C526.041 91.8189 562.437 154.585 562.437 206.255C562.437 232.992 552.41 251.541 536.769 259.429C556.621 253.881 569.121 233.761 569.121 203.18C569.121 151.577 532.725 88.8109 487.84 62.8088Z" fill="url(#paint14_radial_170_264)"/>
</g>
<g filter="url(#filter2_df_170_264)">
<path fill-rule="evenodd" clip-rule="evenodd" d="M290.674 493.888C291.131 493.895 291.312 494.439 291.077 495.103C290.012 498.115 287.675 504.731 284.65 513.32L290.418 521.398C290.665 521.744 290.542 522.441 290.136 522.994C289.73 523.546 289.18 523.764 288.878 523.492C288.056 522.752 286.578 522.192 284.853 522.785C283.224 523.345 281.188 524.995 279.04 529.2C278.735 529.796 278.207 530.191 277.811 530.117C277.415 530.044 277.279 529.526 277.494 528.914C279.287 523.814 280.988 518.981 282.526 514.615L277.671 507.815L265.928 536.644C265.658 537.306 265.084 537.796 264.646 537.738C264.207 537.679 264.071 537.096 264.34 536.434L276.898 505.604C277.069 505.183 277.375 504.812 277.702 504.627C278.03 504.442 278.331 504.471 278.496 504.702L283.533 511.756C286.295 503.919 288.418 497.909 289.419 495.078C289.654 494.414 290.216 493.881 290.674 493.888ZM283.643 516.179C282.833 518.477 281.983 520.892 281.102 523.397C282.513 521.841 283.913 520.912 285.222 520.462C285.663 520.31 286.087 520.215 286.491 520.167L283.643 516.179Z" fill="url(#paint15_linear_170_264)"/>
<path d="M241.902 530.15C241.902 538.975 244.949 545.221 249.895 548.257L258.497 553.566C263.654 556.449 260.349 549.909 268.178 545.362C283.917 536.267 296.68 514.258 296.68 496.139C296.68 487.209 304.884 487.139 299.879 484.15L290.293 478.7C285.16 475.923 278.139 476.427 270.369 480.904C254.665 490.068 241.902 512.09 241.902 530.15Z" fill="url(#paint16_linear_170_264)"/>
<path d="M251.219 535.689C251.219 553.761 263.981 561.027 279.721 551.945C295.46 542.862 308.223 520.841 308.223 502.722C308.223 484.603 295.472 477.478 279.733 486.514C263.993 495.55 251.219 517.618 251.219 535.689Z" fill="url(#paint17_linear_170_264)"/>
<path d="M258.648 531.389C258.648 544.749 268.083 550.14 279.744 543.402C291.405 536.663 300.839 520.408 300.839 507.071C300.839 493.734 291.405 488.319 279.744 495.058C268.083 501.797 258.648 518.04 258.648 531.389Z" fill="url(#paint18_linear_170_264)"/>
<path d="M289.438 500.879L289.437 525.183L283.423 528.655L283.424 516.816L278.733 528.621L278.192 528.933L273.501 522.545L273.501 534.385L267.487 537.857L267.488 513.553L273.502 510.08L278.463 517.111L283.424 504.351L289.438 500.879Z" fill="#81C0FF"/>
<path d="M290.278 499.757L290.277 524.061L284.263 527.533L284.264 515.694L279.573 527.499L279.031 527.811L274.341 521.423L274.341 533.263L268.327 536.735L268.328 512.431L274.342 508.958L279.303 515.989L284.264 503.229L290.278 499.757Z" fill="white"/>
<g style="mix-blend-mode:multiply">
<path d="M277.779 541.572C289.416 534.857 298.874 518.578 298.874 505.241C298.874 500.459 297.702 496.721 295.569 494.178C298.839 496.522 300.831 500.975 300.831 507.069C300.831 520.43 291.397 536.708 279.736 543.4C272.259 547.713 265.672 547.022 261.969 542.451C265.824 545.275 271.473 545.217 277.779 541.572Z" fill="url(#paint19_linear_170_264)"/>
</g>
<g style="mix-blend-mode:multiply">
<g style="mix-blend-mode:multiply">
<path d="M269.781 481.366C269.992 481.237 270.191 481.097 270.402 480.968L270.965 480.675L280.434 486.148C280.188 486.277 279.966 486.371 279.719 486.511L279.227 486.828L269.781 481.366Z" fill="#1672FD"/>
</g>
<g style="mix-blend-mode:multiply">
<path d="M280.106 477.359L289.657 482.868C289.071 482.95 288.485 483.079 287.887 483.219L278.336 477.699C278.934 477.559 279.52 477.477 280.106 477.359Z" fill="#1672FD"/>
</g>
<g style="mix-blend-mode:multiply">
<path d="M264.191 485.364L273.567 490.814C273.251 491.083 272.934 491.365 272.618 491.646L263.242 486.196C263.559 485.915 263.863 485.681 264.191 485.364Z" fill="#1672FD"/>
</g>
<g style="mix-blend-mode:multiply">
<path d="M253.883 496.613L263.259 502.039L262.579 503.024L253.203 497.598L253.883 496.613Z" fill="#1672FD"/>
</g>
<g style="mix-blend-mode:multiply">
<path d="M258.613 490.744L267.989 496.182L267.18 497.096L257.805 491.658L258.613 490.744Z" fill="#1672FD"/>
</g>
<g style="mix-blend-mode:multiply">
<path d="M249.859 502.896L259.235 508.323C259.036 508.674 258.86 509.026 258.661 509.366L249.285 503.94C249.484 503.6 249.672 503.26 249.859 502.896Z" fill="#1672FD"/>
</g>
<g style="mix-blend-mode:multiply">
<path d="M243.531 540.037L252.778 545.37C253.001 545.991 253.235 546.542 253.505 547.163L244.293 541.842C244.012 541.279 243.766 540.67 243.531 540.037Z" fill="#1672FD"/>
</g>
<g style="mix-blend-mode:multiply">
<path d="M251.255 536.39C251.255 536.871 251.255 537.339 251.325 537.808L241.949 532.429C241.949 531.968 241.93 531.495 241.891 531.011L251.255 536.39Z" fill="#1672FD"/>
</g>
<g style="mix-blend-mode:multiply">
<path d="M242.324 524.495C242.324 524.062 242.418 523.64 242.488 523.206L251.864 528.609C251.794 529.042 251.758 529.464 251.7 529.886L242.324 524.495Z" fill="#1672FD"/>
</g>
<g style="mix-blend-mode:multiply">
<path d="M253.516 521.483C253.399 521.881 253.294 522.268 253.188 522.655L243.812 517.252C243.93 516.854 244.012 516.455 244.141 516.08L253.516 521.483Z" fill="#1672FD"/>
</g>
<g style="mix-blend-mode:multiply">
<path d="M246.168 510.514C246.32 510.139 246.461 509.764 246.625 509.342L256.001 514.756C255.837 515.131 255.708 515.495 255.544 515.928L246.168 510.514Z" fill="#1672FD"/>
</g>
</g>
<path d="M270.404 480.996C278.151 476.531 285.171 476.015 290.328 478.793L291.617 479.508C286.601 477.375 280.073 478.089 272.866 482.227C257.126 491.321 244.363 513.33 244.363 531.449C244.363 540.274 247.411 546.521 252.356 549.556C252.473 549.626 250.012 548.384 249.895 548.325C244.949 545.302 241.902 539.043 241.902 530.219C241.902 512.088 254.665 490.067 270.404 480.996Z" fill="url(#paint20_linear_170_264)"/>
<path d="M270.404 480.996C278.151 476.531 285.171 476.015 290.328 478.793L291.617 479.508C286.601 477.375 280.073 478.089 272.866 482.227C257.126 491.321 244.363 513.33 244.363 531.449C244.363 540.274 247.411 546.521 252.356 549.556C252.473 549.626 250.012 548.384 249.895 548.325C244.949 545.302 241.902 539.043 241.902 530.219C241.902 512.088 254.665 490.067 270.404 480.996Z" fill="black" fill-opacity="0.2"/>
<path style="mix-blend-mode:color-dodge" d="M278.479 485.686C286.026 481.326 292.765 480.869 297.863 483.412C293.105 482.088 287.21 483.072 280.823 486.764C265.083 495.859 252.32 517.868 252.32 535.987C252.32 545.362 255.836 551.867 261.321 554.633C254.36 552.687 249.977 545.632 249.977 534.909C249.977 516.813 262.739 494.804 278.479 485.686Z" fill="url(#paint21_radial_170_264)"/>
</g>
<g filter="url(#filter3_d_170_264)">
<path fill-rule="evenodd" clip-rule="evenodd" d="M316.452 231.711C317.515 231.727 317.934 232.99 317.389 234.532C314.917 241.52 309.497 256.87 302.477 276.795L315.859 295.536C316.432 296.34 316.147 297.958 315.205 299.239C314.264 300.52 312.988 301.026 312.288 300.395C310.38 298.679 306.95 297.379 302.947 298.755C299.17 300.054 294.444 303.883 289.461 313.639C288.755 315.021 287.528 315.937 286.61 315.767C285.692 315.597 285.376 314.395 285.875 312.975C290.035 301.143 293.981 289.93 297.55 279.8L286.285 264.024L259.041 330.91C258.416 332.446 257.084 333.581 256.067 333.446C255.049 333.312 254.732 331.957 255.357 330.421L284.491 258.894C284.889 257.917 285.598 257.056 286.358 256.628C287.118 256.199 287.817 256.265 288.2 256.802L299.886 273.168C306.294 254.985 311.219 241.041 313.541 234.474C314.086 232.932 315.39 231.695 316.452 231.711ZM300.14 283.428C298.262 288.76 296.29 294.363 294.245 300.175C297.52 296.565 300.768 294.41 303.805 293.365C304.828 293.014 305.811 292.794 306.748 292.682L300.14 283.428Z" fill="url(#paint22_linear_170_264)"/>
<path d="M203.293 315.841C203.293 336.315 210.362 350.808 221.837 357.85L241.795 370.167C253.758 376.856 246.091 361.684 264.254 351.134C300.771 330.034 330.381 278.971 330.381 236.934C330.381 216.215 349.414 216.052 337.804 209.118L315.562 196.475C303.653 190.031 287.366 191.2 269.338 201.587C232.903 222.849 203.293 273.94 203.293 315.841Z" fill="url(#paint23_linear_170_264)"/>
<path d="M224.906 328.694C224.906 370.622 254.516 387.48 291.033 366.407C327.55 345.335 357.16 294.244 357.16 252.208C357.16 210.171 327.577 193.639 291.06 214.603C254.544 235.567 224.906 286.767 224.906 328.694Z" fill="url(#paint24_linear_170_264)"/>
<path d="M242.148 318.717C242.148 349.714 264.037 362.222 291.091 346.587C318.146 330.953 340.034 293.24 340.034 262.297C340.034 231.354 318.146 218.792 291.091 234.427C264.037 250.061 242.148 287.747 242.148 318.717Z" fill="url(#paint25_linear_170_264)"/>
<path d="M313.581 247.928L313.579 304.316L299.627 312.372L299.628 284.903L288.745 312.291L287.489 313.016L276.607 298.195L276.606 325.664L262.654 333.72L262.656 277.332L276.608 269.276L288.118 285.588L299.629 255.984L313.581 247.928Z" fill="#81C0FF"/>
<path d="M315.534 245.326L315.532 301.714L301.58 309.77L301.581 282.301L290.698 309.69L289.442 310.415L278.56 295.593L278.559 323.062L264.607 331.118L264.609 274.73L278.561 266.675L290.071 282.986L301.582 253.382L315.534 245.326Z" fill="white"/>
<g style="mix-blend-mode:multiply">
<path d="M286.524 342.343C313.524 326.763 335.466 288.995 335.466 258.053C335.466 246.959 332.747 238.285 327.799 232.385C335.385 237.823 340.007 248.155 340.007 262.294C340.007 293.291 318.119 331.059 291.064 346.585C273.717 356.591 258.436 354.986 249.844 344.382C258.789 350.935 271.895 350.799 286.524 342.343Z" fill="url(#paint26_linear_170_264)"/>
</g>
<g style="mix-blend-mode:multiply">
<g style="mix-blend-mode:multiply">
<path d="M267.977 202.659C268.466 202.36 268.928 202.034 269.418 201.734L270.723 201.055L292.693 213.753C292.122 214.052 291.605 214.269 291.034 214.596L289.892 215.33L267.977 202.659Z" fill="#1672FD"/>
</g>
<g style="mix-blend-mode:multiply">
<path d="M291.934 193.363L314.094 206.143C312.734 206.333 311.375 206.632 309.988 206.958L287.828 194.152C289.215 193.826 290.574 193.635 291.934 193.363Z" fill="#1672FD"/>
</g>
<g style="mix-blend-mode:multiply">
<path d="M255.011 211.936L276.763 224.579C276.029 225.204 275.295 225.857 274.561 226.51L252.809 213.866C253.543 213.213 254.25 212.67 255.011 211.936Z" fill="#1672FD"/>
</g>
<g style="mix-blend-mode:multiply">
<path d="M231.081 238.035L252.833 250.624L251.256 252.908L229.504 240.319L231.081 238.035Z" fill="#1672FD"/>
</g>
<g style="mix-blend-mode:multiply">
<path d="M242.067 224.416L263.82 237.032L261.944 239.153L240.191 226.537L242.067 224.416Z" fill="#1672FD"/>
</g>
<g style="mix-blend-mode:multiply">
<path d="M221.754 252.61L243.506 265.2C243.044 266.015 242.636 266.831 242.174 267.619L220.422 255.03C220.884 254.242 221.319 253.453 221.754 252.61Z" fill="#1672FD"/>
</g>
<g style="mix-blend-mode:multiply">
<path d="M207.07 338.779L228.523 351.151C229.04 352.592 229.584 353.87 230.209 355.311L208.838 342.967C208.185 341.661 207.614 340.248 207.07 338.779Z" fill="#1672FD"/>
</g>
<g style="mix-blend-mode:multiply">
<path d="M224.991 330.318C224.991 331.433 224.991 332.521 225.154 333.608L203.402 321.128C203.402 320.058 203.356 318.962 203.266 317.838L224.991 330.318Z" fill="#1672FD"/>
</g>
<g style="mix-blend-mode:multiply">
<path d="M204.273 302.722C204.273 301.716 204.491 300.737 204.654 299.731L226.406 312.266C226.243 313.272 226.162 314.251 226.026 315.23L204.273 302.722Z" fill="#1672FD"/>
</g>
<g style="mix-blend-mode:multiply">
<path d="M230.24 295.732C229.968 296.657 229.724 297.554 229.479 298.451L207.727 285.916C207.998 284.992 208.189 284.067 208.488 283.197L230.24 295.732Z" fill="#1672FD"/>
</g>
<g style="mix-blend-mode:multiply">
<path d="M213.191 270.282C213.545 269.411 213.871 268.541 214.252 267.562L236.004 280.124C235.623 280.995 235.324 281.837 234.944 282.844L213.191 270.282Z" fill="#1672FD"/>
</g>
</g>
<path d="M269.42 201.799C287.393 191.44 303.68 190.243 315.644 196.688L318.635 198.346C306.997 193.397 291.852 195.056 275.13 204.654C238.613 225.754 209.003 276.818 209.003 318.854C209.003 339.328 216.072 353.821 227.547 360.863C227.819 361.026 222.109 358.144 221.837 358.008C210.362 350.993 203.293 336.473 203.293 315.999C203.293 273.936 232.903 222.845 269.42 201.799Z" fill="url(#paint27_linear_170_264)"/>
<path d="M269.42 201.799C287.393 191.44 303.68 190.243 315.644 196.688L318.635 198.346C306.997 193.397 291.852 195.056 275.13 204.654C238.613 225.754 209.003 276.818 209.003 318.854C209.003 339.328 216.072 353.821 227.547 360.863C227.819 361.026 222.109 358.144 221.837 358.008C210.362 350.993 203.293 336.473 203.293 315.999C203.293 273.936 232.903 222.845 269.42 201.799Z" fill="black" fill-opacity="0.2"/>
<path style="mix-blend-mode:color-dodge" d="M288.154 212.681C305.665 202.566 321.299 201.506 333.127 207.406C322.088 204.333 308.411 206.617 293.592 215.182C257.076 236.282 227.465 287.346 227.465 329.382C227.465 351.135 235.622 366.225 248.348 372.642C232.196 368.129 222.027 351.76 222.027 326.881C222.027 284.899 251.638 233.835 288.154 212.681Z" fill="url(#paint28_radial_170_264)"/>
</g>
<defs>
<filter id="filter0_df_170_264" x="428.599" y="307.895" width="187.073" height="203.529" filterUnits="userSpaceOnUse" color-interpolation-filters="sRGB">
<feFlood flood-opacity="0" result="BackgroundImageFix"/>
<feColorMatrix in="SourceAlpha" type="matrix" values="0 0 0 0 0 0 0 0 0 0 0 0 0 0 0 0 0 0 127 0" result="hardAlpha"/>
<feOffset dx="16" dy="12"/>
<feGaussianBlur stdDeviation="25"/>
<feComposite in2="hardAlpha" operator="out"/>
<feColorMatrix type="matrix" values="0 0 0 0 0.0127777 0 0 0 0 0.312937 0 0 0 0 0.766667 0 0 0 0.6 0"/>
<feBlend mode="normal" in2="BackgroundImageFix" result="effect1_dropShadow_170_264"/>
<feBlend mode="normal" in="SourceGraphic" in2="effect1_dropShadow_170_264" result="shape"/>
<feGaussianBlur stdDeviation="0.5" result="effect2_foregroundBlur_170_264"/>
</filter>
<filter id="filter1_d_170_264" x="369.015" y="0" width="289.165" height="324.922" filterUnits="userSpaceOnUse" color-interpolation-filters="sRGB">
<feFlood flood-opacity="0" result="BackgroundImageFix"/>
<feColorMatrix in="SourceAlpha" type="matrix" values="0 0 0 0 0 0 0 0 0 0 0 0 0 0 0 0 0 0 127 0" result="hardAlpha"/>
<feOffset dx="16" dy="12"/>
<feGaussianBlur stdDeviation="25"/>
<feComposite in2="hardAlpha" operator="out"/>
<feColorMatrix type="matrix" values="0 0 0 0 0.0127777 0 0 0 0 0.312937 0 0 0 0 0.766667 0 0 0 0.6 0"/>
<feBlend mode="normal" in2="BackgroundImageFix" result="effect1_dropShadow_170_264"/>
<feBlend mode="normal" in="SourceGraphic" in2="effect1_dropShadow_170_264" result="shape"/>
</filter>
<filter id="filter2_df_170_264" x="178.891" y="438.986" width="166.333" height="178.871" filterUnits="userSpaceOnUse" color-interpolation-filters="sRGB">
<feFlood flood-opacity="0" result="BackgroundImageFix"/>
<feColorMatrix in="SourceAlpha" type="matrix" values="0 0 0 0 0 0 0 0 0 0 0 0 0 0 0 0 0 0 127 0" result="hardAlpha"/>
<feOffset dx="-13" dy="12"/>
<feGaussianBlur stdDeviation="25"/>
<feComposite in2="hardAlpha" operator="out"/>
<feColorMatrix type="matrix" values="0 0 0 0 0.0127777 0 0 0 0 0.312937 0 0 0 0 0.766667 0 0 0 0.6 0"/>
<feBlend mode="normal" in2="BackgroundImageFix" result="effect1_dropShadow_170_264"/>
<feBlend mode="normal" in="SourceGraphic" in2="effect1_dropShadow_170_264" result="shape"/>
<feGaussianBlur stdDeviation="1" result="effect2_foregroundBlur_170_264"/>
</filter>
<filter id="filter3_d_170_264" x="140.266" y="154.498" width="253.895" height="282.986" filterUnits="userSpaceOnUse" color-interpolation-filters="sRGB">
<feFlood flood-opacity="0" result="BackgroundImageFix"/>
<feColorMatrix in="SourceAlpha" type="matrix" values="0 0 0 0 0 0 0 0 0 0 0 0 0 0 0 0 0 0 127 0" result="hardAlpha"/>
<feOffset dx="-13" dy="12"/>
<feGaussianBlur stdDeviation="25"/>
<feComposite in2="hardAlpha" operator="out"/>
<feColorMatrix type="matrix" values="0 0 0 0 0.0127777 0 0 0 0 0.312937 0 0 0 0 0.766667 0 0 0 0.6 0"/>
<feBlend mode="normal" in2="BackgroundImageFix" result="effect1_dropShadow_170_264"/>
<feBlend mode="normal" in="SourceGraphic" in2="effect1_dropShadow_170_264" result="shape"/>
</filter>
<radialGradient id="paint0_radial_170_264" cx="0" cy="0" r="1" gradientUnits="userSpaceOnUse" gradientTransform="translate(380.933 570.271) rotate(90) scale(145.118 375.09)">
<stop offset="0.0001" stop-color="#262FFF" stop-opacity="0.35"/>
<stop offset="1" stop-color="#262FFF" stop-opacity="0"/>
</radialGradient>
<linearGradient id="paint1_linear_170_264" x1="498.074" y1="373.694" x2="483.499" y2="417.583" gradientUnits="userSpaceOnUse">
<stop stop-color="#1861CE"/>
<stop offset="1" stop-color="#3E14B7"/>
</linearGradient>
<linearGradient id="paint2_linear_170_264" x1="492.289" y1="402.13" x2="615.926" y2="365.454" gradientUnits="userSpaceOnUse">
<stop offset="0.04" stop-color="#0B63E6"/>
<stop offset="0.4" stop-color="#1663D8"/>
<stop offset="1" stop-color="#1C90E6"/>
</linearGradient>
<linearGradient id="paint3_linear_170_264" x1="482.552" y1="406.567" x2="600.638" y2="371.215" gradientUnits="userSpaceOnUse">
<stop offset="0.04" stop-color="#1673FD"/>
<stop offset="0.4" stop-color="#2071EA"/>
<stop offset="1" stop-color="#38AAFD"/>
</linearGradient>
<linearGradient id="paint4_linear_170_264" x1="478.843" y1="411.385" x2="538.055" y2="389.037" gradientUnits="userSpaceOnUse">
<stop stop-color="#3888FF"/>
<stop offset="1" stop-color="#4FB5FF"/>
</linearGradient>
<linearGradient id="paint5_linear_170_264" x1="535.766" y1="429.074" x2="458.847" y2="401.383" gradientUnits="userSpaceOnUse">
<stop stop-color="#1A72F5"/>
<stop offset="0.28125" stop-color="#348EFB"/>
<stop offset="0.395833" stop-color="#FAFCFF"/>
<stop offset="0.557292" stop-color="#3B95FD"/>
<stop offset="1" stop-color="#439DFF"/>
</linearGradient>
<linearGradient id="paint6_linear_170_264" x1="501.8" y1="398.754" x2="606.709" y2="371.069" gradientUnits="userSpaceOnUse">
<stop offset="0.04" stop-color="#1673FD"/>
<stop offset="0.4" stop-color="#2071EA"/>
<stop offset="1" stop-color="#38AAFD"/>
</linearGradient>
<radialGradient id="paint7_radial_170_264" cx="0" cy="0" r="1" gradientUnits="userSpaceOnUse" gradientTransform="translate(512.272 383.527) scale(40.4285 40.4285)">
<stop stop-color="white"/>
<stop offset="1"/>
</radialGradient>
<linearGradient id="paint8_linear_170_264" x1="480.085" y1="98.3951" x2="448.42" y2="193.744" gradientUnits="userSpaceOnUse">
<stop stop-color="#1861CE"/>
<stop offset="1" stop-color="#3E14B7"/>
</linearGradient>
<linearGradient id="paint9_linear_170_264" x1="467.516" y1="160.173" x2="736.121" y2="80.494" gradientUnits="userSpaceOnUse">
<stop offset="0.04" stop-color="#0B63E6"/>
<stop offset="0.4" stop-color="#1663D8"/>
<stop offset="1" stop-color="#1C90E6"/>
</linearGradient>
<linearGradient id="paint10_linear_170_264" x1="446.363" y1="169.814" x2="702.908" y2="93.0108" gradientUnits="userSpaceOnUse">
<stop offset="0.04" stop-color="#1673FD"/>
<stop offset="0.4" stop-color="#2071EA"/>
<stop offset="1" stop-color="#38AAFD"/>
</linearGradient>
<linearGradient id="paint11_linear_170_264" x1="438.305" y1="180.279" x2="566.945" y2="131.727" gradientUnits="userSpaceOnUse">
<stop stop-color="#3888FF"/>
<stop offset="1" stop-color="#4FB5FF"/>
</linearGradient>
<linearGradient id="paint12_linear_170_264" x1="561.967" y1="218.71" x2="394.859" y2="158.551" gradientUnits="userSpaceOnUse">
<stop stop-color="#1A72F5"/>
<stop offset="0.28125" stop-color="#348EFB"/>
<stop offset="0.395833" stop-color="#FAFCFF"/>
<stop offset="0.557292" stop-color="#3B95FD"/>
<stop offset="1" stop-color="#439DFF"/>
</linearGradient>
<linearGradient id="paint13_linear_170_264" x1="488.178" y1="152.838" x2="716.098" y2="92.6923" gradientUnits="userSpaceOnUse">
<stop offset="0.04" stop-color="#1673FD"/>
<stop offset="0.4" stop-color="#2071EA"/>
<stop offset="1" stop-color="#38AAFD"/>
</linearGradient>
<radialGradient id="paint14_radial_170_264" cx="0" cy="0" r="1" gradientUnits="userSpaceOnUse" gradientTransform="translate(510.934 119.759) scale(87.8322 87.8323)">
<stop stop-color="white"/>
<stop offset="1"/>
</radialGradient>
<linearGradient id="paint15_linear_170_264" x1="281.195" y1="498.164" x2="292.299" y2="531.599" gradientUnits="userSpaceOnUse">
<stop stop-color="#1861CE"/>
<stop offset="1" stop-color="#3E14B7"/>
</linearGradient>
<linearGradient id="paint16_linear_170_264" x1="285.606" y1="519.827" x2="191.417" y2="491.887" gradientUnits="userSpaceOnUse">
<stop offset="0.04" stop-color="#0B63E6"/>
<stop offset="0.4" stop-color="#1663D8"/>
<stop offset="1" stop-color="#1C90E6"/>
</linearGradient>
<linearGradient id="paint17_linear_170_264" x1="293.023" y1="523.208" x2="203.063" y2="496.276" gradientUnits="userSpaceOnUse">
<stop offset="0.04" stop-color="#1673FD"/>
<stop offset="0.4" stop-color="#2071EA"/>
<stop offset="1" stop-color="#38AAFD"/>
</linearGradient>
<linearGradient id="paint18_linear_170_264" x1="295.847" y1="526.878" x2="250.738" y2="509.852" gradientUnits="userSpaceOnUse">
<stop stop-color="#3888FF"/>
<stop offset="1" stop-color="#4FB5FF"/>
</linearGradient>
<linearGradient id="paint19_linear_170_264" x1="252.488" y1="540.354" x2="311.086" y2="519.258" gradientUnits="userSpaceOnUse">
<stop stop-color="#1A72F5"/>
<stop offset="0.28125" stop-color="#348EFB"/>
<stop offset="0.395833" stop-color="#FAFCFF"/>
<stop offset="0.557292" stop-color="#3B95FD"/>
<stop offset="1" stop-color="#439DFF"/>
</linearGradient>
<linearGradient id="paint20_linear_170_264" x1="278.36" y1="517.256" x2="198.438" y2="496.165" gradientUnits="userSpaceOnUse">
<stop offset="0.04" stop-color="#1673FD"/>
<stop offset="0.4" stop-color="#2071EA"/>
<stop offset="1" stop-color="#38AAFD"/>
</linearGradient>
<radialGradient id="paint21_radial_170_264" cx="0" cy="0" r="1" gradientUnits="userSpaceOnUse" gradientTransform="translate(270.38 505.656) rotate(180) scale(30.7992 30.7993)">
<stop stop-color="white"/>
<stop offset="1"/>
</radialGradient>
<linearGradient id="paint22_linear_170_264" x1="294.462" y1="241.633" x2="320.223" y2="319.205" gradientUnits="userSpaceOnUse">
<stop stop-color="#1861CE"/>
<stop offset="1" stop-color="#3E14B7"/>
</linearGradient>
<linearGradient id="paint23_linear_170_264" x1="304.689" y1="291.892" x2="86.1633" y2="227.069" gradientUnits="userSpaceOnUse">
<stop offset="0.04" stop-color="#0B63E6"/>
<stop offset="0.4" stop-color="#1663D8"/>
<stop offset="1" stop-color="#1C90E6"/>
</linearGradient>
<linearGradient id="paint24_linear_170_264" x1="321.894" y1="299.736" x2="113.181" y2="237.253" gradientUnits="userSpaceOnUse">
<stop offset="0.04" stop-color="#1673FD"/>
<stop offset="0.4" stop-color="#2071EA"/>
<stop offset="1" stop-color="#38AAFD"/>
</linearGradient>
<linearGradient id="paint25_linear_170_264" x1="328.451" y1="308.251" x2="223.796" y2="268.751" gradientUnits="userSpaceOnUse">
<stop stop-color="#3888FF"/>
<stop offset="1" stop-color="#4FB5FF"/>
</linearGradient>
<linearGradient id="paint26_linear_170_264" x1="227.847" y1="339.516" x2="363.799" y2="290.573" gradientUnits="userSpaceOnUse">
<stop stop-color="#1A72F5"/>
<stop offset="0.28125" stop-color="#348EFB"/>
<stop offset="0.395833" stop-color="#FAFCFF"/>
<stop offset="0.557292" stop-color="#3B95FD"/>
<stop offset="1" stop-color="#439DFF"/>
</linearGradient>
<linearGradient id="paint27_linear_170_264" x1="287.878" y1="285.925" x2="102.453" y2="236.993" gradientUnits="userSpaceOnUse">
<stop offset="0.04" stop-color="#1673FD"/>
<stop offset="0.4" stop-color="#2071EA"/>
<stop offset="1" stop-color="#38AAFD"/>
</linearGradient>
<radialGradient id="paint28_radial_170_264" cx="0" cy="0" r="1" gradientUnits="userSpaceOnUse" gradientTransform="translate(269.366 259.013) rotate(180) scale(71.4564 71.4564)">
<stop stop-color="white"/>
<stop offset="1"/>
</radialGradient>
</defs>
</svg>
