<svg width="216" height="65" viewBox="0 0 216 65" fill="none" xmlns="http://www.w3.org/2000/svg">
<path d="M67.2192 0.301758V5.34976V6.18343V59.1186H61.3375H50.4144V30.4664L37.3067 52.4807H35.7942L35.3606 51.7525L22.6865 30.4664V59.1186H16.8048H5.88168V6.18343V0.301758H22.6865L36.5504 24.2486L47.0092 6.18343L50.4144 0.301758H67.2192Z" fill="#8C2FFF"/>
<path d="M116.8 0.301758V5.32678V6.18343V16.6024H115.943H110.918H102.936V59.1186H97.0543H86.1312V16.6024H72.2672V6.18343V0.301758H116.8Z" fill="#8C2FFF"/>
<path d="M138.63 42.8179H157.135H157.955V44.2716V59.1186H157.135H152.074H121.825V6.18343V0.301758H138.63V42.8179Z" fill="#8C2FFF"/>
<path d="M61.3375 6.18343V59.1186V65.0002H44.5327V36.3481L35.3606 51.7525L33.6508 54.6241L31.425 58.3623H29.9125L16.8048 36.3481V59.1186V65.0002H0V6.18343H5.88168H16.8048L30.6688 30.1303L44.5327 6.18343H47.0092H61.3375Z" fill="#8C2FFF"/>
<path d="M110.918 6.18343V16.6024V22.4841H97.0543V59.1186V65.0002H80.2495V22.4841H66.3855V6.18343H67.2192H72.2672H110.918Z" fill="#8C2FFF"/>
<path d="M132.748 48.6996H152.074V59.1186V65.0002H115.943V17.4591V16.6024V6.18343H116.8H121.825H132.748V48.6996Z" fill="#8C2FFF"/>
<path d="M5.88168 6.18343V0.301758L0 6.18343H5.88168Z" fill="#8C2FFF"/>
<path d="M22.6865 59.1186H16.8048V65.0002L22.6865 59.1186Z" fill="#8C2FFF"/>
<path d="M37.3067 52.4807H35.7942L33.6508 54.6241L31.425 58.3623L37.3067 52.4807Z" fill="#8C2FFF"/>
<path d="M35.7942 52.4807L35.3606 51.7525L33.6508 54.6241L35.7942 52.4807Z" fill="#8C2FFF"/>
<path d="M67.2192 59.1186H61.3375V65.0002L67.2192 59.1186Z" fill="#8C2FFF"/>
<path d="M67.2192 5.34976V6.18343H72.2672V0.301758L67.2192 5.34976Z" fill="#8C2FFF"/>
<path d="M47.0092 6.18343L50.4144 0.301758L44.5327 6.18343H47.0092Z" fill="#8C2FFF"/>
<path d="M115.943 16.6024H110.918V22.4841L115.943 17.4591V16.6024Z" fill="#8C2FFF"/>
<path d="M102.936 59.1186H97.0543V65.0002L102.936 59.1186Z" fill="#8C2FFF"/>
<path d="M116.8 5.32678V6.18343H121.825V0.301758L116.8 5.32678Z" fill="#8C2FFF"/>
<path d="M157.135 59.1186H152.074V65.0002L157.135 59.9391V59.1186Z" fill="#8C2FFF"/>
<path d="M163.016 6.18343V0.301758L157.135 6.18343H163.016Z" fill="#8C2FFF"/>
<path d="M207.05 51.3837C206.161 52.2458 205.237 53.0358 204.279 53.7538C203.536 54.7368 202.721 55.6848 201.836 56.5978L207.05 51.3837Z" fill="#8C2FFF"/>
<path fill-rule="evenodd" clip-rule="evenodd" d="M187.383 0.301758C195.506 0.301758 202.284 3.13057 207.717 8.78818C213.207 14.3898 215.952 21.3638 215.952 29.7102C215.952 38.0565 213.207 45.0585 207.717 50.7162C207.497 50.9433 207.274 51.1658 207.05 51.3837C206.161 52.2458 205.237 53.0358 204.279 53.7538C203.536 54.7368 202.721 55.6848 201.836 56.5978C196.402 62.1994 189.624 65.0002 181.502 65.0002H157.135V59.9391V59.1186V42.8179H157.955V44.2716L163.016 39.2055H174.78H180.661V42.8179H187.383C189.068 42.8179 190.604 42.525 191.989 41.9393C192.84 40.0894 193.265 37.9735 193.265 35.5918C193.265 31.7267 192.145 28.5898 189.904 26.1811C187.719 23.7164 184.919 22.4841 181.502 22.4841H180.661V25.719H174.78H163.016V6.18343V0.301758H187.383Z" fill="#8C2FFF"/>
<path d="M163.007 25.719L157.135 31.6007H163.016V25.719H163.007Z" fill="#8C2FFF"/>
<path d="M174.78 25.719H163.016V31.6007H174.78V25.719Z" fill="#8C2FFF"/>
<path d="M180.661 25.719H174.78V31.6007L180.661 25.719Z" fill="#8C2FFF"/>
<path d="M67.2192 0.301758V5.34976V6.18343V21.6504V22.4841V59.1186H61.3375H50.4144V30.4664L37.3067 52.4807H35.7942L35.3606 51.7525L22.6865 30.4664V59.1186H16.8048H5.88168V6.18343V0.301758H22.6865L36.5504 24.2486L47.0092 6.18343L50.4144 0.301758H67.2192Z" fill="#BE89FF"/>
<path d="M116.8 0.301758V5.32678V6.18343V16.6024H115.943H110.918H102.936V22.4841V59.1186H97.0543H86.1312V16.6024H72.2672V6.18343V0.301758H116.8Z" fill="#BE89FF"/>
<path d="M138.63 42.8179H157.135H157.955V44.2683V59.1186H157.135H152.074H121.825V6.18343V0.301758H138.63V42.8179Z" fill="#BE89FF"/>
<path d="M5.88168 6.18343V0.301758L0 6.18343H5.88168Z" fill="#BE89FF"/>
<path d="M37.3067 52.4807H35.7942L33.6508 54.6241L31.425 58.3623L37.3067 52.4807Z" fill="#BE89FF"/>
<path d="M35.7942 52.4807L35.3606 51.7525L33.6508 54.6241L35.7942 52.4807Z" fill="#BE89FF"/>
<path d="M67.2192 5.34976V6.18343H72.2672V0.301758L67.2192 5.34976Z" fill="#BE89FF"/>
<path d="M47.0092 6.18343L50.4144 0.301758L44.5327 6.18343H47.0092Z" fill="#BE89FF"/>
<path d="M116.8 5.32678V6.18343H121.825V0.301758L116.8 5.32678Z" fill="#BE89FF"/>
<path d="M163.016 6.18343V0.301758L157.135 6.18343H163.016Z" fill="#BE89FF"/>
<path d="M207.05 51.3837C206.161 52.2458 205.237 53.0358 204.279 53.7538C203.536 54.7368 202.721 55.6848 201.836 56.5978L207.05 51.3837Z" fill="#BE89FF"/>
<path fill-rule="evenodd" clip-rule="evenodd" d="M61.3375 6.18343V59.1186H50.4144L44.5327 65.0002V36.3481L35.3606 51.7525L33.6508 54.6241L31.425 58.3623H29.9125L16.8048 36.3481V59.1186H5.88168L0 65.0002V6.18343H5.88168H16.8048L30.6688 30.1303L44.5327 6.18343H47.0092H61.3375Z" fill="#BE89FF"/>
<path fill-rule="evenodd" clip-rule="evenodd" d="M110.918 16.6024V6.18343H72.2672H67.2192H66.3855V22.4841H67.2192V21.6504L72.2672 16.6024H86.1312L80.2495 22.4841V65.0002L86.1312 59.1186H97.0543V22.4841H102.936V16.6024H110.918Z" fill="#BE89FF"/>
<path fill-rule="evenodd" clip-rule="evenodd" d="M152.074 48.6996H132.748V6.18343H121.825H116.8H115.943V16.6024V17.4591V65.0002L121.825 59.1186H152.074V48.6996Z" fill="#BE89FF"/>
<path fill-rule="evenodd" clip-rule="evenodd" d="M187.383 0.301758C195.506 0.301758 202.284 3.13057 207.717 8.78818C213.207 14.3898 215.952 21.3638 215.952 29.7102C215.952 38.0565 213.207 45.0585 207.717 50.7162C207.497 50.9433 207.274 51.1658 207.05 51.3837C206.161 52.2458 205.237 53.0358 204.279 53.7538C199.505 57.3303 193.874 59.1186 187.383 59.1186H163.016L157.135 65.0002V59.9391V59.1186V42.8179H157.955V44.2683L163.016 39.2072H174.78H180.661V42.8179H187.383C189.068 42.8179 190.604 42.525 191.989 41.9393C193.413 41.3373 194.678 40.4258 195.786 39.2049C198.026 36.7402 199.147 33.5753 199.147 29.7102C199.147 25.8451 198.026 22.7082 195.786 20.2995C193.601 17.8348 190.8 16.6024 187.383 16.6024H180.661V22.4841V25.719H174.78H163.016L157.135 31.6007V6.18343H163.016V0.301758H187.383Z" fill="#BE89FF"/>
<path d="M67.2164 0.303711V59.1205H50.4116V30.4683L37.3039 52.4826H35.7915L22.6837 30.4683V59.1205H5.87891V0.303711H22.6837L36.5477 24.2506L50.4116 0.303711H67.2164Z" fill="white"/>
<path d="M116.797 0.303711V16.6044H102.933V59.1205H86.1284V16.6044H72.2644V0.303711H116.797Z" fill="white"/>
<path d="M138.627 42.8199H157.953V59.1205H121.822V0.303711H138.627V42.8199Z" fill="white"/>
<path fill-rule="evenodd" clip-rule="evenodd" d="M207.714 8.79014C202.281 3.13252 195.503 0.303711 187.381 0.303711H163.014V25.7185H180.659V16.6044H187.381C190.798 16.6044 193.598 17.8367 195.783 20.3014C198.024 22.7101 199.144 25.847 199.144 29.7121C199.144 33.5772 198.024 36.7421 195.783 39.2068C193.598 41.6155 190.798 42.8199 187.381 42.8199H180.659V39.2068H163.014V59.1205H187.381C195.503 59.1205 202.281 56.3197 207.714 50.7181C213.204 45.0605 215.949 38.0585 215.949 29.7121C215.949 21.3657 213.204 14.3917 207.714 8.79014Z" fill="white"/>
</svg>
