<svg width="28" height="56" viewBox="0 0 28 56" fill="none" xmlns="http://www.w3.org/2000/svg">
<mask id="path-1-inside-1_170_466" fill="white">
<path d="M27.5 55.499C23.8886 55.499 20.3127 54.7877 16.9762 53.4057C13.6397 52.0237 10.6082 49.9981 8.05456 47.4445C5.50095 44.8908 3.47531 41.8593 2.09331 38.5228C0.711305 35.1864 -1.82248e-06 31.6104 0 27.999C1.82249e-06 24.3877 0.711313 20.8117 2.09332 17.4752C3.47533 14.1388 5.50096 11.1072 8.05458 8.55357C10.6082 5.99996 13.6398 3.97433 16.9762 2.59233C20.3127 1.21033 23.8887 0.49902 27.5 0.499023L27.5 4.79471C24.4528 4.79471 21.4354 5.3949 18.6201 6.56103C15.8048 7.72715 13.2468 9.43637 11.0921 11.5911C8.93736 13.7458 7.22814 16.3038 6.06202 19.1191C4.89589 21.9344 4.29569 24.9518 4.29569 27.999C4.29569 31.0462 4.89588 34.0636 6.06201 36.8789C7.22813 39.6942 8.93735 42.2522 11.0921 44.4069C13.2468 46.5617 15.8048 48.2709 18.6201 49.437C21.4354 50.6031 24.4528 51.2033 27.5 51.2033V55.499Z"/>
</mask>
<path d="M27.5 55.499C23.8886 55.499 20.3127 54.7877 16.9762 53.4057C13.6397 52.0237 10.6082 49.9981 8.05456 47.4445C5.50095 44.8908 3.47531 41.8593 2.09331 38.5228C0.711305 35.1864 -1.82248e-06 31.6104 0 27.999C1.82249e-06 24.3877 0.711313 20.8117 2.09332 17.4752C3.47533 14.1388 5.50096 11.1072 8.05458 8.55357C10.6082 5.99996 13.6398 3.97433 16.9762 2.59233C20.3127 1.21033 23.8887 0.49902 27.5 0.499023L27.5 4.79471C24.4528 4.79471 21.4354 5.3949 18.6201 6.56103C15.8048 7.72715 13.2468 9.43637 11.0921 11.5911C8.93736 13.7458 7.22814 16.3038 6.06202 19.1191C4.89589 21.9344 4.29569 24.9518 4.29569 27.999C4.29569 31.0462 4.89588 34.0636 6.06201 36.8789C7.22813 39.6942 8.93735 42.2522 11.0921 44.4069C13.2468 46.5617 15.8048 48.2709 18.6201 49.437C21.4354 50.6031 24.4528 51.2033 27.5 51.2033V55.499Z" fill="url(#paint0_linear_170_466)" stroke="url(#paint1_linear_170_466)" stroke-width="4" mask="url(#path-1-inside-1_170_466)"/>
<defs>
<linearGradient id="paint0_linear_170_466" x1="-2.06495e-06" y1="-10.001" x2="63.9356" y2="-4.97483" gradientUnits="userSpaceOnUse">
<stop stop-color="#8A2CFF"/>
<stop offset="1" stop-color="#6B05EA"/>
</linearGradient>
<linearGradient id="paint1_linear_170_466" x1="27.5" y1="0.499023" x2="27.5" y2="8.99902" gradientUnits="userSpaceOnUse">
<stop stop-color="#8F34FF"/>
<stop offset="1" stop-color="#8F34FF" stop-opacity="0"/>
</linearGradient>
</defs>
</svg>
