<svg width="86" height="27" viewBox="0 0 86 27" fill="none" xmlns="http://www.w3.org/2000/svg">
<path d="M26.7692 0.59082V2.60112V2.93312V24.0139H24.4269H20.0769V12.6035L14.8569 21.3704H14.2546L14.0819 21.0804L9.03461 12.6035V24.0139H6.6923H2.34231V2.93312V0.59082H9.03461L14.5558 10.1274L18.7208 2.93312L20.0769 0.59082H26.7692Z" fill="#8C2FFF"/>
<path d="M46.5141 0.59082V2.59197V2.93312V7.08235H46.173H44.1718H40.993V24.0139H38.6507H34.3007V7.08235H28.7795V2.93312V0.59082H46.5141Z" fill="#8C2FFF"/>
<path d="M55.2076 17.5223H62.5769H62.9037V18.1013V24.0139H62.5769H60.5614H48.5153V2.93312V0.59082H55.2076V17.5223Z" fill="#8C2FFF"/>
<path d="M24.4269 2.93312V24.0139V26.3562H17.7346V14.9458L14.0819 21.0804L13.401 22.224L12.5146 23.7127H11.9123L6.6923 14.9458V24.0139V26.3562H0V2.93312H2.34231H6.6923L12.2135 12.4697L17.7346 2.93312H18.7208H24.4269Z" fill="#8C2FFF"/>
<path d="M44.1718 2.93312V7.08235V9.42466H38.6507V24.0139V26.3562H31.9584V9.42466H26.4372V2.93312H26.7692H28.7795H44.1718Z" fill="#8C2FFF"/>
<path d="M52.8653 19.8646H60.5614V24.0139V26.3562H46.173V7.4235V7.08235V2.93312H46.5141H48.5153H52.8653V19.8646Z" fill="#8C2FFF"/>
<path d="M2.34231 2.93312V0.59082L0 2.93312H2.34231Z" fill="#8C2FFF"/>
<path d="M9.03461 24.0139H6.6923V26.3562L9.03461 24.0139Z" fill="#8C2FFF"/>
<path d="M14.8569 21.3704H14.2546L13.401 22.224L12.5146 23.7127L14.8569 21.3704Z" fill="#8C2FFF"/>
<path d="M14.2546 21.3704L14.0819 21.0804L13.401 22.224L14.2546 21.3704Z" fill="#8C2FFF"/>
<path d="M26.7692 24.0139H24.4269V26.3562L26.7692 24.0139Z" fill="#8C2FFF"/>
<path d="M26.7692 2.60112V2.93312H28.7795V0.59082L26.7692 2.60112Z" fill="#8C2FFF"/>
<path d="M18.7208 2.93312L20.0769 0.59082L17.7346 2.93312H18.7208Z" fill="#8C2FFF"/>
<path d="M46.173 7.08235H44.1718V9.42466L46.173 7.4235V7.08235Z" fill="#8C2FFF"/>
<path d="M40.993 24.0139H38.6507V26.3562L40.993 24.0139Z" fill="#8C2FFF"/>
<path d="M46.5141 2.59197V2.93312H48.5153V0.59082L46.5141 2.59197Z" fill="#8C2FFF"/>
<path d="M62.5769 24.0139H60.5614V26.3562L62.5769 24.3407V24.0139Z" fill="#8C2FFF"/>
<path d="M64.9193 2.93312V0.59082L62.5769 2.93312H64.9193Z" fill="#8C2FFF"/>
<path d="M82.4549 20.9336C82.1009 21.2769 81.7331 21.5915 81.3514 21.8774C81.0556 22.2689 80.7313 22.6464 80.3785 23.01L82.4549 20.9336Z" fill="#8C2FFF"/>
<path fill-rule="evenodd" clip-rule="evenodd" d="M74.6231 0.59082C77.8577 0.59082 80.5569 1.71736 82.7208 3.97043C84.9069 6.2012 86 8.97851 86 12.3023C86 15.6262 84.9069 18.4147 82.7208 20.6677C82.633 20.7582 82.5444 20.8468 82.4549 20.9336C82.1009 21.2769 81.7331 21.5915 81.3514 21.8774C81.0556 22.2689 80.7313 22.6464 80.3785 23.01C78.2146 25.2408 75.5154 26.3562 72.2808 26.3562H62.5769V24.3407V24.0139V17.5223H62.9037V18.1013L64.9193 16.0838H69.6039H71.9462V17.5223H74.6231C75.2941 17.5223 75.9055 17.4057 76.4572 17.1725C76.796 16.4357 76.9654 15.5931 76.9654 14.6447C76.9654 13.1054 76.5192 11.8562 75.6269 10.897C74.7569 9.91543 73.6415 9.42466 72.2808 9.42466H71.9462V10.7129H69.6039H64.9193V2.93312V0.59082H74.6231Z" fill="#8C2FFF"/>
<path d="M64.9153 10.7129L62.5769 13.0552H64.9193V10.7129H64.9153Z" fill="#8C2FFF"/>
<path d="M69.6039 10.7129H64.9193V13.0552H69.6039V10.7129Z" fill="#8C2FFF"/>
<path d="M71.9462 10.7129H69.6039V13.0552L71.9462 10.7129Z" fill="#8C2FFF"/>
<path d="M26.7692 0.59082V2.60112V2.93312V9.09266V9.42466V24.0139H24.4269H20.0769V12.6035L14.8569 21.3704H14.2546L14.0819 21.0804L9.03461 12.6035V24.0139H6.6923H2.34231V2.93312V0.59082H9.03461L14.5558 10.1274L18.7208 2.93312L20.0769 0.59082H26.7692Z" fill="#BE89FF"/>
<path d="M46.5141 0.59082V2.59197V2.93312V7.08235H46.173H44.1718H40.993V9.42466V24.0139H38.6507H34.3007V7.08235H28.7795V2.93312V0.59082H46.5141Z" fill="#BE89FF"/>
<path d="M55.2076 17.5223H62.5769H62.9037V18.0999V24.0139H62.5769H60.5614H48.5153V2.93312V0.59082H55.2076V17.5223Z" fill="#BE89FF"/>
<path d="M2.34231 2.93312V0.59082L0 2.93312H2.34231Z" fill="#BE89FF"/>
<path d="M14.8569 21.3704H14.2546L13.401 22.224L12.5146 23.7127L14.8569 21.3704Z" fill="#BE89FF"/>
<path d="M14.2546 21.3704L14.0819 21.0804L13.401 22.224L14.2546 21.3704Z" fill="#BE89FF"/>
<path d="M26.7692 2.60112V2.93312H28.7795V0.59082L26.7692 2.60112Z" fill="#BE89FF"/>
<path d="M18.7208 2.93312L20.0769 0.59082L17.7346 2.93312H18.7208Z" fill="#BE89FF"/>
<path d="M46.5141 2.59197V2.93312H48.5153V0.59082L46.5141 2.59197Z" fill="#BE89FF"/>
<path d="M64.9193 2.93312V0.59082L62.5769 2.93312H64.9193Z" fill="#BE89FF"/>
<path d="M82.4549 20.9336C82.1009 21.2769 81.7331 21.5915 81.3514 21.8774C81.0556 22.2689 80.7313 22.6464 80.3785 23.01L82.4549 20.9336Z" fill="#BE89FF"/>
<path fill-rule="evenodd" clip-rule="evenodd" d="M24.4269 2.93312V24.0139H20.0769L17.7346 26.3562V14.9458L14.0819 21.0804L13.401 22.224L12.5146 23.7127H11.9123L6.6923 14.9458V24.0139H2.34231L0 26.3562V2.93312H2.34231H6.6923L12.2135 12.4697L17.7346 2.93312H18.7208H24.4269Z" fill="#BE89FF"/>
<path fill-rule="evenodd" clip-rule="evenodd" d="M44.1718 7.08235V2.93312H28.7795H26.7692H26.4372V9.42466H26.7692V9.09266L28.7795 7.08235H34.3007L31.9584 9.42466V26.3562L34.3007 24.0139H38.6507V9.42466H40.993V7.08235H44.1718Z" fill="#BE89FF"/>
<path fill-rule="evenodd" clip-rule="evenodd" d="M60.5614 19.8646H52.8653V2.93312H48.5153H46.5141H46.173V7.08235V7.4235V26.3562L48.5153 24.0139H60.5614V19.8646Z" fill="#BE89FF"/>
<path fill-rule="evenodd" clip-rule="evenodd" d="M74.6231 0.59082C77.8577 0.59082 80.5569 1.71736 82.7208 3.97043C84.9069 6.2012 86 8.97851 86 12.3023C86 15.6262 84.9069 18.4147 82.7208 20.6677C82.633 20.7582 82.5444 20.8468 82.4549 20.9336C82.1009 21.2769 81.7331 21.5915 81.3514 21.8774C79.4505 23.3017 77.2077 24.0139 74.6231 24.0139H64.9193L62.5769 26.3562V24.3407V24.0139V17.5223H62.9037V18.0999L64.9193 16.0844H69.6039H71.9462V17.5223H74.6231C75.2941 17.5223 75.9055 17.4057 76.4572 17.1725C77.0242 16.9327 77.5283 16.5697 77.9692 16.0835C78.8615 15.102 79.3077 13.8416 79.3077 12.3023C79.3077 10.7631 78.8615 9.51389 77.9692 8.55466C77.0992 7.57312 75.9839 7.08235 74.6231 7.08235H71.9462V9.42466V10.7129H69.6039H64.9193L62.5769 13.0552V2.93312H64.9193V0.59082H74.6231Z" fill="#BE89FF"/>
<path d="M26.7667 0.591797V24.0149H20.0744V12.6045L14.8544 21.3714H14.2521L9.03215 12.6045V24.0149H2.33984V0.591797H9.03215L14.5533 10.1283L20.0744 0.591797H26.7667Z" fill="white"/>
<path d="M46.5117 0.591797V7.08333H40.9905V24.0149H34.2982V7.08333H28.7771V0.591797H46.5117Z" fill="white"/>
<path d="M55.2051 17.5233H62.9013V24.0149H48.5128V0.591797H55.2051V17.5233Z" fill="white"/>
<path fill-rule="evenodd" clip-rule="evenodd" d="M82.7183 3.97141C80.5545 1.71833 77.8552 0.591797 74.6206 0.591797H64.9168V10.7129H71.9437V7.08333H74.6206C75.9814 7.08333 77.0968 7.5741 77.9668 8.55564C78.8591 9.51487 79.3052 10.7641 79.3052 12.3033C79.3052 13.8426 78.8591 15.1029 77.9668 16.0845C77.0968 17.0437 75.9814 17.5233 74.6206 17.5233H71.9437V16.0845H64.9168V24.0149H74.6206C77.8552 24.0149 80.5545 22.8995 82.7183 20.6687C84.9045 18.4156 85.9975 15.6272 85.9975 12.3033C85.9975 8.97948 84.9045 6.20218 82.7183 3.97141Z" fill="white"/>
</svg>
