<svg width="39" height="31" viewBox="0 0 39 31" fill="none" xmlns="http://www.w3.org/2000/svg">
<g clip-path="url(#clip0_170_983)">
<path d="M39 3.77405C37.5649 4.3936 36.0229 4.81233 34.4044 5.0007C36.0566 4.03659 37.3251 2.50987 37.9225 0.690811C36.3519 1.59824 34.6335 2.23759 32.8417 2.58122C31.3821 1.06726 29.3027 0.121094 27.0013 0.121094C22.5824 0.121094 18.9997 3.60911 18.9997 7.91114C18.9997 8.52179 19.0705 9.11628 19.2069 9.68659C12.5571 9.36161 6.66138 6.26028 2.71492 1.54709C2.02632 2.69765 1.63175 4.03599 1.63175 5.46347C1.63175 8.16626 3.04444 10.5506 5.19127 11.9477C3.92064 11.9089 2.67797 11.5748 1.56701 10.9732C1.56655 11.0058 1.56655 11.0384 1.56655 11.0712C1.56655 14.8456 4.32458 17.9943 7.98479 18.71C6.80655 19.022 5.57065 19.0676 4.3715 18.8435C5.38962 21.9384 8.34463 24.1906 11.8458 24.2536C9.10741 26.3429 5.65729 27.5884 1.90871 27.5884C1.26278 27.5884 0.62598 27.5515 0 27.4795C3.54093 29.6899 7.74668 30.9796 12.2652 30.9796C26.9827 30.9796 35.0305 19.109 35.0305 8.81459C35.0305 8.4767 35.0229 8.14075 35.0074 7.80672C36.5738 6.70419 37.9258 5.33861 39 3.77405Z" fill="white"/>
</g>
<defs>
<clipPath id="clip0_170_983">
<rect width="39" height="31" fill="white"/>
</clipPath>
</defs>
</svg>
