<svg width="124" height="122" viewBox="0 0 124 122" fill="none" xmlns="http://www.w3.org/2000/svg">
<circle cx="19" cy="17" r="104.5" stroke="#232642"/>
<path d="M101.784 16.9999C101.784 65.261 62.7181 104.383 14.5289 104.383C-33.6603 104.383 -72.7266 65.261 -72.7266 16.9999C-72.7266 -31.2612 -33.6603 -70.3833 14.5289 -70.3833C62.7181 -70.3833 101.784 -31.2612 101.784 16.9999Z" stroke="#232642"/>
<path d="M83.3899 16.9999C83.3899 56.5116 51.3023 88.5437 11.7184 88.5437C-27.8655 88.5437 -59.9531 56.5116 -59.9531 16.9999C-59.9531 -22.5119 -27.8655 -54.5439 11.7184 -54.5439C51.3023 -54.5439 83.3899 -22.5119 83.3899 16.9999Z" stroke="#232642"/>
<path d="M64.4869 17.128C64.4869 47.9643 39.5461 72.9601 8.78251 72.9601C-21.9811 72.9601 -46.9219 47.9643 -46.9219 17.128C-46.9219 -13.7083 -21.9811 -38.7041 8.78251 -38.7041C39.5461 -38.7041 64.4869 -13.7083 64.4869 17.128Z" stroke="#232642"/>
<path d="M47.6236 17.128C47.6236 38.6525 30.2315 56.0988 8.78056 56.0988C-12.6703 56.0988 -30.0625 38.6525 -30.0625 17.128C-30.0625 -4.39648 -12.6703 -21.8428 8.78056 -21.8428C30.2315 -21.8428 47.6236 -4.39648 47.6236 17.128Z" stroke="#232642"/>
<circle cx="8.78019" cy="16.9999" r="22.2372" stroke="#232642"/>
<circle cx="8.78387" cy="16.9997" r="12.0182" stroke="#232642"/>
</svg>
