<svg width="183" height="162" viewBox="0 0 183 162" fill="none" xmlns="http://www.w3.org/2000/svg">
<circle cx="178" cy="178" r="177.5" stroke="#232642"/>
<path d="M318.689 178C318.689 260.006 252.307 326.483 170.423 326.483C88.5381 326.483 22.1562 260.006 22.1562 178C22.1562 95.9945 88.5381 29.5171 170.423 29.5171C252.307 29.5171 318.689 95.9945 318.689 178Z" stroke="#232642"/>
<path d="M287.504 178C287.504 245.174 232.952 299.631 165.657 299.631C98.3609 299.631 43.8086 245.174 43.8086 178C43.8086 110.826 98.3609 56.3687 165.657 56.3687C232.952 56.3687 287.504 110.826 287.504 178Z" stroke="#232642"/>
<path d="M255.454 178.217C255.454 230.683 213.019 273.213 160.674 273.213C108.33 273.213 65.8945 230.683 65.8945 178.217C65.8945 125.75 108.33 83.2202 160.674 83.2202C213.019 83.2202 255.454 125.75 255.454 178.217Z" stroke="#232642"/>
<path d="M226.872 178.217C226.872 214.897 197.234 244.629 160.676 244.629C124.119 244.629 94.4805 214.897 94.4805 178.217C94.4805 141.537 124.119 111.804 160.676 111.804C197.234 111.804 226.872 141.537 226.872 178.217Z" stroke="#232642"/>
<circle cx="160.678" cy="178" r="38.045" stroke="#232642"/>
<circle cx="160.675" cy="178" r="20.7214" stroke="#232642"/>
</svg>
