<svg width="375" height="801" viewBox="0 0 375 801" fill="none" xmlns="http://www.w3.org/2000/svg">
<mask id="path-1-inside-1_170_590" fill="white">
<path d="M187.222 801L187.222 762.857L455 762.857L455 801L187.222 801Z"/>
<path d="M187.222 762.857L187.222 724.714L455 724.714L455 762.857L187.222 762.857Z"/>
<path d="M187.222 724.714L187.222 686.571L455 686.571L455 724.714L187.222 724.714Z"/>
<path d="M187.222 686.571L187.222 648.429L455 648.429L455 686.571L187.222 686.571Z"/>
<path d="M187.222 648.429L187.222 610.286L455 610.286L455 648.429L187.222 648.429Z"/>
<path d="M187.222 610.286L187.222 572.143L455 572.143L455 610.286L187.222 610.286Z"/>
<path d="M187.222 572.143L187.222 534L455 534L455 572.143L187.222 572.143Z"/>
<path d="M187.222 534L187.222 495.857L455 495.857L455 534L187.222 534Z"/>
<path d="M225.803 4.76681e-05L264.003 4.59983e-05L264.003 801L225.803 801L225.803 4.76681e-05Z"/>
<path d="M187.222 495.857L187.222 457.714L455 457.714L455 495.857L187.222 495.857Z"/>
<path d="M264.003 4.59983e-05L302.202 4.43286e-05L302.202 801L264.003 801L264.003 4.59983e-05Z"/>
<path d="M187.222 457.714L187.778 419.571L455 419.571L455 457.714L187.222 457.714Z"/>
<path d="M302.202 4.43286e-05L340.402 4.26588e-05L340.402 801L302.202 801L302.202 4.43286e-05Z"/>
<path d="M187.778 419.571L187.778 381.429L455 381.429L455 419.571L187.778 419.571Z"/>
<path d="M340.402 4.26588e-05L378.601 4.09891e-05L378.601 801L340.402 801L340.402 4.26588e-05Z"/>
<path d="M187.778 381.429L187.222 343.286L455 343.286L455 381.429L187.778 381.429Z"/>
<path d="M378.601 4.09891e-05L416.801 3.93193e-05L416.801 801L378.601 801L378.601 4.09891e-05Z"/>
<path d="M187.222 343.286L187.222 305.143L455 305.143L455 343.286L187.222 343.286Z"/>
<path d="M416.801 3.93193e-05L455 3.76496e-05L455 801L416.801 801L416.801 3.93193e-05Z"/>
<path d="M187.222 305.143L187.222 267L455 267L455 305.143L187.222 305.143Z"/>
<path d="M187.222 267L187.222 228.857L455 228.857L455 267L187.222 267Z"/>
<path d="M187.222 228.857L187.222 190.714L455 190.714L455 228.857L187.222 228.857Z"/>
<path d="M187.222 190.714L187.222 152.571L455 152.571L455 190.714L187.222 190.714Z"/>
<path d="M187.222 152.571L187.222 114.429L455 114.429L455 152.571L187.222 152.571Z"/>
<path d="M187.222 114.429L187.222 76.2857L455 76.2857L455 114.429L187.222 114.429Z"/>
<path d="M187.222 76.2857L187.222 38.1429L455 38.1429L455 76.2857L187.222 76.2857Z"/>
<path d="M187.222 38.1429L187.222 4.93545e-05L455 3.76496e-05L455 38.1429L187.222 38.1429Z"/>
<path d="M-80 801L-80 762.857L187.778 762.857L187.778 801L-80 801Z"/>
<path d="M-80 762.857L-80 724.714L187.778 724.714L187.778 762.857L-80 762.857Z"/>
<path d="M-80 724.714L-80 686.571L187.778 686.571L187.778 724.714L-80 724.714Z"/>
<path d="M-80 686.571L-80 648.429L187.778 648.429L187.778 686.571L-80 686.571Z"/>
<path d="M-80 648.429L-80 610.286L187.778 610.286L187.778 648.429L-80 648.429Z"/>
<path d="M-80 610.286L-80 572.143L187.778 572.143L187.778 610.286L-80 610.286Z"/>
<path d="M-80 572.143L-80 534L187.778 534L187.778 572.143L-80 572.143Z"/>
<path d="M-79.618 6.10185e-05L-41.4186 5.93487e-05L-41.4185 801L-79.618 801L-79.618 6.10185e-05Z"/>
<path d="M-80 534L-80 495.857L187.778 495.857L187.778 534L-80 534Z"/>
<path d="M-41.4186 5.93487e-05L-3.21907 5.7679e-05L-3.21906 801L-41.4185 801L-41.4186 5.93487e-05Z"/>
<path d="M-80 495.857L-80 457.714L187.778 457.714L187.778 495.857L-80 495.857Z"/>
<path d="M-3.21907 5.7679e-05L34.9804 5.60092e-05L34.9804 801L-3.21906 801L-3.21907 5.7679e-05Z"/>
<path d="M-80 457.714L-80 419.571L187.778 419.571L187.778 457.714L-80 457.714Z"/>
<path d="M34.9804 5.60092e-05L73.1799 5.43394e-05L73.1799 801L34.9804 801L34.9804 5.60092e-05Z"/>
<path d="M-80 419.571L-80 381.429L187.778 381.429L187.778 419.571L-80 419.571Z"/>
<path d="M73.1799 5.43394e-05L111.379 5.26697e-05L111.379 801L73.1799 801L73.1799 5.43394e-05Z"/>
<path d="M-80 381.429L-80 343.286L187.778 343.286L187.778 381.429L-80 381.429Z"/>
<path d="M111.379 5.26697e-05L149.579 5.09999e-05L149.579 801L111.379 801L111.379 5.26697e-05Z"/>
<path d="M-80 343.286L-80 305.143L187.778 305.143L187.778 343.286L-80 343.286Z"/>
<path d="M149.579 5.09999e-05L187.778 4.93302e-05L187.778 801L149.579 801L149.579 5.09999e-05Z"/>
<path d="M-80 305.143L-80 267L187.778 267L187.778 305.143L-80 305.143Z"/>
<path d="M-80 267L-80 228.857L187.778 228.857L187.778 267L-80 267Z"/>
<path d="M-80 228.857L-80 190.714L187.778 190.714L187.778 228.857L-80 228.857Z"/>
<path d="M-80 190.714L-80 152.571L187.778 152.571L187.778 190.714L-80 190.714Z"/>
<path d="M-80 152.571L-80 114.429L187.778 114.429L187.778 152.571L-80 152.571Z"/>
<path d="M-80 114.429L-80 76.2857L187.778 76.2857L187.778 114.429L-80 114.429Z"/>
<path d="M-80 76.2857L-80 38.1429L187.778 38.1429L187.778 76.2857L-80 76.2857Z"/>
<path d="M-80 38.1429L-80 6.10352e-05L187.778 4.93302e-05L187.778 38.1429L-80 38.1429Z"/>
</mask>
<path d="M187.222 763.357L455 763.357L455 762.357L187.222 762.357L187.222 763.357ZM187.222 725.214L455 725.214L455 724.214L187.222 724.214L187.222 725.214ZM187.222 687.071L455 687.071L455 686.071L187.222 686.071L187.222 687.071ZM187.222 648.929L455 648.929L455 647.929L187.222 647.929L187.222 648.929ZM187.222 610.786L455 610.786L455 609.786L187.222 609.786L187.222 610.786ZM187.222 572.643L455 572.643L455 571.643L187.222 571.643L187.222 572.643ZM187.222 534.5L455 534.5L455 533.5L187.222 533.5L187.222 534.5ZM187.604 0.500049L225.803 0.500048L225.803 -0.499952L187.604 -0.499951L187.604 0.500049ZM225.803 800.5L187.604 800.5L187.604 801.5L225.803 801.5L225.803 800.5ZM187.222 496.357L455 496.357L455 495.357L187.222 495.357L187.222 496.357ZM263.503 4.60202e-05L263.503 801L264.503 801L264.503 4.59765e-05L263.503 4.60202e-05ZM187.222 458.214L455 458.214L455 457.214L187.222 457.214L187.222 458.214ZM301.702 4.43504e-05L301.702 801L302.702 801L302.702 4.43067e-05L301.702 4.43504e-05ZM187.778 420.071L455 420.071L455 419.071L187.778 419.071L187.778 420.071ZM339.902 4.26807e-05L339.902 801L340.902 801L340.902 4.2637e-05L339.902 4.26807e-05ZM188.278 419.571L188.278 381.429L187.278 381.429L187.278 419.571L188.278 419.571ZM187.778 381.929L455 381.929L455 380.929L187.778 380.929L187.778 381.929ZM378.101 4.10109e-05L378.101 801L379.101 801L379.101 4.09672e-05L378.101 4.10109e-05ZM187.222 343.786L455 343.786L455 342.786L187.222 342.786L187.222 343.786ZM416.301 3.93412e-05L416.301 801L417.301 801L417.301 3.92975e-05L416.301 3.93412e-05ZM187.222 305.643L455 305.643L455 304.643L187.222 304.643L187.222 305.643ZM187.222 267.5L455 267.5L455 266.5L187.222 266.5L187.222 267.5ZM187.222 229.357L455 229.357L455 228.357L187.222 228.357L187.222 229.357ZM187.222 191.214L455 191.214L455 190.214L187.222 190.214L187.222 191.214ZM187.222 153.071L455 153.071L455 152.071L187.222 152.071L187.222 153.071ZM187.222 114.929L455 114.929L455 113.929L187.222 113.929L187.222 114.929ZM187.222 76.7857L455 76.7857L455 75.7857L187.222 75.7857L187.222 76.7857ZM187.222 38.6429L455 38.6429L455 37.6429L187.222 37.6429L187.222 38.6429ZM-80 763.357L187.778 763.357L187.778 762.357L-80 762.357L-80 763.357ZM-80 725.214L187.778 725.214L187.778 724.214L-80 724.214L-80 725.214ZM-80 687.071L187.778 687.071L187.778 686.071L-80 686.071L-80 687.071ZM-80 648.929L187.778 648.929L187.778 647.929L-80 647.929L-80 648.929ZM-80 610.786L187.778 610.786L187.778 609.786L-80 609.786L-80 610.786ZM-80 572.643L187.778 572.643L187.778 571.643L-80 571.643L-80 572.643ZM-80 534.5L187.778 534.5L187.778 533.5L-80 533.5L-80 534.5ZM-41.9186 5.93706e-05L-41.9185 801L-40.9185 801L-40.9186 5.93269e-05L-41.9186 5.93706e-05ZM-80 496.357L187.778 496.357L187.778 495.357L-80 495.357L-80 496.357ZM-3.71907 5.77008e-05L-3.71906 801L-2.71906 801L-2.71907 5.76571e-05L-3.71907 5.77008e-05ZM-80 458.214L187.778 458.214L187.778 457.214L-80 457.214L-80 458.214ZM34.4804 5.60311e-05L34.4804 801L35.4804 801L35.4804 5.59873e-05L34.4804 5.60311e-05ZM-80 420.071L187.778 420.071L187.778 419.071L-80 419.071L-80 420.071ZM72.6799 5.43613e-05L72.6799 801L73.6799 801L73.6799 5.43176e-05L72.6799 5.43613e-05ZM-80 381.929L187.778 381.929L187.778 380.929L-80 380.929L-80 381.929ZM110.879 5.26916e-05L110.879 801L111.879 801L111.879 5.26478e-05L110.879 5.26916e-05ZM-80 343.786L187.778 343.786L187.778 342.786L-80 342.786L-80 343.786ZM149.079 5.10218e-05L149.079 801L150.079 801L150.079 5.09781e-05L149.079 5.10218e-05ZM-80 305.643L187.778 305.643L187.778 304.643L-80 304.643L-80 305.643ZM-80 267.5L187.778 267.5L187.778 266.5L-80 266.5L-80 267.5ZM-80 229.357L187.778 229.357L187.778 228.357L-80 228.357L-80 229.357ZM-80 191.214L187.778 191.214L187.778 190.214L-80 190.214L-80 191.214ZM-80 153.071L187.778 153.071L187.778 152.071L-80 152.071L-80 153.071ZM-80 114.929L187.778 114.929L187.778 113.929L-80 113.929L-80 114.929ZM-80 76.7857L187.778 76.7857L187.778 75.7857L-80 75.7857L-80 76.7857ZM-80 38.6429L187.778 38.6429L187.778 37.6429L-80 37.6429L-80 38.6429ZM187.222 801L186.222 801L186.222 802L187.222 802L187.222 801ZM455 801L455 802L456 802L456 801L455 801ZM225.803 4.76681e-05L225.803 -0.999952L224.803 -0.999952L224.803 4.77118e-05L225.803 4.76681e-05ZM225.803 801L224.803 801L224.803 802L225.803 802L225.803 801ZM187.222 457.714L186.222 457.7L186.222 457.707L186.222 457.714L187.222 457.714ZM187.778 419.571L188.778 419.571L186.778 419.557L187.778 419.571ZM187.778 381.429L186.778 381.443L188.778 381.429L187.778 381.429ZM187.222 343.286L186.222 343.286L186.222 343.293L186.222 343.3L187.222 343.286ZM416.801 801L416.801 802L416.801 801ZM455 3.76496e-05L456 3.76058e-05L456 -0.999962L455 -0.999962L455 3.76496e-05ZM455 38.1429L454 38.1429L455 38.1429ZM187.222 4.93545e-05L187.222 -0.999951L186.222 -0.999951L186.222 4.93982e-05L187.222 4.93545e-05ZM-80 801L-81 801L-81 802L-80 802L-80 801ZM187.778 801L187.778 802L188.778 802L188.778 801L187.778 801ZM-79.618 6.10185e-05L-79.618 -0.999939L-80.618 -0.999939L-80.618 6.10622e-05L-79.618 6.10185e-05ZM-79.618 801L-80.618 801L-80.618 802L-79.618 802L-79.618 801ZM149.579 801L149.579 802L149.579 801ZM187.778 4.93302e-05L188.778 4.92865e-05L188.778 -0.999951L187.778 -0.999951L187.778 4.93302e-05ZM187.778 38.1429L186.778 38.1429L187.778 38.1429ZM-80 6.10352e-05L-80 -0.999939L-81 -0.999939L-81 6.10789e-05L-80 6.10352e-05ZM188.222 801L188.222 762.857L186.222 762.857L186.222 801L188.222 801ZM454 762.857L454 801L456 801L456 762.857L454 762.857ZM455 800L187.222 800L187.222 802L455 802L455 800ZM188.222 762.857L188.222 724.714L186.222 724.714L186.222 762.857L188.222 762.857ZM454 724.714L454 762.857L456 762.857L456 724.714L454 724.714ZM188.222 724.714L188.222 686.571L186.222 686.571L186.222 724.714L188.222 724.714ZM454 686.571L454 724.714L456 724.714L456 686.571L454 686.571ZM188.222 686.571L188.222 648.429L186.222 648.429L186.222 686.571L188.222 686.571ZM454 648.429L454 686.571L456 686.571L456 648.429L454 648.429ZM188.222 648.429L188.222 610.286L186.222 610.286L186.222 648.429L188.222 648.429ZM454 610.286L454 648.429L456 648.429L456 610.286L454 610.286ZM188.222 610.286L188.222 572.143L186.222 572.143L186.222 610.286L188.222 610.286ZM454 572.143L454 610.286L456 610.286L456 572.143L454 572.143ZM188.222 572.143L188.222 534L186.222 534L186.222 572.143L188.222 572.143ZM454 534L454 572.143L456 572.143L456 534L454 534ZM224.803 4.77118e-05L224.803 801L226.803 801L226.803 4.76244e-05L224.803 4.77118e-05ZM188.222 534L188.222 495.857L186.222 495.857L186.222 534L188.222 534ZM454 495.857L454 534L456 534L456 495.857L454 495.857ZM225.803 1.00005L264.003 1.00005L264.003 -0.999954L225.803 -0.999952L225.803 1.00005ZM264.003 800L225.803 800L225.803 802L264.003 802L264.003 800ZM188.222 495.857L188.222 457.714L186.222 457.714L186.222 495.857L188.222 495.857ZM454 457.714L454 495.857L456 495.857L456 457.714L454 457.714ZM264.003 1.00005L302.202 1.00004L302.202 -0.999956L264.003 -0.999954L264.003 1.00005ZM302.202 800L264.003 800L264.003 802L302.202 802L302.202 800ZM188.222 457.729L188.778 419.586L186.778 419.557L186.222 457.7L188.222 457.729ZM454 419.571L454 457.714L456 457.714L456 419.571L454 419.571ZM302.202 1.00004L340.402 1.00004L340.402 -0.999957L302.202 -0.999956L302.202 1.00004ZM340.402 800L302.202 800L302.202 802L340.402 802L340.402 800ZM454 381.429L454 419.571L456 419.571L456 381.429L454 381.429ZM340.402 1.00004L378.601 1.00004L378.601 -0.999959L340.402 -0.999957L340.402 1.00004ZM378.601 800L340.402 800L340.402 802L378.601 802L378.601 800ZM188.778 381.414L188.222 343.271L186.222 343.3L186.778 381.443L188.778 381.414ZM454 343.286L454 381.429L456 381.429L456 343.286L454 343.286ZM378.601 1.00004L416.801 1.00004L416.801 -0.999961L378.601 -0.999959L378.601 1.00004ZM416.801 800L378.601 800L378.601 802L416.801 802L416.801 800ZM188.222 343.286L188.222 305.143L186.222 305.143L186.222 343.286L188.222 343.286ZM454 305.143L454 343.286L456 343.286L456 305.143L454 305.143ZM416.801 1.00004L455 1.00004L455 -0.999962L416.801 -0.999961L416.801 1.00004ZM454 3.76933e-05L454 801L456 801L456 3.76058e-05L454 3.76933e-05ZM455 800L416.801 800L416.801 802L455 802L455 800ZM188.222 305.143L188.222 267L186.222 267L186.222 305.143L188.222 305.143ZM454 267L454 305.143L456 305.143L456 267L454 267ZM188.222 267L188.222 228.857L186.222 228.857L186.222 267L188.222 267ZM454 228.857L454 267L456 267L456 228.857L454 228.857ZM188.222 228.857L188.222 190.714L186.222 190.714L186.222 228.857L188.222 228.857ZM454 190.714L454 228.857L456 228.857L456 190.714L454 190.714ZM188.222 190.714L188.222 152.571L186.222 152.571L186.222 190.714L188.222 190.714ZM454 152.571L454 190.714L456 190.714L456 152.571L454 152.571ZM188.222 152.571L188.222 114.429L186.222 114.429L186.222 152.571L188.222 152.571ZM454 114.429L454 152.571L456 152.571L456 114.429L454 114.429ZM188.222 114.429L188.222 76.2857L186.222 76.2857L186.222 114.429L188.222 114.429ZM454 76.2857L454 114.429L456 114.429L456 76.2857L454 76.2857ZM188.222 76.2857L188.222 38.1429L186.222 38.1429L186.222 76.2857L188.222 76.2857ZM454 38.1429L454 76.2857L456 76.2857L456 38.1429L454 38.1429ZM188.222 38.1429L188.222 4.93108e-05L186.222 4.93982e-05L186.222 38.1429L188.222 38.1429ZM187.222 1.00005L455 1.00004L455 -0.999962L187.222 -0.999951L187.222 1.00005ZM454 3.76933e-05L454 38.1429L456 38.1429L456 3.76058e-05L454 3.76933e-05ZM-79 801L-79 762.857L-81 762.857L-81 801L-79 801ZM186.778 762.857L186.778 801L188.778 801L188.778 762.857L186.778 762.857ZM187.778 800L-80 800L-80 802L187.778 802L187.778 800ZM-79 762.857L-79 724.714L-81 724.714L-81 762.857L-79 762.857ZM186.778 724.714L186.778 762.857L188.778 762.857L188.778 724.714L186.778 724.714ZM-79 724.714L-79 686.571L-81 686.571L-81 724.714L-79 724.714ZM186.778 686.571L186.778 724.714L188.778 724.714L188.778 686.571L186.778 686.571ZM-79 686.571L-79 648.429L-81 648.429L-81 686.571L-79 686.571ZM186.778 648.429L186.778 686.571L188.778 686.571L188.778 648.429L186.778 648.429ZM-79 648.429L-79 610.286L-81 610.286L-81 648.429L-79 648.429ZM186.778 610.286L186.778 648.429L188.778 648.429L188.778 610.286L186.778 610.286ZM-79 610.286L-79 572.143L-81 572.143L-81 610.286L-79 610.286ZM186.778 572.143L186.778 610.286L188.778 610.286L188.778 572.143L186.778 572.143ZM-80.618 6.10622e-05L-80.618 801L-78.618 801L-78.618 6.09747e-05L-80.618 6.10622e-05ZM-79 572.143L-79 534L-81 534L-81 572.143L-79 572.143ZM186.778 534L186.778 572.143L188.778 572.143L188.778 534L186.778 534ZM-79.618 1.00006L-41.4186 1.00006L-41.4186 -0.999941L-79.618 -0.999939L-79.618 1.00006ZM-41.4185 800L-79.618 800L-79.618 802L-41.4185 802L-41.4185 800ZM-79 534L-79 495.857L-81 495.857L-81 534L-79 534ZM186.778 495.857L186.778 534L188.778 534L188.778 495.857L186.778 495.857ZM-41.4186 1.00006L-3.21907 1.00006L-3.21907 -0.999942L-41.4186 -0.999941L-41.4186 1.00006ZM-3.21906 800L-41.4185 800L-41.4185 802L-3.21906 802L-3.21906 800ZM-79 495.857L-79 457.714L-81 457.714L-81 495.857L-79 495.857ZM186.778 457.714L186.778 495.857L188.778 495.857L188.778 457.714L186.778 457.714ZM-3.21907 1.00006L34.9804 1.00006L34.9804 -0.999944L-3.21907 -0.999942L-3.21907 1.00006ZM34.9804 800L-3.21906 800L-3.21906 802L34.9804 802L34.9804 800ZM-79 457.714L-79 419.571L-81 419.571L-81 457.714L-79 457.714ZM186.778 419.571L186.778 457.714L188.778 457.714L188.778 419.571L186.778 419.571ZM34.9804 1.00006L73.1799 1.00005L73.1799 -0.999946L34.9804 -0.999944L34.9804 1.00006ZM73.1799 800L34.9804 800L34.9804 802L73.1799 802L73.1799 800ZM-79 419.571L-79 381.429L-81 381.429L-81 419.571L-79 419.571ZM73.1799 1.00005L111.379 1.00005L111.379 -0.999947L73.1799 -0.999946L73.1799 1.00005ZM111.379 800L73.1799 800L73.1799 802L111.379 802L111.379 800ZM-79 381.429L-79 343.286L-81 343.286L-81 381.429L-79 381.429ZM186.778 343.286L186.778 381.429L188.778 381.429L188.778 343.286L186.778 343.286ZM111.379 1.00005L149.579 1.00005L149.579 -0.999949L111.379 -0.999947L111.379 1.00005ZM149.579 800L111.379 800L111.379 802L149.579 802L149.579 800ZM-79 343.286L-79 305.143L-81 305.143L-81 343.286L-79 343.286ZM186.778 305.143L186.778 343.286L188.778 343.286L188.778 305.143L186.778 305.143ZM149.579 1.00005L187.778 1.00005L187.778 -0.999951L149.579 -0.999949L149.579 1.00005ZM186.778 4.93739e-05L186.778 801L188.778 801L188.778 4.92865e-05L186.778 4.93739e-05ZM187.778 800L149.579 800L149.579 802L187.778 802L187.778 800ZM-79 305.143L-79 267L-81 267L-81 305.143L-79 305.143ZM186.778 267L186.778 305.143L188.778 305.143L188.778 267L186.778 267ZM-79 267L-79 228.857L-81 228.857L-81 267L-79 267ZM186.778 228.857L186.778 267L188.778 267L188.778 228.857L186.778 228.857ZM-79 228.857L-79 190.714L-81 190.714L-81 228.857L-79 228.857ZM186.778 190.714L186.778 228.857L188.778 228.857L188.778 190.714L186.778 190.714ZM-79 190.714L-79 152.571L-81 152.571L-81 190.714L-79 190.714ZM186.778 152.571L186.778 190.714L188.778 190.714L188.778 152.571L186.778 152.571ZM-79 152.571L-79 114.429L-81 114.429L-81 152.571L-79 152.571ZM186.778 114.429L186.778 152.571L188.778 152.571L188.778 114.429L186.778 114.429ZM-79 114.429L-79 76.2857L-81 76.2857L-81 114.429L-79 114.429ZM186.778 76.2857L186.778 114.429L188.778 114.429L188.778 76.2857L186.778 76.2857ZM-79 76.2857L-79 38.1429L-81 38.1429L-81 76.2857L-79 76.2857ZM186.778 38.1429L186.778 76.2857L188.778 76.2857L188.778 38.1429L186.778 38.1429ZM-79 38.1429L-79 6.09914e-05L-81 6.10789e-05L-81 38.1429L-79 38.1429ZM-80 1.00006L187.778 1.00005L187.778 -0.999951L-80 -0.999939L-80 1.00006ZM186.778 4.93739e-05L186.778 38.1429L188.778 38.1429L188.778 4.92865e-05L186.778 4.93739e-05Z" fill="url(#paint0_radial_170_590)" mask="url(#path-1-inside-1_170_590)"/>
<defs>
<radialGradient id="paint0_radial_170_590" cx="0" cy="0" r="1" gradientUnits="userSpaceOnUse" gradientTransform="translate(151.592 414.684) rotate(1.05551) scale(196.274 454.633)">
<stop stop-color="#1F2238"/>
<stop offset="1" stop-color="#1F2238" stop-opacity="0"/>
</radialGradient>
</defs>
</svg>
