<svg width="325" height="530" viewBox="0 0 325 530" fill="none" xmlns="http://www.w3.org/2000/svg">
<g filter="url(#filter0_b_170_918)">
<rect x="10" y="165" width="290" height="365" rx="12" fill="#323751" fill-opacity="0.3"/>
<rect x="11" y="166" width="288" height="363" rx="11" stroke="url(#paint0_linear_170_918)" stroke-width="2"/>
</g>
<g filter="url(#filter1_d_170_918)">
<circle cx="155" cy="165" r="50" fill="#1F1C3F" fill-opacity="0.7"/>
<circle cx="155" cy="165" r="47.5" stroke="url(#paint1_linear_170_918)" stroke-width="5"/>
</g>
<path d="M157.544 162.696C159.626 163.312 161.313 164.397 162.604 165.952C163.924 167.477 164.584 169.325 164.584 171.496C164.584 174.664 163.513 177.143 161.372 178.932C159.26 180.721 156.664 181.616 153.584 181.616C151.178 181.616 149.022 181.073 147.116 179.988C145.238 178.873 143.874 177.245 143.024 175.104L148.216 172.112C148.978 174.488 150.768 175.676 153.584 175.676C155.138 175.676 156.341 175.309 157.192 174.576C158.072 173.813 158.512 172.787 158.512 171.496C158.512 170.235 158.072 169.223 157.192 168.46C156.341 167.697 155.138 167.316 153.584 167.316H152.264L149.932 163.796L156.004 155.876H143.948V150.2H163.308V155.216L157.544 162.696Z" fill="white"/>
<path d="M157.544 162.696C159.626 163.312 161.313 164.397 162.604 165.952C163.924 167.477 164.584 169.325 164.584 171.496C164.584 174.664 163.513 177.143 161.372 178.932C159.26 180.721 156.664 181.616 153.584 181.616C151.178 181.616 149.022 181.073 147.116 179.988C145.238 178.873 143.874 177.245 143.024 175.104L148.216 172.112C148.978 174.488 150.768 175.676 153.584 175.676C155.138 175.676 156.341 175.309 157.192 174.576C158.072 173.813 158.512 172.787 158.512 171.496C158.512 170.235 158.072 169.223 157.192 168.46C156.341 167.697 155.138 167.316 153.584 167.316H152.264L149.932 163.796L156.004 155.876H143.948V150.2H163.308V155.216L157.544 162.696Z" fill="url(#paint2_linear_170_918)"/>
<path d="M80.2891 297.4V310H77.8231V301.828L74.2771 307.678H73.9891L70.4431 301.846V310H67.9591V297.4H70.5151L74.1331 303.358L77.7331 297.4H80.2891ZM91.1208 297.4V299.776H87.7188V310H85.2348V299.776H81.8508V297.4H91.1208ZM95.1415 307.624H99.9475V310H92.6575V297.4H95.1415V307.624ZM106.513 297.4C108.241 297.4 109.681 298.006 110.833 299.218C111.997 300.43 112.579 301.924 112.579 303.7C112.579 305.476 111.997 306.97 110.833 308.182C109.681 309.394 108.241 310 106.513 310H101.509V297.4H106.513ZM106.513 307.624C107.605 307.624 108.493 307.264 109.177 306.544C109.861 305.812 110.203 304.864 110.203 303.7C110.203 302.536 109.861 301.594 109.177 300.874C108.493 300.142 107.605 299.776 106.513 299.776H103.993V307.624H106.513ZM127.475 297.4V299.776H124.073V310H121.589V299.776H118.205V297.4H127.475ZM134.937 308.884C134.013 309.796 132.885 310.252 131.553 310.252C130.221 310.252 129.093 309.796 128.169 308.884C127.257 307.96 126.801 306.832 126.801 305.5C126.801 304.168 127.257 303.046 128.169 302.134C129.093 301.21 130.221 300.748 131.553 300.748C132.885 300.748 134.013 301.21 134.937 302.134C135.861 303.046 136.323 304.168 136.323 305.5C136.323 306.832 135.861 307.96 134.937 308.884ZM129.807 307.282C130.275 307.75 130.857 307.984 131.553 307.984C132.249 307.984 132.831 307.75 133.299 307.282C133.767 306.814 134.001 306.22 134.001 305.5C134.001 304.78 133.767 304.186 133.299 303.718C132.831 303.25 132.249 303.016 131.553 303.016C130.857 303.016 130.275 303.25 129.807 303.718C129.351 304.186 129.123 304.78 129.123 305.5C129.123 306.22 129.351 306.814 129.807 307.282ZM146.404 310H143.704L140.428 305.914V310H138.106V297.4H140.428V304.96L143.524 301H146.296L142.678 305.446L146.404 310ZM149.025 306.454C149.337 307.582 150.183 308.146 151.563 308.146C152.451 308.146 153.123 307.846 153.579 307.246L155.451 308.326C154.563 309.61 153.255 310.252 151.527 310.252C150.039 310.252 148.845 309.802 147.945 308.902C147.045 308.002 146.595 306.868 146.595 305.5C146.595 304.144 147.039 303.016 147.927 302.116C148.815 301.204 149.955 300.748 151.347 300.748C152.667 300.748 153.753 301.204 154.605 302.116C155.469 303.028 155.901 304.156 155.901 305.5C155.901 305.8 155.871 306.118 155.811 306.454H149.025ZM148.989 304.654H153.579C153.447 304.042 153.171 303.586 152.751 303.286C152.343 302.986 151.875 302.836 151.347 302.836C150.723 302.836 150.207 302.998 149.799 303.322C149.391 303.634 149.121 304.078 148.989 304.654ZM162.676 300.748C163.66 300.748 164.47 301.078 165.106 301.738C165.754 302.398 166.078 303.31 166.078 304.474V310H163.756V304.762C163.756 304.162 163.594 303.706 163.27 303.394C162.946 303.07 162.514 302.908 161.974 302.908C161.374 302.908 160.894 303.094 160.534 303.466C160.174 303.838 159.994 304.396 159.994 305.14V310H157.672V301H159.994V302.008C160.558 301.168 161.452 300.748 162.676 300.748ZM180.582 303.466C181.686 304.102 182.238 305.062 182.238 306.346C182.238 307.414 181.86 308.29 181.104 308.974C180.348 309.658 179.418 310 178.314 310H172.968V297.4H177.936C179.016 297.4 179.922 297.736 180.654 298.408C181.398 299.068 181.77 299.914 181.77 300.946C181.77 301.99 181.374 302.83 180.582 303.466ZM177.936 299.722H175.452V302.494H177.936C178.32 302.494 178.638 302.362 178.89 302.098C179.154 301.834 179.286 301.504 179.286 301.108C179.286 300.712 179.16 300.382 178.908 300.118C178.656 299.854 178.332 299.722 177.936 299.722ZM178.314 307.678C178.734 307.678 179.082 307.54 179.358 307.264C179.634 306.976 179.772 306.616 179.772 306.184C179.772 305.764 179.634 305.416 179.358 305.14C179.082 304.852 178.734 304.708 178.314 304.708H175.452V307.678H178.314ZM190.042 301H192.364V310H190.042V308.992C189.478 309.832 188.584 310.252 187.36 310.252C186.376 310.252 185.56 309.922 184.912 309.262C184.276 308.602 183.958 307.69 183.958 306.526V301H186.28V306.238C186.28 306.838 186.442 307.3 186.766 307.624C187.09 307.936 187.522 308.092 188.062 308.092C188.662 308.092 189.142 307.906 189.502 307.534C189.862 307.162 190.042 306.604 190.042 305.86V301ZM196.963 302.548C197.179 301.972 197.533 301.54 198.025 301.252C198.529 300.964 199.087 300.82 199.699 300.82V303.412C198.991 303.328 198.355 303.472 197.791 303.844C197.239 304.216 196.963 304.834 196.963 305.698V310H194.641V301H196.963V302.548ZM206.211 300.748C207.195 300.748 208.005 301.078 208.641 301.738C209.289 302.398 209.613 303.31 209.613 304.474V310H207.291V304.762C207.291 304.162 207.129 303.706 206.805 303.394C206.481 303.07 206.049 302.908 205.509 302.908C204.909 302.908 204.429 303.094 204.069 303.466C203.709 303.838 203.529 304.396 203.529 305.14V310H201.207V301H203.529V302.008C204.093 301.168 204.987 300.748 206.211 300.748ZM212.898 299.92C212.514 299.92 212.178 299.782 211.89 299.506C211.614 299.218 211.476 298.882 211.476 298.498C211.476 298.114 211.614 297.778 211.89 297.49C212.178 297.202 212.514 297.058 212.898 297.058C213.294 297.058 213.63 297.202 213.906 297.49C214.194 297.778 214.338 298.114 214.338 298.498C214.338 298.882 214.194 299.218 213.906 299.506C213.63 299.782 213.294 299.92 212.898 299.92ZM211.746 310V301H214.068V310H211.746ZM221.347 300.748C222.331 300.748 223.141 301.078 223.777 301.738C224.425 302.398 224.749 303.31 224.749 304.474V310H222.427V304.762C222.427 304.162 222.265 303.706 221.941 303.394C221.617 303.07 221.185 302.908 220.645 302.908C220.045 302.908 219.565 303.094 219.205 303.466C218.845 303.838 218.665 304.396 218.665 305.14V310H216.343V301H218.665V302.008C219.229 301.168 220.123 300.748 221.347 300.748ZM233.776 301H236.044V309.568C236.044 310.96 235.582 312.022 234.658 312.754C233.746 313.486 232.642 313.852 231.346 313.852C230.374 313.852 229.516 313.666 228.772 313.294C228.04 312.922 227.476 312.376 227.08 311.656L229.06 310.522C229.516 311.362 230.302 311.782 231.418 311.782C232.15 311.782 232.726 311.59 233.146 311.206C233.566 310.822 233.776 310.276 233.776 309.568V308.596C233.092 309.508 232.132 309.964 230.896 309.964C229.624 309.964 228.556 309.52 227.692 308.632C226.84 307.732 226.414 306.64 226.414 305.356C226.414 304.084 226.846 302.998 227.71 302.098C228.574 301.198 229.636 300.748 230.896 300.748C232.132 300.748 233.092 301.204 233.776 302.116V301ZM229.438 307.138C229.918 307.594 230.524 307.822 231.256 307.822C231.988 307.822 232.588 307.594 233.056 307.138C233.536 306.67 233.776 306.076 233.776 305.356C233.776 304.648 233.536 304.066 233.056 303.61C232.588 303.142 231.988 302.908 231.256 302.908C230.524 302.908 229.918 303.142 229.438 303.61C228.97 304.066 228.736 304.648 228.736 305.356C228.736 306.076 228.97 306.67 229.438 307.138Z" fill="white"/>
<g filter="url(#filter2_d_170_918)">
<circle cx="40.7891" cy="303" r="5" fill="url(#paint3_linear_170_918)"/>
<circle cx="40.7891" cy="303" r="4.25" stroke="white" stroke-width="1.5"/>
</g>
<g filter="url(#filter3_d_170_918)">
<circle cx="40.7891" cy="341" r="5" fill="url(#paint4_linear_170_918)"/>
<circle cx="40.7891" cy="341" r="4.25" stroke="white" stroke-width="1.5"/>
</g>
<path d="M72.2611 347.252C71.0131 347.252 69.9631 346.976 69.1111 346.424C68.2591 345.86 67.6591 345.098 67.3111 344.138L69.4351 342.896C69.9271 344.18 70.8931 344.822 72.3331 344.822C73.0291 344.822 73.5391 344.696 73.8631 344.444C74.1871 344.192 74.3491 343.874 74.3491 343.49C74.3491 343.046 74.1511 342.704 73.7551 342.464C73.3591 342.212 72.6511 341.942 71.6311 341.654C71.0671 341.486 70.5871 341.318 70.1911 341.15C69.8071 340.982 69.4171 340.76 69.0211 340.484C68.6371 340.196 68.3431 339.836 68.1391 339.404C67.9351 338.972 67.8331 338.468 67.8331 337.892C67.8331 336.752 68.2351 335.846 69.0391 335.174C69.8551 334.49 70.8331 334.148 71.9731 334.148C72.9931 334.148 73.8871 334.4 74.6551 334.904C75.4351 335.396 76.0411 336.086 76.4731 336.974L74.3851 338.18C73.8811 337.1 73.0771 336.56 71.9731 336.56C71.4571 336.56 71.0491 336.68 70.7491 336.92C70.4611 337.148 70.3171 337.448 70.3171 337.82C70.3171 338.216 70.4791 338.54 70.8031 338.792C71.1391 339.032 71.7751 339.296 72.7111 339.584C73.0951 339.704 73.3831 339.8 73.5751 339.872C73.7791 339.932 74.0491 340.034 74.3851 340.178C74.7331 340.31 74.9971 340.436 75.1771 340.556C75.3691 340.676 75.5851 340.838 75.8251 341.042C76.0651 341.246 76.2451 341.456 76.3651 341.672C76.4971 341.888 76.6051 342.152 76.6891 342.464C76.7851 342.764 76.8331 343.094 76.8331 343.454C76.8331 344.618 76.4071 345.542 75.5551 346.226C74.7151 346.91 73.6171 347.252 72.2611 347.252ZM83.3795 340.232H81.3455V343.976C81.3455 344.288 81.4235 344.516 81.5795 344.66C81.7355 344.804 81.9635 344.888 82.2635 344.912C82.5635 344.924 82.9355 344.918 83.3795 344.894V347C81.7835 347.18 80.6555 347.03 79.9955 346.55C79.3475 346.07 79.0235 345.212 79.0235 343.976V340.232H77.4575V338H79.0235V336.182L81.3455 335.48V338H83.3795V340.232ZM91.7254 338H94.0474V347H91.7254V345.938C91.0294 346.814 90.0514 347.252 88.7914 347.252C87.5914 347.252 86.5594 346.796 85.6954 345.884C84.8434 344.96 84.4174 343.832 84.4174 342.5C84.4174 341.168 84.8434 340.046 85.6954 339.134C86.5594 338.21 87.5914 337.748 88.7914 337.748C90.0514 337.748 91.0294 338.186 91.7254 339.062V338ZM87.4414 344.336C87.9094 344.804 88.5034 345.038 89.2234 345.038C89.9434 345.038 90.5374 344.804 91.0054 344.336C91.4854 343.856 91.7254 343.244 91.7254 342.5C91.7254 341.756 91.4854 341.15 91.0054 340.682C90.5374 340.202 89.9434 339.962 89.2234 339.962C88.5034 339.962 87.9094 340.202 87.4414 340.682C86.9734 341.15 86.7394 341.756 86.7394 342.5C86.7394 343.244 86.9734 343.856 87.4414 344.336ZM104.601 347H101.901L98.625 342.914V347H96.303V334.4H98.625V341.96L101.721 338H104.493L100.875 342.446L104.601 347ZM107.062 336.92C106.678 336.92 106.342 336.782 106.054 336.506C105.778 336.218 105.64 335.882 105.64 335.498C105.64 335.114 105.778 334.778 106.054 334.49C106.342 334.202 106.678 334.058 107.062 334.058C107.458 334.058 107.794 334.202 108.07 334.49C108.358 334.778 108.502 335.114 108.502 335.498C108.502 335.882 108.358 336.218 108.07 336.506C107.794 336.782 107.458 336.92 107.062 336.92ZM105.91 347V338H108.232V347H105.91ZM115.511 337.748C116.495 337.748 117.305 338.078 117.941 338.738C118.589 339.398 118.913 340.31 118.913 341.474V347H116.591V341.762C116.591 341.162 116.429 340.706 116.105 340.394C115.781 340.07 115.349 339.908 114.809 339.908C114.209 339.908 113.729 340.094 113.369 340.466C113.009 340.838 112.829 341.396 112.829 342.14V347H110.507V338H112.829V339.008C113.393 338.168 114.287 337.748 115.511 337.748ZM127.94 338H130.208V346.568C130.208 347.96 129.746 349.022 128.822 349.754C127.91 350.486 126.806 350.852 125.51 350.852C124.538 350.852 123.68 350.666 122.936 350.294C122.204 349.922 121.64 349.376 121.244 348.656L123.224 347.522C123.68 348.362 124.466 348.782 125.582 348.782C126.314 348.782 126.89 348.59 127.31 348.206C127.73 347.822 127.94 347.276 127.94 346.568V345.596C127.256 346.508 126.296 346.964 125.06 346.964C123.788 346.964 122.72 346.52 121.856 345.632C121.004 344.732 120.578 343.64 120.578 342.356C120.578 341.084 121.01 339.998 121.874 339.098C122.738 338.198 123.8 337.748 125.06 337.748C126.296 337.748 127.256 338.204 127.94 339.116V338ZM123.602 344.138C124.082 344.594 124.688 344.822 125.42 344.822C126.152 344.822 126.752 344.594 127.22 344.138C127.7 343.67 127.94 343.076 127.94 342.356C127.94 341.648 127.7 341.066 127.22 340.61C126.752 340.142 126.152 339.908 125.42 339.908C124.688 339.908 124.082 340.142 123.602 340.61C123.134 341.066 122.9 341.648 122.9 342.356C122.9 343.076 123.134 343.67 123.602 344.138ZM141.92 334.4C143.132 334.4 144.152 334.808 144.98 335.624C145.808 336.44 146.222 337.442 146.222 338.63C146.222 339.818 145.808 340.82 144.98 341.636C144.152 342.452 143.132 342.86 141.92 342.86H139.706V347H137.222V334.4H141.92ZM141.92 340.538C142.448 340.538 142.886 340.358 143.234 339.998C143.582 339.626 143.756 339.17 143.756 338.63C143.756 338.078 143.582 337.622 143.234 337.262C142.886 336.902 142.448 336.722 141.92 336.722H139.706V340.538H141.92ZM147.881 347V333.86H150.203V347H147.881ZM159.318 338H161.64V347H159.318V345.938C158.622 346.814 157.644 347.252 156.384 347.252C155.184 347.252 154.152 346.796 153.288 345.884C152.436 344.96 152.01 343.832 152.01 342.5C152.01 341.168 152.436 340.046 153.288 339.134C154.152 338.21 155.184 337.748 156.384 337.748C157.644 337.748 158.622 338.186 159.318 339.062V338ZM155.034 344.336C155.502 344.804 156.096 345.038 156.816 345.038C157.536 345.038 158.13 344.804 158.598 344.336C159.078 343.856 159.318 343.244 159.318 342.5C159.318 341.756 159.078 341.15 158.598 340.682C158.13 340.202 157.536 339.962 156.816 339.962C156.096 339.962 155.502 340.202 155.034 340.682C154.566 341.15 154.332 341.756 154.332 342.5C154.332 343.244 154.566 343.856 155.034 344.336ZM169.044 340.232H167.01V343.976C167.01 344.288 167.088 344.516 167.244 344.66C167.4 344.804 167.628 344.888 167.928 344.912C168.228 344.924 168.6 344.918 169.044 344.894V347C167.448 347.18 166.32 347.03 165.66 346.55C165.012 346.07 164.688 345.212 164.688 343.976V340.232H163.122V338H164.688V336.182L167.01 335.48V338H169.044V340.232ZM175.233 336.38C173.961 336.284 173.325 336.794 173.325 337.91V338H175.233V340.232H173.325V347H171.003V340.232H169.707V338H171.003V337.91C171.003 336.638 171.357 335.672 172.065 335.012C172.773 334.352 173.829 334.064 175.233 334.148V336.38ZM183.782 345.884C182.858 346.796 181.73 347.252 180.398 347.252C179.066 347.252 177.938 346.796 177.014 345.884C176.102 344.96 175.646 343.832 175.646 342.5C175.646 341.168 176.102 340.046 177.014 339.134C177.938 338.21 179.066 337.748 180.398 337.748C181.73 337.748 182.858 338.21 183.782 339.134C184.706 340.046 185.168 341.168 185.168 342.5C185.168 343.832 184.706 344.96 183.782 345.884ZM178.652 344.282C179.12 344.75 179.702 344.984 180.398 344.984C181.094 344.984 181.676 344.75 182.144 344.282C182.612 343.814 182.846 343.22 182.846 342.5C182.846 341.78 182.612 341.186 182.144 340.718C181.676 340.25 181.094 340.016 180.398 340.016C179.702 340.016 179.12 340.25 178.652 340.718C178.196 341.186 177.968 341.78 177.968 342.5C177.968 343.22 178.196 343.814 178.652 344.282ZM189.273 339.548C189.489 338.972 189.843 338.54 190.335 338.252C190.839 337.964 191.397 337.82 192.009 337.82V340.412C191.301 340.328 190.665 340.472 190.101 340.844C189.549 341.216 189.273 341.834 189.273 342.698V347H186.951V338H189.273V339.548ZM203.471 337.748C204.503 337.748 205.325 338.084 205.937 338.756C206.561 339.428 206.873 340.328 206.873 341.456V347H204.551V341.618C204.551 341.078 204.419 340.658 204.155 340.358C203.891 340.058 203.519 339.908 203.039 339.908C202.511 339.908 202.097 340.082 201.797 340.43C201.509 340.778 201.365 341.282 201.365 341.942V347H199.043V341.618C199.043 341.078 198.911 340.658 198.647 340.358C198.383 340.058 198.011 339.908 197.531 339.908C197.015 339.908 196.601 340.082 196.289 340.43C195.989 340.778 195.839 341.282 195.839 341.942V347H193.517V338H195.839V338.954C196.379 338.15 197.213 337.748 198.341 337.748C199.445 337.748 200.261 338.18 200.789 339.044C201.389 338.18 202.283 337.748 203.471 337.748Z" fill="white"/>
<g filter="url(#filter4_d_170_918)">
<circle cx="40.7891" cy="379" r="5" fill="url(#paint5_linear_170_918)"/>
<circle cx="40.7891" cy="379" r="4.25" stroke="white" stroke-width="1.5"/>
</g>
<path d="M75.2491 371.4H77.7331V384H75.8431L70.4431 376.296V384H67.9591V371.4H69.8491L75.2491 379.086V371.4ZM82.0744 380.454C82.3864 381.582 83.2324 382.146 84.6124 382.146C85.5004 382.146 86.1724 381.846 86.6284 381.246L88.5004 382.326C87.6124 383.61 86.3044 384.252 84.5764 384.252C83.0884 384.252 81.8944 383.802 80.9944 382.902C80.0944 382.002 79.6444 380.868 79.6444 379.5C79.6444 378.144 80.0884 377.016 80.9764 376.116C81.8644 375.204 83.0044 374.748 84.3964 374.748C85.7164 374.748 86.8024 375.204 87.6544 376.116C88.5184 377.028 88.9504 378.156 88.9504 379.5C88.9504 379.8 88.9204 380.118 88.8604 380.454H82.0744ZM82.0384 378.654H86.6284C86.4964 378.042 86.2204 377.586 85.8004 377.286C85.3924 376.986 84.9244 376.836 84.3964 376.836C83.7724 376.836 83.2564 376.998 82.8484 377.322C82.4404 377.634 82.1704 378.078 82.0384 378.654ZM100.504 375H102.97L100.108 384H97.8938L96.2378 378.546L94.5818 384H92.3678L89.5058 375H91.9718L93.5018 380.526L95.1398 375H97.3358L98.9738 380.544L100.504 375ZM113.431 384.252C112.183 384.252 111.133 383.976 110.281 383.424C109.429 382.86 108.829 382.098 108.481 381.138L110.605 379.896C111.097 381.18 112.063 381.822 113.503 381.822C114.199 381.822 114.709 381.696 115.033 381.444C115.357 381.192 115.519 380.874 115.519 380.49C115.519 380.046 115.321 379.704 114.925 379.464C114.529 379.212 113.821 378.942 112.801 378.654C112.237 378.486 111.757 378.318 111.361 378.15C110.977 377.982 110.587 377.76 110.191 377.484C109.807 377.196 109.513 376.836 109.309 376.404C109.105 375.972 109.003 375.468 109.003 374.892C109.003 373.752 109.405 372.846 110.209 372.174C111.025 371.49 112.003 371.148 113.143 371.148C114.163 371.148 115.057 371.4 115.825 371.904C116.605 372.396 117.211 373.086 117.643 373.974L115.555 375.18C115.051 374.1 114.247 373.56 113.143 373.56C112.627 373.56 112.219 373.68 111.919 373.92C111.631 374.148 111.487 374.448 111.487 374.82C111.487 375.216 111.649 375.54 111.973 375.792C112.309 376.032 112.945 376.296 113.881 376.584C114.265 376.704 114.553 376.8 114.745 376.872C114.949 376.932 115.219 377.034 115.555 377.178C115.903 377.31 116.167 377.436 116.347 377.556C116.539 377.676 116.755 377.838 116.995 378.042C117.235 378.246 117.415 378.456 117.535 378.672C117.667 378.888 117.775 379.152 117.859 379.464C117.955 379.764 118.003 380.094 118.003 380.454C118.003 381.618 117.577 382.542 116.725 383.226C115.885 383.91 114.787 384.252 113.431 384.252ZM124.55 377.232H122.516V380.976C122.516 381.288 122.594 381.516 122.75 381.66C122.906 381.804 123.134 381.888 123.434 381.912C123.734 381.924 124.106 381.918 124.55 381.894V384C122.954 384.18 121.826 384.03 121.166 383.55C120.518 383.07 120.194 382.212 120.194 380.976V377.232H118.628V375H120.194V373.182L122.516 372.48V375H124.55V377.232ZM132.896 375H135.218V384H132.896V382.938C132.2 383.814 131.222 384.252 129.962 384.252C128.762 384.252 127.73 383.796 126.866 382.884C126.014 381.96 125.588 380.832 125.588 379.5C125.588 378.168 126.014 377.046 126.866 376.134C127.73 375.21 128.762 374.748 129.962 374.748C131.222 374.748 132.2 375.186 132.896 376.062V375ZM128.612 381.336C129.08 381.804 129.674 382.038 130.394 382.038C131.114 382.038 131.708 381.804 132.176 381.336C132.656 380.856 132.896 380.244 132.896 379.5C132.896 378.756 132.656 378.15 132.176 377.682C131.708 377.202 131.114 376.962 130.394 376.962C129.674 376.962 129.08 377.202 128.612 377.682C128.144 378.15 127.91 378.756 127.91 379.5C127.91 380.244 128.144 380.856 128.612 381.336ZM145.771 384H143.071L139.795 379.914V384H137.473V371.4H139.795V378.96L142.891 375H145.663L142.045 379.446L145.771 384ZM148.232 373.92C147.848 373.92 147.512 373.782 147.224 373.506C146.948 373.218 146.81 372.882 146.81 372.498C146.81 372.114 146.948 371.778 147.224 371.49C147.512 371.202 147.848 371.058 148.232 371.058C148.628 371.058 148.964 371.202 149.24 371.49C149.528 371.778 149.672 372.114 149.672 372.498C149.672 372.882 149.528 373.218 149.24 373.506C148.964 373.782 148.628 373.92 148.232 373.92ZM147.08 384V375H149.402V384H147.08ZM156.682 374.748C157.666 374.748 158.476 375.078 159.112 375.738C159.76 376.398 160.084 377.31 160.084 378.474V384H157.762V378.762C157.762 378.162 157.6 377.706 157.276 377.394C156.952 377.07 156.52 376.908 155.98 376.908C155.38 376.908 154.9 377.094 154.54 377.466C154.18 377.838 154 378.396 154 379.14V384H151.678V375H154V376.008C154.564 375.168 155.458 374.748 156.682 374.748ZM169.11 375H171.378V383.568C171.378 384.96 170.916 386.022 169.992 386.754C169.08 387.486 167.976 387.852 166.68 387.852C165.708 387.852 164.85 387.666 164.106 387.294C163.374 386.922 162.81 386.376 162.414 385.656L164.394 384.522C164.85 385.362 165.636 385.782 166.752 385.782C167.484 385.782 168.06 385.59 168.48 385.206C168.9 384.822 169.11 384.276 169.11 383.568V382.596C168.426 383.508 167.466 383.964 166.23 383.964C164.958 383.964 163.89 383.52 163.026 382.632C162.174 381.732 161.748 380.64 161.748 379.356C161.748 378.084 162.18 376.998 163.044 376.098C163.908 375.198 164.97 374.748 166.23 374.748C167.466 374.748 168.426 375.204 169.11 376.116V375ZM164.772 381.138C165.252 381.594 165.858 381.822 166.59 381.822C167.322 381.822 167.922 381.594 168.39 381.138C168.87 380.67 169.11 380.076 169.11 379.356C169.11 378.648 168.87 378.066 168.39 377.61C167.922 377.142 167.322 376.908 166.59 376.908C165.858 376.908 165.252 377.142 164.772 377.61C164.304 378.066 164.07 378.648 164.07 379.356C164.07 380.076 164.304 380.67 164.772 381.138ZM186.726 371.4V373.776H183.324V384H180.84V373.776H177.456V371.4H186.726ZM189.307 373.92C188.923 373.92 188.587 373.782 188.299 373.506C188.023 373.218 187.885 372.882 187.885 372.498C187.885 372.114 188.023 371.778 188.299 371.49C188.587 371.202 188.923 371.058 189.307 371.058C189.703 371.058 190.039 371.202 190.315 371.49C190.603 371.778 190.747 372.114 190.747 372.498C190.747 372.882 190.603 373.218 190.315 373.506C190.039 373.782 189.703 373.92 189.307 373.92ZM188.155 384V375H190.477V384H188.155ZM194.714 380.454C195.026 381.582 195.872 382.146 197.252 382.146C198.14 382.146 198.812 381.846 199.268 381.246L201.14 382.326C200.252 383.61 198.944 384.252 197.216 384.252C195.728 384.252 194.534 383.802 193.634 382.902C192.734 382.002 192.284 380.868 192.284 379.5C192.284 378.144 192.728 377.016 193.616 376.116C194.504 375.204 195.644 374.748 197.036 374.748C198.356 374.748 199.442 375.204 200.294 376.116C201.158 377.028 201.59 378.156 201.59 379.5C201.59 379.8 201.56 380.118 201.5 380.454H194.714ZM194.678 378.654H199.268C199.136 378.042 198.86 377.586 198.44 377.286C198.032 376.986 197.564 376.836 197.036 376.836C196.412 376.836 195.896 376.998 195.488 377.322C195.08 377.634 194.81 378.078 194.678 378.654ZM205.683 376.548C205.899 375.972 206.253 375.54 206.745 375.252C207.249 374.964 207.807 374.82 208.419 374.82V377.412C207.711 377.328 207.075 377.472 206.511 377.844C205.959 378.216 205.683 378.834 205.683 379.698V384H203.361V375H205.683V376.548ZM211.788 377.556C211.788 377.796 211.944 377.994 212.256 378.15C212.58 378.294 212.97 378.426 213.426 378.546C213.882 378.654 214.338 378.798 214.794 378.978C215.25 379.146 215.634 379.434 215.946 379.842C216.27 380.25 216.432 380.76 216.432 381.372C216.432 382.296 216.084 383.01 215.388 383.514C214.704 384.006 213.846 384.252 212.814 384.252C210.966 384.252 209.706 383.538 209.034 382.11L211.05 380.976C211.314 381.756 211.902 382.146 212.814 382.146C213.642 382.146 214.056 381.888 214.056 381.372C214.056 381.132 213.894 380.94 213.57 380.796C213.258 380.64 212.874 380.502 212.418 380.382C211.962 380.262 211.506 380.112 211.05 379.932C210.594 379.752 210.204 379.47 209.88 379.086C209.568 378.69 209.412 378.198 209.412 377.61C209.412 376.722 209.736 376.026 210.384 375.522C211.044 375.006 211.86 374.748 212.832 374.748C213.564 374.748 214.23 374.916 214.83 375.252C215.43 375.576 215.904 376.044 216.252 376.656L214.272 377.736C213.984 377.124 213.504 376.818 212.832 376.818C212.532 376.818 212.28 376.884 212.076 377.016C211.884 377.148 211.788 377.328 211.788 377.556Z" fill="white"/>
<g filter="url(#filter5_d_170_918)">
<circle cx="40.7891" cy="416" r="5" fill="url(#paint6_linear_170_918)"/>
<circle cx="40.7891" cy="416" r="4.25" stroke="white" stroke-width="1.5"/>
</g>
<path d="M75.2491 408.4H77.7331V421H75.8431L70.4431 413.296V421H67.9591V408.4H69.8491L75.2491 416.086V408.4ZM87.7444 410.776H82.7044V413.764H87.6004V416.14H82.7044V421H80.2204V408.4H87.7444V410.776ZM98.0384 408.4V410.776H94.6364V421H92.1524V410.776H88.7684V408.4H98.0384ZM106.709 418.624H111.515V421H104.225V408.4H106.709V418.624ZM119.632 412H121.954V421H119.632V419.938C118.936 420.814 117.958 421.252 116.698 421.252C115.498 421.252 114.466 420.796 113.602 419.884C112.75 418.96 112.324 417.832 112.324 416.5C112.324 415.168 112.75 414.046 113.602 413.134C114.466 412.21 115.498 411.748 116.698 411.748C117.958 411.748 118.936 412.186 119.632 413.062V412ZM115.348 418.336C115.816 418.804 116.41 419.038 117.13 419.038C117.85 419.038 118.444 418.804 118.912 418.336C119.392 417.856 119.632 417.244 119.632 416.5C119.632 415.756 119.392 415.15 118.912 414.682C118.444 414.202 117.85 413.962 117.13 413.962C116.41 413.962 115.816 414.202 115.348 414.682C114.88 415.15 114.646 415.756 114.646 416.5C114.646 417.244 114.88 417.856 115.348 418.336ZM130.15 412H132.472V421H130.15V419.992C129.586 420.832 128.692 421.252 127.468 421.252C126.484 421.252 125.668 420.922 125.02 420.262C124.384 419.602 124.066 418.69 124.066 417.526V412H126.388V417.238C126.388 417.838 126.55 418.3 126.874 418.624C127.198 418.936 127.63 419.092 128.17 419.092C128.77 419.092 129.25 418.906 129.61 418.534C129.97 418.162 130.15 417.604 130.15 416.86V412ZM139.753 411.748C140.737 411.748 141.547 412.078 142.183 412.738C142.831 413.398 143.155 414.31 143.155 415.474V421H140.833V415.762C140.833 415.162 140.671 414.706 140.347 414.394C140.023 414.07 139.591 413.908 139.051 413.908C138.451 413.908 137.971 414.094 137.611 414.466C137.251 414.838 137.071 415.396 137.071 416.14V421H134.749V412H137.071V413.008C137.635 412.168 138.529 411.748 139.753 411.748ZM149.571 421.252C148.215 421.252 147.081 420.796 146.169 419.884C145.269 418.972 144.819 417.844 144.819 416.5C144.819 415.156 145.269 414.028 146.169 413.116C147.081 412.204 148.215 411.748 149.571 411.748C150.447 411.748 151.245 411.958 151.965 412.378C152.685 412.798 153.231 413.362 153.603 414.07L151.605 415.24C151.425 414.868 151.149 414.574 150.777 414.358C150.417 414.142 150.009 414.034 149.553 414.034C148.857 414.034 148.281 414.268 147.825 414.736C147.369 415.192 147.141 415.78 147.141 416.5C147.141 417.208 147.369 417.796 147.825 418.264C148.281 418.72 148.857 418.948 149.553 418.948C150.021 418.948 150.435 418.846 150.795 418.642C151.167 418.426 151.443 418.132 151.623 417.76L153.639 418.912C153.243 419.62 152.685 420.19 151.965 420.622C151.245 421.042 150.447 421.252 149.571 421.252ZM160.021 411.748C161.005 411.748 161.815 412.078 162.451 412.738C163.099 413.398 163.423 414.31 163.423 415.474V421H161.101V415.762C161.101 415.162 160.939 414.706 160.615 414.394C160.291 414.07 159.859 413.908 159.319 413.908C158.719 413.908 158.239 414.094 157.879 414.466C157.519 414.838 157.339 415.396 157.339 416.14V421H155.017V408.4H157.339V413.008C157.903 412.168 158.797 411.748 160.021 411.748ZM170.794 411.748C172.006 411.748 173.038 412.21 173.89 413.134C174.754 414.046 175.186 415.168 175.186 416.5C175.186 417.832 174.754 418.96 173.89 419.884C173.038 420.796 172.006 421.252 170.794 421.252C169.534 421.252 168.562 420.814 167.878 419.938V424.6H165.556V412H167.878V413.062C168.562 412.186 169.534 411.748 170.794 411.748ZM168.58 418.336C169.048 418.804 169.642 419.038 170.362 419.038C171.082 419.038 171.676 418.804 172.144 418.336C172.624 417.856 172.864 417.244 172.864 416.5C172.864 415.756 172.624 415.15 172.144 414.682C171.676 414.202 171.082 413.962 170.362 413.962C169.642 413.962 169.048 414.202 168.58 414.682C168.112 415.15 167.878 415.756 167.878 416.5C167.878 417.244 168.112 417.856 168.58 418.336ZM183.814 412H186.136V421H183.814V419.938C183.118 420.814 182.14 421.252 180.88 421.252C179.68 421.252 178.648 420.796 177.784 419.884C176.932 418.96 176.506 417.832 176.506 416.5C176.506 415.168 176.932 414.046 177.784 413.134C178.648 412.21 179.68 411.748 180.88 411.748C182.14 411.748 183.118 412.186 183.814 413.062V412ZM179.53 418.336C179.998 418.804 180.592 419.038 181.312 419.038C182.032 419.038 182.626 418.804 183.094 418.336C183.574 417.856 183.814 417.244 183.814 416.5C183.814 415.756 183.574 415.15 183.094 414.682C182.626 414.202 182.032 413.962 181.312 413.962C180.592 413.962 179.998 414.202 179.53 414.682C179.062 415.15 178.828 415.756 178.828 416.5C178.828 417.244 179.062 417.856 179.53 418.336ZM195.213 408.4H197.535V421H195.213V419.938C194.529 420.814 193.557 421.252 192.297 421.252C191.085 421.252 190.047 420.796 189.183 419.884C188.331 418.96 187.905 417.832 187.905 416.5C187.905 415.168 188.331 414.046 189.183 413.134C190.047 412.21 191.085 411.748 192.297 411.748C193.557 411.748 194.529 412.186 195.213 413.062V408.4ZM190.929 418.336C191.409 418.804 192.009 419.038 192.729 419.038C193.449 419.038 194.043 418.804 194.511 418.336C194.979 417.856 195.213 417.244 195.213 416.5C195.213 415.756 194.979 415.15 194.511 414.682C194.043 414.202 193.449 413.962 192.729 413.962C192.009 413.962 191.409 414.202 190.929 414.682C190.461 415.15 190.227 415.756 190.227 416.5C190.227 417.244 190.461 417.856 190.929 418.336Z" fill="white"/>
<g filter="url(#filter6_d_170_918)">
<circle cx="40.7891" cy="453" r="5" fill="url(#paint7_linear_170_918)"/>
<circle cx="40.7891" cy="453" r="4.25" stroke="white" stroke-width="1.5"/>
</g>
<path d="M80.2891 445.4V458H77.8231V449.828L74.2771 455.678H73.9891L70.4431 449.846V458H67.9591V445.4H70.5151L74.1331 451.358L77.7331 445.4H80.2891ZM91.1208 445.4V447.776H87.7188V458H85.2348V447.776H81.8508V445.4H91.1208ZM95.1415 455.624H99.9475V458H92.6575V445.4H95.1415V455.624ZM106.513 445.4C108.241 445.4 109.681 446.006 110.833 447.218C111.997 448.43 112.579 449.924 112.579 451.7C112.579 453.476 111.997 454.97 110.833 456.182C109.681 457.394 108.241 458 106.513 458H101.509V445.4H106.513ZM106.513 455.624C107.605 455.624 108.493 455.264 109.177 454.544C109.861 453.812 110.203 452.864 110.203 451.7C110.203 450.536 109.861 449.594 109.177 448.874C108.493 448.142 107.605 447.776 106.513 447.776H103.993V455.624H106.513ZM121.625 455.624H126.431V458H119.141V445.4H121.625V455.624ZM135.376 456.884C134.452 457.796 133.324 458.252 131.992 458.252C130.66 458.252 129.532 457.796 128.608 456.884C127.696 455.96 127.24 454.832 127.24 453.5C127.24 452.168 127.696 451.046 128.608 450.134C129.532 449.21 130.66 448.748 131.992 448.748C133.324 448.748 134.452 449.21 135.376 450.134C136.3 451.046 136.762 452.168 136.762 453.5C136.762 454.832 136.3 455.96 135.376 456.884ZM130.246 455.282C130.714 455.75 131.296 455.984 131.992 455.984C132.688 455.984 133.27 455.75 133.738 455.282C134.206 454.814 134.44 454.22 134.44 453.5C134.44 452.78 134.206 452.186 133.738 451.718C133.27 451.25 132.688 451.016 131.992 451.016C131.296 451.016 130.714 451.25 130.246 451.718C129.79 452.186 129.562 452.78 129.562 453.5C129.562 454.22 129.79 454.814 130.246 455.282ZM143.5 451.232H141.466V454.976C141.466 455.288 141.544 455.516 141.7 455.66C141.856 455.804 142.084 455.888 142.384 455.912C142.684 455.924 143.056 455.918 143.5 455.894V458C141.904 458.18 140.776 458.03 140.116 457.55C139.468 457.07 139.144 456.212 139.144 454.976V451.232H137.578V449H139.144V447.182L141.466 446.48V449H143.5V451.232ZM150.084 451.232H148.05V454.976C148.05 455.288 148.128 455.516 148.284 455.66C148.44 455.804 148.668 455.888 148.968 455.912C149.268 455.924 149.64 455.918 150.084 455.894V458C148.488 458.18 147.36 458.03 146.7 457.55C146.052 457.07 145.728 456.212 145.728 454.976V451.232H144.162V449H145.728V447.182L148.05 446.48V449H150.084V451.232ZM153.552 454.454C153.864 455.582 154.71 456.146 156.09 456.146C156.978 456.146 157.65 455.846 158.106 455.246L159.978 456.326C159.09 457.61 157.782 458.252 156.054 458.252C154.566 458.252 153.372 457.802 152.472 456.902C151.572 456.002 151.122 454.868 151.122 453.5C151.122 452.144 151.566 451.016 152.454 450.116C153.342 449.204 154.482 448.748 155.874 448.748C157.194 448.748 158.28 449.204 159.132 450.116C159.996 451.028 160.428 452.156 160.428 453.5C160.428 453.8 160.398 454.118 160.338 454.454H153.552ZM153.516 452.654H158.106C157.974 452.042 157.698 451.586 157.278 451.286C156.87 450.986 156.402 450.836 155.874 450.836C155.25 450.836 154.734 450.998 154.326 451.322C153.918 451.634 153.648 452.078 153.516 452.654ZM164.521 450.548C164.737 449.972 165.091 449.54 165.583 449.252C166.087 448.964 166.645 448.82 167.257 448.82V451.412C166.549 451.328 165.913 451.472 165.349 451.844C164.797 452.216 164.521 452.834 164.521 453.698V458H162.199V449H164.521V450.548ZM174.826 449H177.31L174.034 458C173.566 459.296 172.942 460.232 172.162 460.808C171.394 461.396 170.434 461.66 169.282 461.6V459.44C169.906 459.452 170.398 459.32 170.758 459.044C171.13 458.768 171.424 458.324 171.64 457.712L167.95 449H170.488L172.828 455.048L174.826 449ZM188.021 445.4C189.233 445.4 190.253 445.808 191.081 446.624C191.909 447.44 192.323 448.442 192.323 449.63C192.323 450.818 191.909 451.82 191.081 452.636C190.253 453.452 189.233 453.86 188.021 453.86H185.807V458H183.323V445.4H188.021ZM188.021 451.538C188.549 451.538 188.987 451.358 189.335 450.998C189.683 450.626 189.857 450.17 189.857 449.63C189.857 449.078 189.683 448.622 189.335 448.262C188.987 447.902 188.549 447.722 188.021 447.722H185.807V451.538H188.021ZM193.982 458V444.86H196.304V458H193.982ZM205.42 449H207.742V458H205.42V456.938C204.724 457.814 203.746 458.252 202.486 458.252C201.286 458.252 200.254 457.796 199.39 456.884C198.538 455.96 198.112 454.832 198.112 453.5C198.112 452.168 198.538 451.046 199.39 450.134C200.254 449.21 201.286 448.748 202.486 448.748C203.746 448.748 204.724 449.186 205.42 450.062V449ZM201.136 455.336C201.604 455.804 202.198 456.038 202.918 456.038C203.638 456.038 204.232 455.804 204.7 455.336C205.18 454.856 205.42 454.244 205.42 453.5C205.42 452.756 205.18 452.15 204.7 451.682C204.232 451.202 203.638 450.962 202.918 450.962C202.198 450.962 201.604 451.202 201.136 451.682C200.668 452.15 200.434 452.756 200.434 453.5C200.434 454.244 200.668 454.856 201.136 455.336ZM215.145 451.232H213.111V454.976C213.111 455.288 213.189 455.516 213.345 455.66C213.501 455.804 213.729 455.888 214.029 455.912C214.329 455.924 214.701 455.918 215.145 455.894V458C213.549 458.18 212.421 458.03 211.761 457.55C211.113 457.07 210.789 456.212 210.789 454.976V451.232H209.223V449H210.789V447.182L213.111 446.48V449H215.145V451.232ZM221.335 447.38C220.063 447.284 219.427 447.794 219.427 448.91V449H221.335V451.232H219.427V458H217.105V451.232H215.809V449H217.105V448.91C217.105 447.638 217.459 446.672 218.167 446.012C218.875 445.352 219.931 445.064 221.335 445.148V447.38ZM229.883 456.884C228.959 457.796 227.831 458.252 226.499 458.252C225.167 458.252 224.039 457.796 223.115 456.884C222.203 455.96 221.747 454.832 221.747 453.5C221.747 452.168 222.203 451.046 223.115 450.134C224.039 449.21 225.167 448.748 226.499 448.748C227.831 448.748 228.959 449.21 229.883 450.134C230.807 451.046 231.269 452.168 231.269 453.5C231.269 454.832 230.807 455.96 229.883 456.884ZM224.753 455.282C225.221 455.75 225.803 455.984 226.499 455.984C227.195 455.984 227.777 455.75 228.245 455.282C228.713 454.814 228.947 454.22 228.947 453.5C228.947 452.78 228.713 452.186 228.245 451.718C227.777 451.25 227.195 451.016 226.499 451.016C225.803 451.016 225.221 451.25 224.753 451.718C224.297 452.186 224.069 452.78 224.069 453.5C224.069 454.22 224.297 454.814 224.753 455.282ZM235.375 450.548C235.591 449.972 235.945 449.54 236.437 449.252C236.941 448.964 237.499 448.82 238.111 448.82V451.412C237.403 451.328 236.767 451.472 236.203 451.844C235.651 452.216 235.375 452.834 235.375 453.698V458H233.053V449H235.375V450.548ZM249.573 448.748C250.605 448.748 251.427 449.084 252.039 449.756C252.663 450.428 252.975 451.328 252.975 452.456V458H250.653V452.618C250.653 452.078 250.521 451.658 250.257 451.358C249.993 451.058 249.621 450.908 249.141 450.908C248.613 450.908 248.199 451.082 247.899 451.43C247.611 451.778 247.467 452.282 247.467 452.942V458H245.145V452.618C245.145 452.078 245.013 451.658 244.749 451.358C244.485 451.058 244.113 450.908 243.633 450.908C243.117 450.908 242.703 451.082 242.391 451.43C242.091 451.778 241.941 452.282 241.941 452.942V458H239.619V449H241.941V449.954C242.481 449.15 243.315 448.748 244.443 448.748C245.547 448.748 246.363 449.18 246.891 450.044C247.491 449.18 248.385 448.748 249.573 448.748Z" fill="white"/>
<g filter="url(#filter7_d_170_918)">
<circle cx="40.7891" cy="490" r="5" fill="url(#paint8_linear_170_918)"/>
<circle cx="40.7891" cy="490" r="4.25" stroke="white" stroke-width="1.5"/>
</g>
<path d="M76.2931 482.4V484.776H72.8911V495H70.4071V484.776H67.0231V482.4H76.2931ZM83.755 493.884C82.831 494.796 81.703 495.252 80.371 495.252C79.039 495.252 77.911 494.796 76.987 493.884C76.075 492.96 75.619 491.832 75.619 490.5C75.619 489.168 76.075 488.046 76.987 487.134C77.911 486.21 79.039 485.748 80.371 485.748C81.703 485.748 82.831 486.21 83.755 487.134C84.679 488.046 85.141 489.168 85.141 490.5C85.141 491.832 84.679 492.96 83.755 493.884ZM78.625 492.282C79.093 492.75 79.675 492.984 80.371 492.984C81.067 492.984 81.649 492.75 82.117 492.282C82.585 491.814 82.819 491.22 82.819 490.5C82.819 489.78 82.585 489.186 82.117 488.718C81.649 488.25 81.067 488.016 80.371 488.016C79.675 488.016 79.093 488.25 78.625 488.718C78.169 489.186 77.941 489.78 77.941 490.5C77.941 491.22 78.169 491.814 78.625 492.282ZM95.2225 495H92.5225L89.2465 490.914V495H86.9245V482.4H89.2465V489.96L92.3425 486H95.1145L91.4965 490.446L95.2225 495ZM97.8431 491.454C98.1551 492.582 99.0011 493.146 100.381 493.146C101.269 493.146 101.941 492.846 102.397 492.246L104.269 493.326C103.381 494.61 102.073 495.252 100.345 495.252C98.8571 495.252 97.6631 494.802 96.7631 493.902C95.8631 493.002 95.4131 491.868 95.4131 490.5C95.4131 489.144 95.8571 488.016 96.7451 487.116C97.6331 486.204 98.7731 485.748 100.165 485.748C101.485 485.748 102.571 486.204 103.423 487.116C104.287 488.028 104.719 489.156 104.719 490.5C104.719 490.8 104.689 491.118 104.629 491.454H97.8431ZM97.8071 489.654H102.397C102.265 489.042 101.989 488.586 101.569 488.286C101.161 487.986 100.693 487.836 100.165 487.836C99.5411 487.836 99.0251 487.998 98.6171 488.322C98.2091 488.634 97.9391 489.078 97.8071 489.654ZM111.494 485.748C112.478 485.748 113.288 486.078 113.924 486.738C114.572 487.398 114.896 488.31 114.896 489.474V495H112.574V489.762C112.574 489.162 112.412 488.706 112.088 488.394C111.764 488.07 111.332 487.908 110.792 487.908C110.192 487.908 109.712 488.094 109.352 488.466C108.992 488.838 108.812 489.396 108.812 490.14V495H106.49V486H108.812V487.008C109.376 486.168 110.27 485.748 111.494 485.748ZM124.901 495L120.671 482.4H123.371L126.449 492.084L129.509 482.4H132.227L127.979 495H124.901ZM134.373 491.454C134.685 492.582 135.531 493.146 136.911 493.146C137.799 493.146 138.471 492.846 138.927 492.246L140.799 493.326C139.911 494.61 138.603 495.252 136.875 495.252C135.387 495.252 134.193 494.802 133.293 493.902C132.393 493.002 131.943 491.868 131.943 490.5C131.943 489.144 132.387 488.016 133.275 487.116C134.163 486.204 135.303 485.748 136.695 485.748C138.015 485.748 139.101 486.204 139.953 487.116C140.817 488.028 141.249 489.156 141.249 490.5C141.249 490.8 141.219 491.118 141.159 491.454H134.373ZM134.337 489.654H138.927C138.795 489.042 138.519 488.586 138.099 488.286C137.691 487.986 137.223 487.836 136.695 487.836C136.071 487.836 135.555 487.998 135.147 488.322C134.739 488.634 134.469 489.078 134.337 489.654ZM144.81 488.556C144.81 488.796 144.966 488.994 145.278 489.15C145.602 489.294 145.992 489.426 146.448 489.546C146.904 489.654 147.36 489.798 147.816 489.978C148.272 490.146 148.656 490.434 148.968 490.842C149.292 491.25 149.454 491.76 149.454 492.372C149.454 493.296 149.106 494.01 148.41 494.514C147.726 495.006 146.868 495.252 145.836 495.252C143.988 495.252 142.728 494.538 142.056 493.11L144.072 491.976C144.336 492.756 144.924 493.146 145.836 493.146C146.664 493.146 147.078 492.888 147.078 492.372C147.078 492.132 146.916 491.94 146.592 491.796C146.28 491.64 145.896 491.502 145.44 491.382C144.984 491.262 144.528 491.112 144.072 490.932C143.616 490.752 143.226 490.47 142.902 490.086C142.59 489.69 142.434 489.198 142.434 488.61C142.434 487.722 142.758 487.026 143.406 486.522C144.066 486.006 144.882 485.748 145.854 485.748C146.586 485.748 147.252 485.916 147.852 486.252C148.452 486.576 148.926 487.044 149.274 487.656L147.294 488.736C147.006 488.124 146.526 487.818 145.854 487.818C145.554 487.818 145.302 487.884 145.098 488.016C144.906 488.148 144.81 488.328 144.81 488.556ZM155.982 488.232H153.948V491.976C153.948 492.288 154.026 492.516 154.182 492.66C154.338 492.804 154.566 492.888 154.866 492.912C155.166 492.924 155.538 492.918 155.982 492.894V495C154.386 495.18 153.258 495.03 152.598 494.55C151.95 494.07 151.626 493.212 151.626 491.976V488.232H150.06V486H151.626V484.182L153.948 483.48V486H155.982V488.232ZM158.921 484.92C158.537 484.92 158.201 484.782 157.913 484.506C157.637 484.218 157.499 483.882 157.499 483.498C157.499 483.114 157.637 482.778 157.913 482.49C158.201 482.202 158.537 482.058 158.921 482.058C159.317 482.058 159.653 482.202 159.929 482.49C160.217 482.778 160.361 483.114 160.361 483.498C160.361 483.882 160.217 484.218 159.929 484.506C159.653 484.782 159.317 484.92 158.921 484.92ZM157.769 495V486H160.091V495H157.769ZM167.37 485.748C168.354 485.748 169.164 486.078 169.8 486.738C170.448 487.398 170.772 488.31 170.772 489.474V495H168.45V489.762C168.45 489.162 168.288 488.706 167.964 488.394C167.64 488.07 167.208 487.908 166.668 487.908C166.068 487.908 165.588 488.094 165.228 488.466C164.868 488.838 164.688 489.396 164.688 490.14V495H162.366V486H164.688V487.008C165.252 486.168 166.146 485.748 167.37 485.748ZM179.799 486H182.067V494.568C182.067 495.96 181.605 497.022 180.681 497.754C179.769 498.486 178.665 498.852 177.369 498.852C176.397 498.852 175.539 498.666 174.795 498.294C174.063 497.922 173.499 497.376 173.103 496.656L175.083 495.522C175.539 496.362 176.325 496.782 177.441 496.782C178.173 496.782 178.749 496.59 179.169 496.206C179.589 495.822 179.799 495.276 179.799 494.568V493.596C179.115 494.508 178.155 494.964 176.919 494.964C175.647 494.964 174.579 494.52 173.715 493.632C172.863 492.732 172.437 491.64 172.437 490.356C172.437 489.084 172.869 487.998 173.733 487.098C174.597 486.198 175.659 485.748 176.919 485.748C178.155 485.748 179.115 486.204 179.799 487.116V486ZM175.461 492.138C175.941 492.594 176.547 492.822 177.279 492.822C178.011 492.822 178.611 492.594 179.079 492.138C179.559 491.67 179.799 491.076 179.799 490.356C179.799 489.648 179.559 489.066 179.079 488.61C178.611 488.142 178.011 487.908 177.279 487.908C176.547 487.908 175.941 488.142 175.461 488.61C174.993 489.066 174.759 489.648 174.759 490.356C174.759 491.076 174.993 491.67 175.461 492.138ZM193.779 482.4C194.991 482.4 196.011 482.808 196.839 483.624C197.667 484.44 198.081 485.442 198.081 486.63C198.081 487.818 197.667 488.82 196.839 489.636C196.011 490.452 194.991 490.86 193.779 490.86H191.565V495H189.081V482.4H193.779ZM193.779 488.538C194.307 488.538 194.745 488.358 195.093 487.998C195.441 487.626 195.615 487.17 195.615 486.63C195.615 486.078 195.441 485.622 195.093 485.262C194.745 484.902 194.307 484.722 193.779 484.722H191.565V488.538H193.779ZM199.74 495V481.86H202.062V495H199.74ZM211.177 486H213.499V495H211.177V493.938C210.481 494.814 209.503 495.252 208.243 495.252C207.043 495.252 206.011 494.796 205.147 493.884C204.295 492.96 203.869 491.832 203.869 490.5C203.869 489.168 204.295 488.046 205.147 487.134C206.011 486.21 207.043 485.748 208.243 485.748C209.503 485.748 210.481 486.186 211.177 487.062V486ZM206.893 492.336C207.361 492.804 207.955 493.038 208.675 493.038C209.395 493.038 209.989 492.804 210.457 492.336C210.937 491.856 211.177 491.244 211.177 490.5C211.177 489.756 210.937 489.15 210.457 488.682C209.989 488.202 209.395 487.962 208.675 487.962C207.955 487.962 207.361 488.202 206.893 488.682C206.425 489.15 206.191 489.756 206.191 490.5C206.191 491.244 206.425 491.856 206.893 492.336ZM220.903 488.232H218.869V491.976C218.869 492.288 218.947 492.516 219.103 492.66C219.259 492.804 219.487 492.888 219.787 492.912C220.087 492.924 220.459 492.918 220.903 492.894V495C219.307 495.18 218.179 495.03 217.519 494.55C216.871 494.07 216.547 493.212 216.547 491.976V488.232H214.981V486H216.547V484.182L218.869 483.48V486H220.903V488.232ZM227.092 484.38C225.82 484.284 225.184 484.794 225.184 485.91V486H227.092V488.232H225.184V495H222.862V488.232H221.566V486H222.862V485.91C222.862 484.638 223.216 483.672 223.924 483.012C224.632 482.352 225.688 482.064 227.092 482.148V484.38ZM235.641 493.884C234.717 494.796 233.589 495.252 232.257 495.252C230.925 495.252 229.797 494.796 228.873 493.884C227.961 492.96 227.505 491.832 227.505 490.5C227.505 489.168 227.961 488.046 228.873 487.134C229.797 486.21 230.925 485.748 232.257 485.748C233.589 485.748 234.717 486.21 235.641 487.134C236.565 488.046 237.027 489.168 237.027 490.5C237.027 491.832 236.565 492.96 235.641 493.884ZM230.511 492.282C230.979 492.75 231.561 492.984 232.257 492.984C232.953 492.984 233.535 492.75 234.003 492.282C234.471 491.814 234.705 491.22 234.705 490.5C234.705 489.78 234.471 489.186 234.003 488.718C233.535 488.25 232.953 488.016 232.257 488.016C231.561 488.016 230.979 488.25 230.511 488.718C230.055 489.186 229.827 489.78 229.827 490.5C229.827 491.22 230.055 491.814 230.511 492.282ZM241.132 487.548C241.348 486.972 241.702 486.54 242.194 486.252C242.698 485.964 243.256 485.82 243.868 485.82V488.412C243.16 488.328 242.524 488.472 241.96 488.844C241.408 489.216 241.132 489.834 241.132 490.698V495H238.81V486H241.132V487.548ZM255.33 485.748C256.362 485.748 257.184 486.084 257.796 486.756C258.42 487.428 258.732 488.328 258.732 489.456V495H256.41V489.618C256.41 489.078 256.278 488.658 256.014 488.358C255.75 488.058 255.378 487.908 254.898 487.908C254.37 487.908 253.956 488.082 253.656 488.43C253.368 488.778 253.224 489.282 253.224 489.942V495H250.902V489.618C250.902 489.078 250.77 488.658 250.506 488.358C250.242 488.058 249.87 487.908 249.39 487.908C248.874 487.908 248.46 488.082 248.148 488.43C247.848 488.778 247.698 489.282 247.698 489.942V495H245.376V486H247.698V486.954C248.238 486.15 249.072 485.748 250.2 485.748C251.304 485.748 252.12 486.18 252.648 487.044C253.248 486.18 254.142 485.748 255.33 485.748Z" fill="white"/>
<defs>
<filter id="filter0_b_170_918" x="4" y="159" width="302" height="377" filterUnits="userSpaceOnUse" color-interpolation-filters="sRGB">
<feFlood flood-opacity="0" result="BackgroundImageFix"/>
<feGaussianBlur in="BackgroundImageFix" stdDeviation="3"/>
<feComposite in2="SourceAlpha" operator="in" result="effect1_backgroundBlur_170_918"/>
<feBlend mode="normal" in="SourceGraphic" in2="effect1_backgroundBlur_170_918" result="shape"/>
</filter>
<filter id="filter1_d_170_918" x="-15" y="0" width="340" height="340" filterUnits="userSpaceOnUse" color-interpolation-filters="sRGB">
<feFlood flood-opacity="0" result="BackgroundImageFix"/>
<feColorMatrix in="SourceAlpha" type="matrix" values="0 0 0 0 0 0 0 0 0 0 0 0 0 0 0 0 0 0 127 0" result="hardAlpha"/>
<feOffset dy="5"/>
<feGaussianBlur stdDeviation="60"/>
<feComposite in2="hardAlpha" operator="out"/>
<feColorMatrix type="matrix" values="0 0 0 0 0.454902 0 0 0 0 0.0666667 0 0 0 0 0.941176 0 0 0 0.6 0"/>
<feBlend mode="normal" in2="BackgroundImageFix" result="effect1_dropShadow_170_918"/>
<feBlend mode="normal" in="SourceGraphic" in2="effect1_dropShadow_170_918" result="shape"/>
</filter>
<filter id="filter2_d_170_918" x="5.78906" y="268" width="70" height="70" filterUnits="userSpaceOnUse" color-interpolation-filters="sRGB">
<feFlood flood-opacity="0" result="BackgroundImageFix"/>
<feColorMatrix in="SourceAlpha" type="matrix" values="0 0 0 0 0 0 0 0 0 0 0 0 0 0 0 0 0 0 127 0" result="hardAlpha"/>
<feOffset/>
<feGaussianBlur stdDeviation="15"/>
<feComposite in2="hardAlpha" operator="out"/>
<feColorMatrix type="matrix" values="0 0 0 0 0.517647 0 0 0 0 0.145098 0 0 0 0 0.984314 0 0 0 1 0"/>
<feBlend mode="normal" in2="BackgroundImageFix" result="effect1_dropShadow_170_918"/>
<feBlend mode="normal" in="SourceGraphic" in2="effect1_dropShadow_170_918" result="shape"/>
</filter>
<filter id="filter3_d_170_918" x="5.78906" y="306" width="70" height="70" filterUnits="userSpaceOnUse" color-interpolation-filters="sRGB">
<feFlood flood-opacity="0" result="BackgroundImageFix"/>
<feColorMatrix in="SourceAlpha" type="matrix" values="0 0 0 0 0 0 0 0 0 0 0 0 0 0 0 0 0 0 127 0" result="hardAlpha"/>
<feOffset/>
<feGaussianBlur stdDeviation="15"/>
<feComposite in2="hardAlpha" operator="out"/>
<feColorMatrix type="matrix" values="0 0 0 0 0.517647 0 0 0 0 0.145098 0 0 0 0 0.984314 0 0 0 1 0"/>
<feBlend mode="normal" in2="BackgroundImageFix" result="effect1_dropShadow_170_918"/>
<feBlend mode="normal" in="SourceGraphic" in2="effect1_dropShadow_170_918" result="shape"/>
</filter>
<filter id="filter4_d_170_918" x="5.78906" y="344" width="70" height="70" filterUnits="userSpaceOnUse" color-interpolation-filters="sRGB">
<feFlood flood-opacity="0" result="BackgroundImageFix"/>
<feColorMatrix in="SourceAlpha" type="matrix" values="0 0 0 0 0 0 0 0 0 0 0 0 0 0 0 0 0 0 127 0" result="hardAlpha"/>
<feOffset/>
<feGaussianBlur stdDeviation="15"/>
<feComposite in2="hardAlpha" operator="out"/>
<feColorMatrix type="matrix" values="0 0 0 0 0.517647 0 0 0 0 0.145098 0 0 0 0 0.984314 0 0 0 1 0"/>
<feBlend mode="normal" in2="BackgroundImageFix" result="effect1_dropShadow_170_918"/>
<feBlend mode="normal" in="SourceGraphic" in2="effect1_dropShadow_170_918" result="shape"/>
</filter>
<filter id="filter5_d_170_918" x="5.78906" y="381" width="70" height="70" filterUnits="userSpaceOnUse" color-interpolation-filters="sRGB">
<feFlood flood-opacity="0" result="BackgroundImageFix"/>
<feColorMatrix in="SourceAlpha" type="matrix" values="0 0 0 0 0 0 0 0 0 0 0 0 0 0 0 0 0 0 127 0" result="hardAlpha"/>
<feOffset/>
<feGaussianBlur stdDeviation="15"/>
<feComposite in2="hardAlpha" operator="out"/>
<feColorMatrix type="matrix" values="0 0 0 0 0.517647 0 0 0 0 0.145098 0 0 0 0 0.984314 0 0 0 1 0"/>
<feBlend mode="normal" in2="BackgroundImageFix" result="effect1_dropShadow_170_918"/>
<feBlend mode="normal" in="SourceGraphic" in2="effect1_dropShadow_170_918" result="shape"/>
</filter>
<filter id="filter6_d_170_918" x="5.78906" y="418" width="70" height="70" filterUnits="userSpaceOnUse" color-interpolation-filters="sRGB">
<feFlood flood-opacity="0" result="BackgroundImageFix"/>
<feColorMatrix in="SourceAlpha" type="matrix" values="0 0 0 0 0 0 0 0 0 0 0 0 0 0 0 0 0 0 127 0" result="hardAlpha"/>
<feOffset/>
<feGaussianBlur stdDeviation="15"/>
<feComposite in2="hardAlpha" operator="out"/>
<feColorMatrix type="matrix" values="0 0 0 0 0.517647 0 0 0 0 0.145098 0 0 0 0 0.984314 0 0 0 1 0"/>
<feBlend mode="normal" in2="BackgroundImageFix" result="effect1_dropShadow_170_918"/>
<feBlend mode="normal" in="SourceGraphic" in2="effect1_dropShadow_170_918" result="shape"/>
</filter>
<filter id="filter7_d_170_918" x="5.78906" y="455" width="70" height="70" filterUnits="userSpaceOnUse" color-interpolation-filters="sRGB">
<feFlood flood-opacity="0" result="BackgroundImageFix"/>
<feColorMatrix in="SourceAlpha" type="matrix" values="0 0 0 0 0 0 0 0 0 0 0 0 0 0 0 0 0 0 127 0" result="hardAlpha"/>
<feOffset/>
<feGaussianBlur stdDeviation="15"/>
<feComposite in2="hardAlpha" operator="out"/>
<feColorMatrix type="matrix" values="0 0 0 0 0.517647 0 0 0 0 0.145098 0 0 0 0 0.984314 0 0 0 1 0"/>
<feBlend mode="normal" in2="BackgroundImageFix" result="effect1_dropShadow_170_918"/>
<feBlend mode="normal" in="SourceGraphic" in2="effect1_dropShadow_170_918" result="shape"/>
</filter>
<linearGradient id="paint0_linear_170_918" x1="155" y1="137.719" x2="155" y2="214.858" gradientUnits="userSpaceOnUse">
<stop stop-color="#272C4B"/>
<stop offset="1" stop-color="#272C4B" stop-opacity="0"/>
</linearGradient>
<linearGradient id="paint1_linear_170_918" x1="105" y1="95.9091" x2="221.247" y2="105.048" gradientUnits="userSpaceOnUse">
<stop stop-color="#8A2CFF"/>
<stop offset="1" stop-color="#6B05EA"/>
</linearGradient>
<linearGradient id="paint2_linear_170_918" x1="142" y1="128.882" x2="170.036" y2="129.88" gradientUnits="userSpaceOnUse">
<stop stop-color="#8A2CFF"/>
<stop offset="1" stop-color="#6B05EA"/>
</linearGradient>
<linearGradient id="paint3_linear_170_918" x1="35.7891" y1="296.091" x2="47.4137" y2="297.005" gradientUnits="userSpaceOnUse">
<stop stop-color="#8A2CFF"/>
<stop offset="1" stop-color="#6B05EA"/>
</linearGradient>
<linearGradient id="paint4_linear_170_918" x1="35.7891" y1="334.091" x2="47.4137" y2="335.005" gradientUnits="userSpaceOnUse">
<stop stop-color="#8A2CFF"/>
<stop offset="1" stop-color="#6B05EA"/>
</linearGradient>
<linearGradient id="paint5_linear_170_918" x1="35.7891" y1="372.091" x2="47.4137" y2="373.005" gradientUnits="userSpaceOnUse">
<stop stop-color="#8A2CFF"/>
<stop offset="1" stop-color="#6B05EA"/>
</linearGradient>
<linearGradient id="paint6_linear_170_918" x1="35.7891" y1="409.091" x2="47.4137" y2="410.005" gradientUnits="userSpaceOnUse">
<stop stop-color="#8A2CFF"/>
<stop offset="1" stop-color="#6B05EA"/>
</linearGradient>
<linearGradient id="paint7_linear_170_918" x1="35.7891" y1="446.091" x2="47.4137" y2="447.005" gradientUnits="userSpaceOnUse">
<stop stop-color="#8A2CFF"/>
<stop offset="1" stop-color="#6B05EA"/>
</linearGradient>
<linearGradient id="paint8_linear_170_918" x1="35.7891" y1="483.091" x2="47.4137" y2="484.005" gradientUnits="userSpaceOnUse">
<stop stop-color="#8A2CFF"/>
<stop offset="1" stop-color="#6B05EA"/>
</linearGradient>
</defs>
</svg>
