<svg width="295" height="363" viewBox="0 0 295 363" fill="none" xmlns="http://www.w3.org/2000/svg">
<g filter="url(#filter0_b_170_944)">
<rect x="4.78906" y="50" width="290" height="313" rx="12" fill="#323751" fill-opacity="0.3"/>
<rect x="5.78906" y="51" width="288" height="311" rx="11" stroke="url(#paint0_linear_170_944)" stroke-width="2"/>
</g>
<circle cx="150" cy="50" r="49" fill="url(#paint1_linear_170_944)" fill-opacity="0.6" stroke="url(#paint2_linear_170_944)" stroke-width="2"/>
<path d="M138.501 66V61.468L149.017 50.644C151.363 48.18 152.537 46.1267 152.537 44.484C152.537 43.2813 152.155 42.3133 151.393 41.58C150.659 40.8467 149.706 40.48 148.533 40.48C146.215 40.48 144.499 41.6827 143.385 44.088L138.281 41.096C139.249 38.984 140.642 37.3707 142.461 36.256C144.279 35.1413 146.274 34.584 148.445 34.584C151.231 34.584 153.622 35.464 155.617 37.224C157.611 38.9547 158.609 41.3013 158.609 44.264C158.609 47.4613 156.922 50.7467 153.549 54.12L147.521 60.148H159.093V66H138.501Z" fill="white"/>
<path d="M75.2891 182.4V195H72.8231V186.828L69.2771 192.678H68.9891L65.4431 186.846V195H62.9591V182.4H65.5151L69.1331 188.358L72.7331 182.4H75.2891ZM79.6408 191.454C79.9528 192.582 80.7988 193.146 82.1788 193.146C83.0668 193.146 83.7388 192.846 84.1948 192.246L86.0668 193.326C85.1788 194.61 83.8708 195.252 82.1428 195.252C80.6548 195.252 79.4608 194.802 78.5608 193.902C77.6608 193.002 77.2108 191.868 77.2108 190.5C77.2108 189.144 77.6548 188.016 78.5428 187.116C79.4308 186.204 80.5708 185.748 81.9628 185.748C83.2828 185.748 84.3688 186.204 85.2208 187.116C86.0848 188.028 86.5168 189.156 86.5168 190.5C86.5168 190.8 86.4868 191.118 86.4268 191.454H79.6408ZM79.6048 189.654H84.1948C84.0628 189.042 83.7868 188.586 83.3668 188.286C82.9588 187.986 82.4908 187.836 81.9628 187.836C81.3388 187.836 80.8228 187.998 80.4148 188.322C80.0068 188.634 79.7368 189.078 79.6048 189.654ZM93.1721 188.232H91.1381V191.976C91.1381 192.288 91.2161 192.516 91.3721 192.66C91.5281 192.804 91.7561 192.888 92.0561 192.912C92.3561 192.924 92.7281 192.918 93.1721 192.894V195C91.5761 195.18 90.4481 195.03 89.7881 194.55C89.1401 194.07 88.8161 193.212 88.8161 191.976V188.232H87.2501V186H88.8161V184.182L91.1381 183.48V186H93.1721V188.232ZM101.518 186H103.84V195H101.518V193.938C100.822 194.814 99.844 195.252 98.584 195.252C97.384 195.252 96.352 194.796 95.488 193.884C94.636 192.96 94.21 191.832 94.21 190.5C94.21 189.168 94.636 188.046 95.488 187.134C96.352 186.21 97.384 185.748 98.584 185.748C99.844 185.748 100.822 186.186 101.518 187.062V186ZM97.234 192.336C97.702 192.804 98.296 193.038 99.016 193.038C99.736 193.038 100.33 192.804 100.798 192.336C101.278 191.856 101.518 191.244 101.518 190.5C101.518 189.756 101.278 189.15 100.798 188.682C100.33 188.202 99.736 187.962 99.016 187.962C98.296 187.962 97.702 188.202 97.234 188.682C96.766 189.15 96.532 189.756 96.532 190.5C96.532 191.244 96.766 191.856 97.234 192.336ZM108.688 192.624H113.494V195H106.204V182.4H108.688V192.624ZM121.611 186H123.933V195H121.611V193.938C120.915 194.814 119.937 195.252 118.677 195.252C117.477 195.252 116.445 194.796 115.581 193.884C114.729 192.96 114.303 191.832 114.303 190.5C114.303 189.168 114.729 188.046 115.581 187.134C116.445 186.21 117.477 185.748 118.677 185.748C119.937 185.748 120.915 186.186 121.611 187.062V186ZM117.327 192.336C117.795 192.804 118.389 193.038 119.109 193.038C119.829 193.038 120.423 192.804 120.891 192.336C121.371 191.856 121.611 191.244 121.611 190.5C121.611 189.756 121.371 189.15 120.891 188.682C120.423 188.202 119.829 187.962 119.109 187.962C118.389 187.962 117.795 188.202 117.327 188.682C116.859 189.15 116.625 189.756 116.625 190.5C116.625 191.244 116.859 191.856 117.327 192.336ZM132.129 186H134.451V195H132.129V193.992C131.565 194.832 130.671 195.252 129.447 195.252C128.463 195.252 127.647 194.922 126.999 194.262C126.363 193.602 126.045 192.69 126.045 191.526V186H128.367V191.238C128.367 191.838 128.529 192.3 128.853 192.624C129.177 192.936 129.609 193.092 130.149 193.092C130.749 193.092 131.229 192.906 131.589 192.534C131.949 192.162 132.129 191.604 132.129 190.86V186ZM141.731 185.748C142.715 185.748 143.525 186.078 144.161 186.738C144.809 187.398 145.133 188.31 145.133 189.474V195H142.811V189.762C142.811 189.162 142.649 188.706 142.325 188.394C142.001 188.07 141.569 187.908 141.029 187.908C140.429 187.908 139.949 188.094 139.589 188.466C139.229 188.838 139.049 189.396 139.049 190.14V195H136.727V186H139.049V187.008C139.613 186.168 140.507 185.748 141.731 185.748ZM151.55 195.252C150.194 195.252 149.06 194.796 148.148 193.884C147.248 192.972 146.798 191.844 146.798 190.5C146.798 189.156 147.248 188.028 148.148 187.116C149.06 186.204 150.194 185.748 151.55 185.748C152.426 185.748 153.224 185.958 153.944 186.378C154.664 186.798 155.21 187.362 155.582 188.07L153.584 189.24C153.404 188.868 153.128 188.574 152.756 188.358C152.396 188.142 151.988 188.034 151.532 188.034C150.836 188.034 150.26 188.268 149.804 188.736C149.348 189.192 149.12 189.78 149.12 190.5C149.12 191.208 149.348 191.796 149.804 192.264C150.26 192.72 150.836 192.948 151.532 192.948C152 192.948 152.414 192.846 152.774 192.642C153.146 192.426 153.422 192.132 153.602 191.76L155.618 192.912C155.222 193.62 154.664 194.19 153.944 194.622C153.224 195.042 152.426 195.252 151.55 195.252ZM162 185.748C162.984 185.748 163.794 186.078 164.43 186.738C165.078 187.398 165.402 188.31 165.402 189.474V195H163.08V189.762C163.08 189.162 162.918 188.706 162.594 188.394C162.27 188.07 161.838 187.908 161.298 187.908C160.698 187.908 160.218 188.094 159.858 188.466C159.498 188.838 159.318 189.396 159.318 190.14V195H156.996V182.4H159.318V187.008C159.882 186.168 160.776 185.748 162 185.748ZM172.773 185.748C173.985 185.748 175.017 186.21 175.869 187.134C176.733 188.046 177.165 189.168 177.165 190.5C177.165 191.832 176.733 192.96 175.869 193.884C175.017 194.796 173.985 195.252 172.773 195.252C171.513 195.252 170.541 194.814 169.857 193.938V198.6H167.535V186H169.857V187.062C170.541 186.186 171.513 185.748 172.773 185.748ZM170.559 192.336C171.027 192.804 171.621 193.038 172.341 193.038C173.061 193.038 173.655 192.804 174.123 192.336C174.603 191.856 174.843 191.244 174.843 190.5C174.843 189.756 174.603 189.15 174.123 188.682C173.655 188.202 173.061 187.962 172.341 187.962C171.621 187.962 171.027 188.202 170.559 188.682C170.091 189.15 169.857 189.756 169.857 190.5C169.857 191.244 170.091 191.856 170.559 192.336ZM185.792 186H188.114V195H185.792V193.938C185.096 194.814 184.118 195.252 182.858 195.252C181.658 195.252 180.626 194.796 179.762 193.884C178.91 192.96 178.484 191.832 178.484 190.5C178.484 189.168 178.91 188.046 179.762 187.134C180.626 186.21 181.658 185.748 182.858 185.748C184.118 185.748 185.096 186.186 185.792 187.062V186ZM181.508 192.336C181.976 192.804 182.57 193.038 183.29 193.038C184.01 193.038 184.604 192.804 185.072 192.336C185.552 191.856 185.792 191.244 185.792 190.5C185.792 189.756 185.552 189.15 185.072 188.682C184.604 188.202 184.01 187.962 183.29 187.962C182.57 187.962 181.976 188.202 181.508 188.682C181.04 189.15 180.806 189.756 180.806 190.5C180.806 191.244 181.04 191.856 181.508 192.336ZM197.192 182.4H199.514V195H197.192V193.938C196.508 194.814 195.536 195.252 194.276 195.252C193.064 195.252 192.026 194.796 191.162 193.884C190.31 192.96 189.884 191.832 189.884 190.5C189.884 189.168 190.31 188.046 191.162 187.134C192.026 186.21 193.064 185.748 194.276 185.748C195.536 185.748 196.508 186.186 197.192 187.062V182.4ZM192.908 192.336C193.388 192.804 193.988 193.038 194.708 193.038C195.428 193.038 196.022 192.804 196.49 192.336C196.958 191.856 197.192 191.244 197.192 190.5C197.192 189.756 196.958 189.15 196.49 188.682C196.022 188.202 195.428 187.962 194.708 187.962C193.988 187.962 193.388 188.202 192.908 188.682C192.44 189.15 192.206 189.756 192.206 190.5C192.206 191.244 192.44 191.856 192.908 192.336ZM213.457 195L210.919 190.626H209.029V195H206.545V182.4H211.585C212.749 182.4 213.739 182.808 214.555 183.624C215.371 184.44 215.779 185.424 215.779 186.576C215.779 187.356 215.557 188.082 215.113 188.754C214.669 189.414 214.081 189.912 213.349 190.248L216.139 195H213.457ZM209.029 184.722V188.448H211.585C212.053 188.448 212.455 188.268 212.791 187.908C213.127 187.536 213.295 187.092 213.295 186.576C213.295 186.06 213.127 185.622 212.791 185.262C212.455 184.902 212.053 184.722 211.585 184.722H209.029ZM219.149 191.454C219.461 192.582 220.307 193.146 221.687 193.146C222.575 193.146 223.247 192.846 223.703 192.246L225.575 193.326C224.687 194.61 223.379 195.252 221.651 195.252C220.163 195.252 218.969 194.802 218.069 193.902C217.169 193.002 216.719 191.868 216.719 190.5C216.719 189.144 217.163 188.016 218.051 187.116C218.939 186.204 220.079 185.748 221.471 185.748C222.791 185.748 223.877 186.204 224.729 187.116C225.593 188.028 226.025 189.156 226.025 190.5C226.025 190.8 225.995 191.118 225.935 191.454H219.149ZM219.113 189.654H223.703C223.571 189.042 223.295 188.586 222.875 188.286C222.467 187.986 221.999 187.836 221.471 187.836C220.847 187.836 220.331 187.998 219.923 188.322C219.515 188.634 219.245 189.078 219.113 189.654ZM227.796 195V181.86H230.118V195H227.796ZM234.355 191.454C234.667 192.582 235.513 193.146 236.893 193.146C237.781 193.146 238.453 192.846 238.909 192.246L240.781 193.326C239.893 194.61 238.585 195.252 236.857 195.252C235.369 195.252 234.175 194.802 233.275 193.902C232.375 193.002 231.925 191.868 231.925 190.5C231.925 189.144 232.369 188.016 233.257 187.116C234.145 186.204 235.285 185.748 236.677 185.748C237.997 185.748 239.083 186.204 239.935 187.116C240.799 188.028 241.231 189.156 241.231 190.5C241.231 190.8 241.201 191.118 241.141 191.454H234.355ZM234.319 189.654H238.909C238.777 189.042 238.501 188.586 238.081 188.286C237.673 187.986 237.205 187.836 236.677 187.836C236.053 187.836 235.537 187.998 235.129 188.322C234.721 188.634 234.451 189.078 234.319 189.654ZM249.772 186H252.094V195H249.772V193.938C249.076 194.814 248.098 195.252 246.838 195.252C245.638 195.252 244.606 194.796 243.742 193.884C242.89 192.96 242.464 191.832 242.464 190.5C242.464 189.168 242.89 188.046 243.742 187.134C244.606 186.21 245.638 185.748 246.838 185.748C248.098 185.748 249.076 186.186 249.772 187.062V186ZM245.488 192.336C245.956 192.804 246.55 193.038 247.27 193.038C247.99 193.038 248.584 192.804 249.052 192.336C249.532 191.856 249.772 191.244 249.772 190.5C249.772 189.756 249.532 189.15 249.052 188.682C248.584 188.202 247.99 187.962 247.27 187.962C246.55 187.962 245.956 188.202 245.488 188.682C245.02 189.15 244.786 189.756 244.786 190.5C244.786 191.244 245.02 191.856 245.488 192.336ZM256.421 188.556C256.421 188.796 256.577 188.994 256.889 189.15C257.213 189.294 257.603 189.426 258.059 189.546C258.515 189.654 258.971 189.798 259.427 189.978C259.883 190.146 260.267 190.434 260.579 190.842C260.903 191.25 261.065 191.76 261.065 192.372C261.065 193.296 260.717 194.01 260.021 194.514C259.337 195.006 258.479 195.252 257.447 195.252C255.599 195.252 254.339 194.538 253.667 193.11L255.683 191.976C255.947 192.756 256.535 193.146 257.447 193.146C258.275 193.146 258.689 192.888 258.689 192.372C258.689 192.132 258.527 191.94 258.203 191.796C257.891 191.64 257.507 191.502 257.051 191.382C256.595 191.262 256.139 191.112 255.683 190.932C255.227 190.752 254.837 190.47 254.513 190.086C254.201 189.69 254.045 189.198 254.045 188.61C254.045 187.722 254.369 187.026 255.017 186.522C255.677 186.006 256.493 185.748 257.465 185.748C258.197 185.748 258.863 185.916 259.463 186.252C260.063 186.576 260.537 187.044 260.885 187.656L258.905 188.736C258.617 188.124 258.137 187.818 257.465 187.818C257.165 187.818 256.913 187.884 256.709 188.016C256.517 188.148 256.421 188.328 256.421 188.556ZM264.547 191.454C264.859 192.582 265.705 193.146 267.085 193.146C267.973 193.146 268.645 192.846 269.101 192.246L270.973 193.326C270.085 194.61 268.777 195.252 267.049 195.252C265.561 195.252 264.367 194.802 263.467 193.902C262.567 193.002 262.117 191.868 262.117 190.5C262.117 189.144 262.561 188.016 263.449 187.116C264.337 186.204 265.477 185.748 266.869 185.748C268.189 185.748 269.275 186.204 270.127 187.116C270.991 188.028 271.423 189.156 271.423 190.5C271.423 190.8 271.393 191.118 271.333 191.454H264.547ZM264.511 189.654H269.101C268.969 189.042 268.693 188.586 268.273 188.286C267.865 187.986 267.397 187.836 266.869 187.836C266.245 187.836 265.729 187.998 265.321 188.322C264.913 188.634 264.643 189.078 264.511 189.654Z" fill="white"/>
<g filter="url(#filter1_d_170_944)">
<circle cx="35.7891" cy="188" r="5" fill="url(#paint3_linear_170_944)"/>
<circle cx="35.7891" cy="188" r="4.25" stroke="white" stroke-width="1.5"/>
</g>
<g filter="url(#filter2_d_170_944)">
<circle cx="35.7891" cy="226" r="5" fill="url(#paint4_linear_170_944)"/>
<circle cx="35.7891" cy="226" r="4.25" stroke="white" stroke-width="1.5"/>
</g>
<path d="M75.2891 219.4V232H72.8231V223.828L69.2771 229.678H68.9891L65.4431 223.846V232H62.9591V219.4H65.5151L69.1331 225.358L72.7331 219.4H75.2891ZM86.1208 219.4V221.776H82.7188V232H80.2348V221.776H76.8508V219.4H86.1208ZM90.1415 229.624H94.9475V232H87.6575V219.4H90.1415V229.624ZM101.513 219.4C103.241 219.4 104.681 220.006 105.833 221.218C106.997 222.43 107.579 223.924 107.579 225.7C107.579 227.476 106.997 228.97 105.833 230.182C104.681 231.394 103.241 232 101.513 232H96.5087V219.4H101.513ZM101.513 229.624C102.605 229.624 103.493 229.264 104.177 228.544C104.861 227.812 105.203 226.864 105.203 225.7C105.203 224.536 104.861 223.594 104.177 222.874C103.493 222.142 102.605 221.776 101.513 221.776H98.9927V229.624H101.513ZM122.475 219.4V221.776H119.073V232H116.589V221.776H113.205V219.4H122.475ZM129.937 230.884C129.013 231.796 127.885 232.252 126.553 232.252C125.221 232.252 124.093 231.796 123.169 230.884C122.257 229.96 121.801 228.832 121.801 227.5C121.801 226.168 122.257 225.046 123.169 224.134C124.093 223.21 125.221 222.748 126.553 222.748C127.885 222.748 129.013 223.21 129.937 224.134C130.861 225.046 131.323 226.168 131.323 227.5C131.323 228.832 130.861 229.96 129.937 230.884ZM124.807 229.282C125.275 229.75 125.857 229.984 126.553 229.984C127.249 229.984 127.831 229.75 128.299 229.282C128.767 228.814 129.001 228.22 129.001 227.5C129.001 226.78 128.767 226.186 128.299 225.718C127.831 225.25 127.249 225.016 126.553 225.016C125.857 225.016 125.275 225.25 124.807 225.718C124.351 226.186 124.123 226.78 124.123 227.5C124.123 228.22 124.351 228.814 124.807 229.282ZM141.404 232H138.704L135.428 227.914V232H133.106V219.4H135.428V226.96L138.524 223H141.296L137.678 227.446L141.404 232ZM144.025 228.454C144.337 229.582 145.183 230.146 146.563 230.146C147.451 230.146 148.123 229.846 148.579 229.246L150.451 230.326C149.563 231.61 148.255 232.252 146.527 232.252C145.039 232.252 143.845 231.802 142.945 230.902C142.045 230.002 141.595 228.868 141.595 227.5C141.595 226.144 142.039 225.016 142.927 224.116C143.815 223.204 144.955 222.748 146.347 222.748C147.667 222.748 148.753 223.204 149.605 224.116C150.469 225.028 150.901 226.156 150.901 227.5C150.901 227.8 150.871 228.118 150.811 228.454H144.025ZM143.989 226.654H148.579C148.447 226.042 148.171 225.586 147.751 225.286C147.343 224.986 146.875 224.836 146.347 224.836C145.723 224.836 145.207 224.998 144.799 225.322C144.391 225.634 144.121 226.078 143.989 226.654ZM157.676 222.748C158.66 222.748 159.47 223.078 160.106 223.738C160.754 224.398 161.078 225.31 161.078 226.474V232H158.756V226.762C158.756 226.162 158.594 225.706 158.27 225.394C157.946 225.07 157.514 224.908 156.974 224.908C156.374 224.908 155.894 225.094 155.534 225.466C155.174 225.838 154.994 226.396 154.994 227.14V232H152.672V223H154.994V224.008C155.558 223.168 156.452 222.748 157.676 222.748ZM172.666 219.4C173.878 219.4 174.898 219.808 175.726 220.624C176.554 221.44 176.968 222.442 176.968 223.63C176.968 224.818 176.554 225.82 175.726 226.636C174.898 227.452 173.878 227.86 172.666 227.86H170.452V232H167.968V219.4H172.666ZM172.666 225.538C173.194 225.538 173.632 225.358 173.98 224.998C174.328 224.626 174.502 224.17 174.502 223.63C174.502 223.078 174.328 222.622 173.98 222.262C173.632 221.902 173.194 221.722 172.666 221.722H170.452V225.538H172.666ZM184.568 223H186.89V232H184.568V230.992C184.004 231.832 183.11 232.252 181.886 232.252C180.902 232.252 180.086 231.922 179.438 231.262C178.802 230.602 178.484 229.69 178.484 228.526V223H180.806V228.238C180.806 228.838 180.968 229.3 181.292 229.624C181.616 229.936 182.048 230.092 182.588 230.092C183.188 230.092 183.668 229.906 184.028 229.534C184.388 229.162 184.568 228.604 184.568 227.86V223ZM194.404 222.748C195.616 222.748 196.648 223.21 197.5 224.134C198.364 225.046 198.796 226.168 198.796 227.5C198.796 228.832 198.364 229.96 197.5 230.884C196.648 231.796 195.616 232.252 194.404 232.252C193.144 232.252 192.172 231.814 191.488 230.938V232H189.166V219.4H191.488V224.062C192.172 223.186 193.144 222.748 194.404 222.748ZM192.19 229.336C192.658 229.804 193.252 230.038 193.972 230.038C194.692 230.038 195.286 229.804 195.754 229.336C196.234 228.856 196.474 228.244 196.474 227.5C196.474 226.756 196.234 226.15 195.754 225.682C195.286 225.202 194.692 224.962 193.972 224.962C193.252 224.962 192.658 225.202 192.19 225.682C191.722 226.15 191.488 226.756 191.488 227.5C191.488 228.244 191.722 228.856 192.19 229.336ZM200.584 232V218.86H202.906V232H200.584ZM206.333 221.92C205.949 221.92 205.613 221.782 205.325 221.506C205.049 221.218 204.911 220.882 204.911 220.498C204.911 220.114 205.049 219.778 205.325 219.49C205.613 219.202 205.949 219.058 206.333 219.058C206.729 219.058 207.065 219.202 207.341 219.49C207.629 219.778 207.773 220.114 207.773 220.498C207.773 220.882 207.629 221.218 207.341 221.506C207.065 221.782 206.729 221.92 206.333 221.92ZM205.181 232V223H207.503V232H205.181ZM214.062 232.252C212.706 232.252 211.572 231.796 210.66 230.884C209.76 229.972 209.31 228.844 209.31 227.5C209.31 226.156 209.76 225.028 210.66 224.116C211.572 223.204 212.706 222.748 214.062 222.748C214.938 222.748 215.736 222.958 216.456 223.378C217.176 223.798 217.722 224.362 218.094 225.07L216.096 226.24C215.916 225.868 215.64 225.574 215.268 225.358C214.908 225.142 214.5 225.034 214.044 225.034C213.348 225.034 212.772 225.268 212.316 225.736C211.86 226.192 211.632 226.78 211.632 227.5C211.632 228.208 211.86 228.796 212.316 229.264C212.772 229.72 213.348 229.948 214.044 229.948C214.512 229.948 214.926 229.846 215.286 229.642C215.658 229.426 215.934 229.132 216.114 228.76L218.13 229.912C217.734 230.62 217.176 231.19 216.456 231.622C215.736 232.042 214.938 232.252 214.062 232.252ZM228.639 232.252C227.391 232.252 226.341 231.976 225.489 231.424C224.637 230.86 224.037 230.098 223.689 229.138L225.813 227.896C226.305 229.18 227.271 229.822 228.711 229.822C229.407 229.822 229.917 229.696 230.241 229.444C230.565 229.192 230.727 228.874 230.727 228.49C230.727 228.046 230.529 227.704 230.133 227.464C229.737 227.212 229.029 226.942 228.009 226.654C227.445 226.486 226.965 226.318 226.569 226.15C226.185 225.982 225.795 225.76 225.399 225.484C225.015 225.196 224.721 224.836 224.517 224.404C224.313 223.972 224.211 223.468 224.211 222.892C224.211 221.752 224.613 220.846 225.417 220.174C226.233 219.49 227.211 219.148 228.351 219.148C229.371 219.148 230.265 219.4 231.033 219.904C231.813 220.396 232.419 221.086 232.851 221.974L230.763 223.18C230.259 222.1 229.455 221.56 228.351 221.56C227.835 221.56 227.427 221.68 227.127 221.92C226.839 222.148 226.695 222.448 226.695 222.82C226.695 223.216 226.857 223.54 227.181 223.792C227.517 224.032 228.153 224.296 229.089 224.584C229.473 224.704 229.761 224.8 229.953 224.872C230.157 224.932 230.427 225.034 230.763 225.178C231.111 225.31 231.375 225.436 231.555 225.556C231.747 225.676 231.963 225.838 232.203 226.042C232.443 226.246 232.623 226.456 232.743 226.672C232.875 226.888 232.983 227.152 233.067 227.464C233.163 227.764 233.211 228.094 233.211 228.454C233.211 229.618 232.785 230.542 231.933 231.226C231.093 231.91 229.995 232.252 228.639 232.252ZM241.959 223H244.281V232H241.959V230.938C241.263 231.814 240.285 232.252 239.025 232.252C237.825 232.252 236.793 231.796 235.929 230.884C235.077 229.96 234.651 228.832 234.651 227.5C234.651 226.168 235.077 225.046 235.929 224.134C236.793 223.21 237.825 222.748 239.025 222.748C240.285 222.748 241.263 223.186 241.959 224.062V223ZM237.675 229.336C238.143 229.804 238.737 230.038 239.457 230.038C240.177 230.038 240.771 229.804 241.239 229.336C241.719 228.856 241.959 228.244 241.959 227.5C241.959 226.756 241.719 226.15 241.239 225.682C240.771 225.202 240.177 224.962 239.457 224.962C238.737 224.962 238.143 225.202 237.675 225.682C237.207 226.15 236.973 226.756 236.973 227.5C236.973 228.244 237.207 228.856 237.675 229.336ZM246.537 232V218.86H248.859V232H246.537ZM253.096 228.454C253.408 229.582 254.254 230.146 255.634 230.146C256.522 230.146 257.194 229.846 257.65 229.246L259.522 230.326C258.634 231.61 257.326 232.252 255.598 232.252C254.11 232.252 252.916 231.802 252.016 230.902C251.116 230.002 250.666 228.868 250.666 227.5C250.666 226.144 251.11 225.016 251.998 224.116C252.886 223.204 254.026 222.748 255.418 222.748C256.738 222.748 257.824 223.204 258.676 224.116C259.54 225.028 259.972 226.156 259.972 227.5C259.972 227.8 259.942 228.118 259.882 228.454H253.096ZM253.06 226.654H257.65C257.518 226.042 257.242 225.586 256.822 225.286C256.414 224.986 255.946 224.836 255.418 224.836C254.794 224.836 254.278 224.998 253.87 225.322C253.462 225.634 253.192 226.078 253.06 226.654Z" fill="white"/>
<g filter="url(#filter3_d_170_944)">
<circle cx="35.7891" cy="264" r="5" fill="url(#paint5_linear_170_944)"/>
<circle cx="35.7891" cy="264" r="4.25" stroke="white" stroke-width="1.5"/>
</g>
<path d="M65.4431 266.624H70.2491V269H62.9591V256.4H65.4431V266.624ZM72.8542 258.92C72.4702 258.92 72.1342 258.782 71.8462 258.506C71.5702 258.218 71.4322 257.882 71.4322 257.498C71.4322 257.114 71.5702 256.778 71.8462 256.49C72.1342 256.202 72.4702 256.058 72.8542 256.058C73.2502 256.058 73.5862 256.202 73.8622 256.49C74.1502 256.778 74.2942 257.114 74.2942 257.498C74.2942 257.882 74.1502 258.218 73.8622 258.506C73.5862 258.782 73.2502 258.92 72.8542 258.92ZM71.7022 269V260H74.0242V269H71.7022ZM78.3712 262.556C78.3712 262.796 78.5272 262.994 78.8392 263.15C79.1632 263.294 79.5532 263.426 80.0092 263.546C80.4652 263.654 80.9212 263.798 81.3772 263.978C81.8332 264.146 82.2172 264.434 82.5292 264.842C82.8532 265.25 83.0152 265.76 83.0152 266.372C83.0152 267.296 82.6672 268.01 81.9712 268.514C81.2872 269.006 80.4292 269.252 79.3972 269.252C77.5492 269.252 76.2892 268.538 75.6172 267.11L77.6332 265.976C77.8972 266.756 78.4852 267.146 79.3972 267.146C80.2252 267.146 80.6392 266.888 80.6392 266.372C80.6392 266.132 80.4772 265.94 80.1532 265.796C79.8412 265.64 79.4572 265.502 79.0012 265.382C78.5452 265.262 78.0892 265.112 77.6332 264.932C77.1772 264.752 76.7872 264.47 76.4632 264.086C76.1512 263.69 75.9952 263.198 75.9952 262.61C75.9952 261.722 76.3192 261.026 76.9672 260.522C77.6272 260.006 78.4432 259.748 79.4152 259.748C80.1472 259.748 80.8132 259.916 81.4132 260.252C82.0132 260.576 82.4872 261.044 82.8352 261.656L80.8552 262.736C80.5672 262.124 80.0872 261.818 79.4152 261.818C79.1152 261.818 78.8632 261.884 78.6592 262.016C78.4672 262.148 78.3712 262.328 78.3712 262.556ZM89.5428 262.232H87.5088V265.976C87.5088 266.288 87.5868 266.516 87.7428 266.66C87.8988 266.804 88.1268 266.888 88.4268 266.912C88.7268 266.924 89.0988 266.918 89.5428 266.894V269C87.9468 269.18 86.8188 269.03 86.1588 268.55C85.5108 268.07 85.1868 267.212 85.1868 265.976V262.232H83.6208V260H85.1868V258.182L87.5088 257.48V260H89.5428V262.232ZM92.482 258.92C92.098 258.92 91.762 258.782 91.474 258.506C91.198 258.218 91.06 257.882 91.06 257.498C91.06 257.114 91.198 256.778 91.474 256.49C91.762 256.202 92.098 256.058 92.482 256.058C92.878 256.058 93.214 256.202 93.49 256.49C93.778 256.778 93.922 257.114 93.922 257.498C93.922 257.882 93.778 258.218 93.49 258.506C93.214 258.782 92.878 258.92 92.482 258.92ZM91.33 269V260H93.652V269H91.33ZM100.931 259.748C101.915 259.748 102.725 260.078 103.361 260.738C104.009 261.398 104.333 262.31 104.333 263.474V269H102.011V263.762C102.011 263.162 101.849 262.706 101.525 262.394C101.201 262.07 100.769 261.908 100.229 261.908C99.6292 261.908 99.1492 262.094 98.7892 262.466C98.4292 262.838 98.2492 263.396 98.2492 264.14V269H95.9272V260H98.2492V261.008C98.8132 260.168 99.7072 259.748 100.931 259.748ZM113.36 260H115.628V268.568C115.628 269.96 115.166 271.022 114.242 271.754C113.33 272.486 112.226 272.852 110.93 272.852C109.958 272.852 109.1 272.666 108.356 272.294C107.624 271.922 107.06 271.376 106.664 270.656L108.644 269.522C109.1 270.362 109.886 270.782 111.002 270.782C111.734 270.782 112.31 270.59 112.73 270.206C113.15 269.822 113.36 269.276 113.36 268.568V267.596C112.676 268.508 111.716 268.964 110.48 268.964C109.208 268.964 108.14 268.52 107.276 267.632C106.424 266.732 105.998 265.64 105.998 264.356C105.998 263.084 106.43 261.998 107.294 261.098C108.158 260.198 109.22 259.748 110.48 259.748C111.716 259.748 112.676 260.204 113.36 261.116V260ZM109.022 266.138C109.502 266.594 110.108 266.822 110.84 266.822C111.572 266.822 112.172 266.594 112.64 266.138C113.12 265.67 113.36 265.076 113.36 264.356C113.36 263.648 113.12 263.066 112.64 262.61C112.172 262.142 111.572 261.908 110.84 261.908C110.108 261.908 109.502 262.142 109.022 262.61C108.554 263.066 108.32 263.648 108.32 264.356C108.32 265.076 108.554 265.67 109.022 266.138ZM130.201 267.884C129.277 268.796 128.149 269.252 126.817 269.252C125.485 269.252 124.357 268.796 123.433 267.884C122.521 266.96 122.065 265.832 122.065 264.5C122.065 263.168 122.521 262.046 123.433 261.134C124.357 260.21 125.485 259.748 126.817 259.748C128.149 259.748 129.277 260.21 130.201 261.134C131.125 262.046 131.587 263.168 131.587 264.5C131.587 265.832 131.125 266.96 130.201 267.884ZM125.071 266.282C125.539 266.75 126.121 266.984 126.817 266.984C127.513 266.984 128.095 266.75 128.563 266.282C129.031 265.814 129.265 265.22 129.265 264.5C129.265 263.78 129.031 263.186 128.563 262.718C128.095 262.25 127.513 262.016 126.817 262.016C126.121 262.016 125.539 262.25 125.071 262.718C124.615 263.186 124.387 263.78 124.387 264.5C124.387 265.22 124.615 265.814 125.071 266.282ZM138.375 259.748C139.359 259.748 140.169 260.078 140.805 260.738C141.453 261.398 141.777 262.31 141.777 263.474V269H139.455V263.762C139.455 263.162 139.293 262.706 138.969 262.394C138.645 262.07 138.213 261.908 137.673 261.908C137.073 261.908 136.593 262.094 136.233 262.466C135.873 262.838 135.693 263.396 135.693 264.14V269H133.371V260H135.693V261.008C136.257 260.168 137.151 259.748 138.375 259.748ZM153.672 256.4C155.4 256.4 156.84 257.006 157.992 258.218C159.156 259.43 159.738 260.924 159.738 262.7C159.738 264.476 159.156 265.97 157.992 267.182C156.84 268.394 155.4 269 153.672 269H148.668V256.4H153.672ZM153.672 266.624C154.764 266.624 155.652 266.264 156.336 265.544C157.02 264.812 157.362 263.864 157.362 262.7C157.362 261.536 157.02 260.594 156.336 259.874C155.652 259.142 154.764 258.776 153.672 258.776H151.152V266.624H153.672ZM164.134 266.624H169.444V269H161.65V256.4H169.354V258.776H164.134V261.458H168.904V263.798H164.134V266.624ZM180.939 269H178.113L175.665 264.896L173.217 269H170.409L174.261 262.538L170.607 256.4H173.415L175.665 260.18L177.915 256.4H180.723L177.069 262.52L180.939 269ZM192.133 268.28L190.153 269.414L189.001 268.172C188.029 268.892 186.901 269.252 185.617 269.252C184.321 269.252 183.259 268.916 182.431 268.244C181.615 267.56 181.207 266.648 181.207 265.508C181.207 264.764 181.387 264.074 181.747 263.438C182.107 262.802 182.629 262.286 183.313 261.89C182.905 261.242 182.701 260.54 182.701 259.784C182.701 258.716 183.073 257.846 183.817 257.174C184.561 256.49 185.503 256.148 186.643 256.148C187.543 256.148 188.347 256.382 189.055 256.85C189.775 257.306 190.309 257.972 190.657 258.848L188.533 260.072C188.185 259.064 187.567 258.56 186.679 258.56C186.247 258.56 185.887 258.686 185.599 258.938C185.323 259.19 185.185 259.508 185.185 259.892C185.185 260.228 185.263 260.534 185.419 260.81C185.587 261.086 185.851 261.416 186.211 261.8L188.911 264.752C189.175 264.188 189.379 263.492 189.523 262.664L191.611 263.852C191.383 264.824 191.017 265.706 190.513 266.498L192.133 268.28ZM185.779 266.966C186.403 266.966 186.961 266.816 187.453 266.516L184.735 263.564C184.711 263.54 184.699 263.522 184.699 263.51C184.039 263.918 183.709 264.5 183.709 265.256C183.709 265.772 183.883 266.186 184.231 266.498C184.591 266.81 185.107 266.966 185.779 266.966ZM197.568 269.252C196.32 269.252 195.27 268.976 194.418 268.424C193.566 267.86 192.966 267.098 192.618 266.138L194.742 264.896C195.234 266.18 196.2 266.822 197.64 266.822C198.336 266.822 198.846 266.696 199.17 266.444C199.494 266.192 199.656 265.874 199.656 265.49C199.656 265.046 199.458 264.704 199.062 264.464C198.666 264.212 197.958 263.942 196.938 263.654C196.374 263.486 195.894 263.318 195.498 263.15C195.114 262.982 194.724 262.76 194.328 262.484C193.944 262.196 193.65 261.836 193.446 261.404C193.242 260.972 193.14 260.468 193.14 259.892C193.14 258.752 193.542 257.846 194.346 257.174C195.162 256.49 196.14 256.148 197.28 256.148C198.3 256.148 199.194 256.4 199.962 256.904C200.742 257.396 201.348 258.086 201.78 258.974L199.692 260.18C199.188 259.1 198.384 258.56 197.28 258.56C196.764 258.56 196.356 258.68 196.056 258.92C195.768 259.148 195.624 259.448 195.624 259.82C195.624 260.216 195.786 260.54 196.11 260.792C196.446 261.032 197.082 261.296 198.018 261.584C198.402 261.704 198.69 261.8 198.882 261.872C199.086 261.932 199.356 262.034 199.692 262.178C200.04 262.31 200.304 262.436 200.484 262.556C200.676 262.676 200.892 262.838 201.132 263.042C201.372 263.246 201.552 263.456 201.672 263.672C201.804 263.888 201.912 264.152 201.996 264.464C202.092 264.764 202.14 265.094 202.14 265.454C202.14 266.618 201.714 267.542 200.862 268.226C200.022 268.91 198.924 269.252 197.568 269.252ZM206.306 266.624H211.616V269H203.822V256.4H211.526V258.776H206.306V261.458H211.076V263.798H206.306V266.624ZM223.111 269H220.285L217.837 264.896L215.389 269H212.581L216.433 262.538L212.779 256.4H215.587L217.837 260.18L220.087 256.4H222.895L219.241 262.52L223.111 269Z" fill="white"/>
<g filter="url(#filter4_d_170_944)">
<circle cx="35.7891" cy="301" r="5" fill="url(#paint6_linear_170_944)"/>
<circle cx="35.7891" cy="301" r="4.25" stroke="white" stroke-width="1.5"/>
</g>
<path d="M71.0591 306L70.3031 303.732H65.2811L64.5251 306H61.8431L66.2531 293.4H69.3311L73.7591 306H71.0591ZM66.0731 301.41H69.5291L67.8011 296.262L66.0731 301.41ZM80.2625 296.748C81.4745 296.748 82.5065 297.21 83.3585 298.134C84.2225 299.046 84.6545 300.168 84.6545 301.5C84.6545 302.832 84.2225 303.96 83.3585 304.884C82.5065 305.796 81.4745 306.252 80.2625 306.252C79.0025 306.252 78.0305 305.814 77.3465 304.938V309.6H75.0245V297H77.3465V298.062C78.0305 297.186 79.0025 296.748 80.2625 296.748ZM78.0485 303.336C78.5165 303.804 79.1105 304.038 79.8305 304.038C80.5505 304.038 81.1445 303.804 81.6125 303.336C82.0925 302.856 82.3325 302.244 82.3325 301.5C82.3325 300.756 82.0925 300.15 81.6125 299.682C81.1445 299.202 80.5505 298.962 79.8305 298.962C79.1105 298.962 78.5165 299.202 78.0485 299.682C77.5805 300.15 77.3465 300.756 77.3465 301.5C77.3465 302.244 77.5805 302.856 78.0485 303.336ZM91.6801 296.748C92.8921 296.748 93.9241 297.21 94.7761 298.134C95.6401 299.046 96.0721 300.168 96.0721 301.5C96.0721 302.832 95.6401 303.96 94.7761 304.884C93.9241 305.796 92.8921 306.252 91.6801 306.252C90.4201 306.252 89.4481 305.814 88.7641 304.938V309.6H86.4421V297H88.7641V298.062C89.4481 297.186 90.4201 296.748 91.6801 296.748ZM89.4661 303.336C89.9341 303.804 90.5281 304.038 91.2481 304.038C91.9681 304.038 92.5621 303.804 93.0301 303.336C93.5101 302.856 93.7501 302.244 93.7501 301.5C93.7501 300.756 93.5101 300.15 93.0301 299.682C92.5621 299.202 91.9681 298.962 91.2481 298.962C90.5281 298.962 89.9341 299.202 89.4661 299.682C88.9981 300.15 88.7641 300.756 88.7641 301.5C88.7641 302.244 88.9981 302.856 89.4661 303.336ZM97.8597 306V292.86H100.182V306H97.8597ZM103.609 295.92C103.225 295.92 102.889 295.782 102.601 295.506C102.325 295.218 102.187 294.882 102.187 294.498C102.187 294.114 102.325 293.778 102.601 293.49C102.889 293.202 103.225 293.058 103.609 293.058C104.005 293.058 104.341 293.202 104.617 293.49C104.905 293.778 105.049 294.114 105.049 294.498C105.049 294.882 104.905 295.218 104.617 295.506C104.341 295.782 104.005 295.92 103.609 295.92ZM102.457 306V297H104.779V306H102.457ZM111.338 306.252C109.982 306.252 108.848 305.796 107.936 304.884C107.036 303.972 106.586 302.844 106.586 301.5C106.586 300.156 107.036 299.028 107.936 298.116C108.848 297.204 109.982 296.748 111.338 296.748C112.214 296.748 113.012 296.958 113.732 297.378C114.452 297.798 114.998 298.362 115.37 299.07L113.372 300.24C113.192 299.868 112.916 299.574 112.544 299.358C112.184 299.142 111.776 299.034 111.32 299.034C110.624 299.034 110.048 299.268 109.592 299.736C109.136 300.192 108.908 300.78 108.908 301.5C108.908 302.208 109.136 302.796 109.592 303.264C110.048 303.72 110.624 303.948 111.32 303.948C111.788 303.948 112.202 303.846 112.562 303.642C112.934 303.426 113.21 303.132 113.39 302.76L115.406 303.912C115.01 304.62 114.452 305.19 113.732 305.622C113.012 306.042 112.214 306.252 111.338 306.252ZM123.484 297H125.806V306H123.484V304.938C122.788 305.814 121.81 306.252 120.55 306.252C119.35 306.252 118.318 305.796 117.454 304.884C116.602 303.96 116.176 302.832 116.176 301.5C116.176 300.168 116.602 299.046 117.454 298.134C118.318 297.21 119.35 296.748 120.55 296.748C121.81 296.748 122.788 297.186 123.484 298.062V297ZM119.2 303.336C119.668 303.804 120.262 304.038 120.982 304.038C121.702 304.038 122.296 303.804 122.764 303.336C123.244 302.856 123.484 302.244 123.484 301.5C123.484 300.756 123.244 300.15 122.764 299.682C122.296 299.202 121.702 298.962 120.982 298.962C120.262 298.962 119.668 299.202 119.2 299.682C118.732 300.15 118.498 300.756 118.498 301.5C118.498 302.244 118.732 302.856 119.2 303.336ZM133.209 299.232H131.175V302.976C131.175 303.288 131.253 303.516 131.409 303.66C131.565 303.804 131.793 303.888 132.093 303.912C132.393 303.924 132.765 303.918 133.209 303.894V306C131.613 306.18 130.485 306.03 129.825 305.55C129.177 305.07 128.853 304.212 128.853 302.976V299.232H127.287V297H128.853V295.182L131.175 294.48V297H133.209V299.232ZM136.148 295.92C135.764 295.92 135.428 295.782 135.14 295.506C134.864 295.218 134.726 294.882 134.726 294.498C134.726 294.114 134.864 293.778 135.14 293.49C135.428 293.202 135.764 293.058 136.148 293.058C136.544 293.058 136.88 293.202 137.156 293.49C137.444 293.778 137.588 294.114 137.588 294.498C137.588 294.882 137.444 295.218 137.156 295.506C136.88 295.782 136.544 295.92 136.148 295.92ZM134.996 306V297H137.318V306H134.996ZM147.262 304.884C146.338 305.796 145.21 306.252 143.878 306.252C142.546 306.252 141.418 305.796 140.494 304.884C139.582 303.96 139.126 302.832 139.126 301.5C139.126 300.168 139.582 299.046 140.494 298.134C141.418 297.21 142.546 296.748 143.878 296.748C145.21 296.748 146.338 297.21 147.262 298.134C148.186 299.046 148.648 300.168 148.648 301.5C148.648 302.832 148.186 303.96 147.262 304.884ZM142.132 303.282C142.6 303.75 143.182 303.984 143.878 303.984C144.574 303.984 145.156 303.75 145.624 303.282C146.092 302.814 146.326 302.22 146.326 301.5C146.326 300.78 146.092 300.186 145.624 299.718C145.156 299.25 144.574 299.016 143.878 299.016C143.182 299.016 142.6 299.25 142.132 299.718C141.676 300.186 141.448 300.78 141.448 301.5C141.448 302.22 141.676 302.814 142.132 303.282ZM155.435 296.748C156.419 296.748 157.229 297.078 157.865 297.738C158.513 298.398 158.837 299.31 158.837 300.474V306H156.515V300.762C156.515 300.162 156.353 299.706 156.029 299.394C155.705 299.07 155.273 298.908 154.733 298.908C154.133 298.908 153.653 299.094 153.293 299.466C152.933 299.838 152.753 300.396 152.753 301.14V306H150.431V297H152.753V298.008C153.317 297.168 154.211 296.748 155.435 296.748ZM173.828 306L173.072 303.732H168.05L167.294 306H164.612L169.022 293.4H172.1L176.528 306H173.828ZM168.842 301.41H172.298L170.57 296.262L168.842 301.41ZM181.831 306.252C180.475 306.252 179.341 305.796 178.429 304.884C177.529 303.972 177.079 302.844 177.079 301.5C177.079 300.156 177.529 299.028 178.429 298.116C179.341 297.204 180.475 296.748 181.831 296.748C182.707 296.748 183.505 296.958 184.225 297.378C184.945 297.798 185.491 298.362 185.863 299.07L183.865 300.24C183.685 299.868 183.409 299.574 183.037 299.358C182.677 299.142 182.269 299.034 181.813 299.034C181.117 299.034 180.541 299.268 180.085 299.736C179.629 300.192 179.401 300.78 179.401 301.5C179.401 302.208 179.629 302.796 180.085 303.264C180.541 303.72 181.117 303.948 181.813 303.948C182.281 303.948 182.695 303.846 183.055 303.642C183.427 303.426 183.703 303.132 183.883 302.76L185.899 303.912C185.503 304.62 184.945 305.19 184.225 305.622C183.505 306.042 182.707 306.252 181.831 306.252ZM191.421 306.252C190.065 306.252 188.931 305.796 188.019 304.884C187.119 303.972 186.669 302.844 186.669 301.5C186.669 300.156 187.119 299.028 188.019 298.116C188.931 297.204 190.065 296.748 191.421 296.748C192.297 296.748 193.095 296.958 193.815 297.378C194.535 297.798 195.081 298.362 195.453 299.07L193.455 300.24C193.275 299.868 192.999 299.574 192.627 299.358C192.267 299.142 191.859 299.034 191.403 299.034C190.707 299.034 190.131 299.268 189.675 299.736C189.219 300.192 188.991 300.78 188.991 301.5C188.991 302.208 189.219 302.796 189.675 303.264C190.131 303.72 190.707 303.948 191.403 303.948C191.871 303.948 192.285 303.846 192.645 303.642C193.017 303.426 193.293 303.132 193.473 302.76L195.489 303.912C195.093 304.62 194.535 305.19 193.815 305.622C193.095 306.042 192.297 306.252 191.421 306.252ZM198.688 302.454C199 303.582 199.846 304.146 201.226 304.146C202.114 304.146 202.786 303.846 203.242 303.246L205.114 304.326C204.226 305.61 202.918 306.252 201.19 306.252C199.702 306.252 198.508 305.802 197.608 304.902C196.708 304.002 196.258 302.868 196.258 301.5C196.258 300.144 196.702 299.016 197.59 298.116C198.478 297.204 199.618 296.748 201.01 296.748C202.33 296.748 203.416 297.204 204.268 298.116C205.132 299.028 205.564 300.156 205.564 301.5C205.564 301.8 205.534 302.118 205.474 302.454H198.688ZM198.652 300.654H203.242C203.11 300.042 202.834 299.586 202.414 299.286C202.006 298.986 201.538 298.836 201.01 298.836C200.386 298.836 199.87 298.998 199.462 299.322C199.054 299.634 198.784 300.078 198.652 300.654ZM212.573 296.748C213.785 296.748 214.817 297.21 215.669 298.134C216.533 299.046 216.965 300.168 216.965 301.5C216.965 302.832 216.533 303.96 215.669 304.884C214.817 305.796 213.785 306.252 212.573 306.252C211.313 306.252 210.341 305.814 209.657 304.938V309.6H207.335V297H209.657V298.062C210.341 297.186 211.313 296.748 212.573 296.748ZM210.359 303.336C210.827 303.804 211.421 304.038 212.141 304.038C212.861 304.038 213.455 303.804 213.923 303.336C214.403 302.856 214.643 302.244 214.643 301.5C214.643 300.756 214.403 300.15 213.923 299.682C213.455 299.202 212.861 298.962 212.141 298.962C211.421 298.962 210.827 299.202 210.359 299.682C209.891 300.15 209.657 300.756 209.657 301.5C209.657 302.244 209.891 302.856 210.359 303.336ZM223.707 299.232H221.673V302.976C221.673 303.288 221.751 303.516 221.907 303.66C222.063 303.804 222.291 303.888 222.591 303.912C222.891 303.924 223.263 303.918 223.707 303.894V306C222.111 306.18 220.983 306.03 220.323 305.55C219.675 305.07 219.351 304.212 219.351 302.976V299.232H217.785V297H219.351V295.182L221.673 294.48V297H223.707V299.232ZM232.053 297H234.375V306H232.053V304.938C231.357 305.814 230.379 306.252 229.119 306.252C227.919 306.252 226.887 305.796 226.023 304.884C225.171 303.96 224.745 302.832 224.745 301.5C224.745 300.168 225.171 299.046 226.023 298.134C226.887 297.21 227.919 296.748 229.119 296.748C230.379 296.748 231.357 297.186 232.053 298.062V297ZM227.769 303.336C228.237 303.804 228.831 304.038 229.551 304.038C230.271 304.038 230.865 303.804 231.333 303.336C231.813 302.856 232.053 302.244 232.053 301.5C232.053 300.756 231.813 300.15 231.333 299.682C230.865 299.202 230.271 298.962 229.551 298.962C228.831 298.962 228.237 299.202 227.769 299.682C227.301 300.15 227.067 300.756 227.067 301.5C227.067 302.244 227.301 302.856 227.769 303.336ZM241.635 296.748C242.619 296.748 243.429 297.078 244.065 297.738C244.713 298.398 245.037 299.31 245.037 300.474V306H242.715V300.762C242.715 300.162 242.553 299.706 242.229 299.394C241.905 299.07 241.473 298.908 240.933 298.908C240.333 298.908 239.853 299.094 239.493 299.466C239.133 299.838 238.953 300.396 238.953 301.14V306H236.631V297H238.953V298.008C239.517 297.168 240.411 296.748 241.635 296.748ZM251.453 306.252C250.097 306.252 248.963 305.796 248.051 304.884C247.151 303.972 246.701 302.844 246.701 301.5C246.701 300.156 247.151 299.028 248.051 298.116C248.963 297.204 250.097 296.748 251.453 296.748C252.329 296.748 253.127 296.958 253.847 297.378C254.567 297.798 255.113 298.362 255.485 299.07L253.487 300.24C253.307 299.868 253.031 299.574 252.659 299.358C252.299 299.142 251.891 299.034 251.435 299.034C250.739 299.034 250.163 299.268 249.707 299.736C249.251 300.192 249.023 300.78 249.023 301.5C249.023 302.208 249.251 302.796 249.707 303.264C250.163 303.72 250.739 303.948 251.435 303.948C251.903 303.948 252.317 303.846 252.677 303.642C253.049 303.426 253.325 303.132 253.505 302.76L255.521 303.912C255.125 304.62 254.567 305.19 253.847 305.622C253.127 306.042 252.329 306.252 251.453 306.252ZM258.721 302.454C259.033 303.582 259.879 304.146 261.259 304.146C262.147 304.146 262.819 303.846 263.275 303.246L265.147 304.326C264.259 305.61 262.951 306.252 261.223 306.252C259.735 306.252 258.541 305.802 257.641 304.902C256.741 304.002 256.291 302.868 256.291 301.5C256.291 300.144 256.735 299.016 257.623 298.116C258.511 297.204 259.651 296.748 261.043 296.748C262.363 296.748 263.449 297.204 264.301 298.116C265.165 299.028 265.597 300.156 265.597 301.5C265.597 301.8 265.567 302.118 265.507 302.454H258.721ZM258.685 300.654H263.275C263.143 300.042 262.867 299.586 262.447 299.286C262.039 298.986 261.571 298.836 261.043 298.836C260.419 298.836 259.903 298.998 259.495 299.322C259.087 299.634 258.817 300.078 258.685 300.654ZM67.6931 317.38C66.4211 317.284 65.7851 317.794 65.7851 318.91V319H67.6931V321.232H65.7851V328H63.4631V321.232H62.1671V319H63.4631V318.91C63.4631 317.638 63.8171 316.672 64.5251 316.012C65.2331 315.352 66.2891 315.064 67.6931 315.148V317.38ZM76.2413 326.884C75.3173 327.796 74.1893 328.252 72.8573 328.252C71.5253 328.252 70.3973 327.796 69.4733 326.884C68.5613 325.96 68.1053 324.832 68.1053 323.5C68.1053 322.168 68.5613 321.046 69.4733 320.134C70.3973 319.21 71.5253 318.748 72.8573 318.748C74.1893 318.748 75.3173 319.21 76.2413 320.134C77.1653 321.046 77.6273 322.168 77.6273 323.5C77.6273 324.832 77.1653 325.96 76.2413 326.884ZM71.1113 325.282C71.5793 325.75 72.1613 325.984 72.8573 325.984C73.5533 325.984 74.1353 325.75 74.6033 325.282C75.0713 324.814 75.3053 324.22 75.3053 323.5C75.3053 322.78 75.0713 322.186 74.6033 321.718C74.1353 321.25 73.5533 321.016 72.8573 321.016C72.1613 321.016 71.5793 321.25 71.1113 321.718C70.6553 322.186 70.4273 322.78 70.4273 323.5C70.4273 324.22 70.6553 324.814 71.1113 325.282ZM81.7328 320.548C81.9488 319.972 82.3028 319.54 82.7948 319.252C83.2988 318.964 83.8568 318.82 84.4688 318.82V321.412C83.7608 321.328 83.1248 321.472 82.5608 321.844C82.0088 322.216 81.7328 322.834 81.7328 323.698V328H79.4108V319H81.7328V320.548ZM93.2188 325.624H98.0248V328H90.7348V315.4H93.2188V325.624ZM106.142 319H108.464V328H106.142V326.938C105.446 327.814 104.468 328.252 103.208 328.252C102.008 328.252 100.976 327.796 100.112 326.884C99.2602 325.96 98.8342 324.832 98.8342 323.5C98.8342 322.168 99.2602 321.046 100.112 320.134C100.976 319.21 102.008 318.748 103.208 318.748C104.468 318.748 105.446 319.186 106.142 320.062V319ZM101.858 325.336C102.326 325.804 102.92 326.038 103.64 326.038C104.36 326.038 104.954 325.804 105.422 325.336C105.902 324.856 106.142 324.244 106.142 323.5C106.142 322.756 105.902 322.15 105.422 321.682C104.954 321.202 104.36 320.962 103.64 320.962C102.92 320.962 102.326 321.202 101.858 321.682C101.39 322.15 101.156 322.756 101.156 323.5C101.156 324.244 101.39 324.856 101.858 325.336ZM116.66 319H118.982V328H116.66V326.992C116.096 327.832 115.202 328.252 113.978 328.252C112.994 328.252 112.178 327.922 111.53 327.262C110.894 326.602 110.576 325.69 110.576 324.526V319H112.898V324.238C112.898 324.838 113.06 325.3 113.384 325.624C113.708 325.936 114.14 326.092 114.68 326.092C115.28 326.092 115.76 325.906 116.12 325.534C116.48 325.162 116.66 324.604 116.66 323.86V319ZM126.262 318.748C127.246 318.748 128.056 319.078 128.692 319.738C129.34 320.398 129.664 321.31 129.664 322.474V328H127.342V322.762C127.342 322.162 127.18 321.706 126.856 321.394C126.532 321.07 126.1 320.908 125.56 320.908C124.96 320.908 124.48 321.094 124.12 321.466C123.76 321.838 123.58 322.396 123.58 323.14V328H121.258V319H123.58V320.008C124.144 319.168 125.038 318.748 126.262 318.748ZM136.081 328.252C134.725 328.252 133.591 327.796 132.679 326.884C131.779 325.972 131.329 324.844 131.329 323.5C131.329 322.156 131.779 321.028 132.679 320.116C133.591 319.204 134.725 318.748 136.081 318.748C136.957 318.748 137.755 318.958 138.475 319.378C139.195 319.798 139.741 320.362 140.113 321.07L138.115 322.24C137.935 321.868 137.659 321.574 137.287 321.358C136.927 321.142 136.519 321.034 136.063 321.034C135.367 321.034 134.791 321.268 134.335 321.736C133.879 322.192 133.651 322.78 133.651 323.5C133.651 324.208 133.879 324.796 134.335 325.264C134.791 325.72 135.367 325.948 136.063 325.948C136.531 325.948 136.945 325.846 137.305 325.642C137.677 325.426 137.953 325.132 138.133 324.76L140.149 325.912C139.753 326.62 139.195 327.19 138.475 327.622C137.755 328.042 136.957 328.252 136.081 328.252ZM146.531 318.748C147.515 318.748 148.325 319.078 148.961 319.738C149.609 320.398 149.933 321.31 149.933 322.474V328H147.611V322.762C147.611 322.162 147.449 321.706 147.125 321.394C146.801 321.07 146.369 320.908 145.829 320.908C145.229 320.908 144.749 321.094 144.389 321.466C144.029 321.838 143.849 322.396 143.849 323.14V328H141.527V315.4H143.849V320.008C144.413 319.168 145.307 318.748 146.531 318.748ZM157.304 318.748C158.516 318.748 159.548 319.21 160.4 320.134C161.264 321.046 161.696 322.168 161.696 323.5C161.696 324.832 161.264 325.96 160.4 326.884C159.548 327.796 158.516 328.252 157.304 328.252C156.044 328.252 155.072 327.814 154.388 326.938V331.6H152.066V319H154.388V320.062C155.072 319.186 156.044 318.748 157.304 318.748ZM155.09 325.336C155.558 325.804 156.152 326.038 156.872 326.038C157.592 326.038 158.186 325.804 158.654 325.336C159.134 324.856 159.374 324.244 159.374 323.5C159.374 322.756 159.134 322.15 158.654 321.682C158.186 321.202 157.592 320.962 156.872 320.962C156.152 320.962 155.558 321.202 155.09 321.682C154.622 322.15 154.388 322.756 154.388 323.5C154.388 324.244 154.622 324.856 155.09 325.336ZM170.323 319H172.645V328H170.323V326.938C169.627 327.814 168.649 328.252 167.389 328.252C166.189 328.252 165.157 327.796 164.293 326.884C163.441 325.96 163.015 324.832 163.015 323.5C163.015 322.168 163.441 321.046 164.293 320.134C165.157 319.21 166.189 318.748 167.389 318.748C168.649 318.748 169.627 319.186 170.323 320.062V319ZM166.039 325.336C166.507 325.804 167.101 326.038 167.821 326.038C168.541 326.038 169.135 325.804 169.603 325.336C170.083 324.856 170.323 324.244 170.323 323.5C170.323 322.756 170.083 322.15 169.603 321.682C169.135 321.202 168.541 320.962 167.821 320.962C167.101 320.962 166.507 321.202 166.039 321.682C165.571 322.15 165.337 322.756 165.337 323.5C165.337 324.244 165.571 324.856 166.039 325.336ZM181.723 315.4H184.045V328H181.723V326.938C181.039 327.814 180.067 328.252 178.807 328.252C177.595 328.252 176.557 327.796 175.693 326.884C174.841 325.96 174.415 324.832 174.415 323.5C174.415 322.168 174.841 321.046 175.693 320.134C176.557 319.21 177.595 318.748 178.807 318.748C180.067 318.748 181.039 319.186 181.723 320.062V315.4ZM177.439 325.336C177.919 325.804 178.519 326.038 179.239 326.038C179.959 326.038 180.553 325.804 181.021 325.336C181.489 324.856 181.723 324.244 181.723 323.5C181.723 322.756 181.489 322.15 181.021 321.682C180.553 321.202 179.959 320.962 179.239 320.962C178.519 320.962 177.919 321.202 177.439 321.682C176.971 322.15 176.737 322.756 176.737 323.5C176.737 324.244 176.971 324.856 177.439 325.336ZM195.775 315.4C196.987 315.4 198.007 315.808 198.835 316.624C199.663 317.44 200.077 318.442 200.077 319.63C200.077 320.818 199.663 321.82 198.835 322.636C198.007 323.452 196.987 323.86 195.775 323.86H193.561V328H191.077V315.4H195.775ZM195.775 321.538C196.303 321.538 196.741 321.358 197.089 320.998C197.437 320.626 197.611 320.17 197.611 319.63C197.611 319.078 197.437 318.622 197.089 318.262C196.741 317.902 196.303 317.722 195.775 317.722H193.561V321.538H195.775ZM203.864 320.548C204.08 319.972 204.434 319.54 204.926 319.252C205.43 318.964 205.988 318.82 206.6 318.82V321.412C205.892 321.328 205.256 321.472 204.692 321.844C204.14 322.216 203.864 322.834 203.864 323.698V328H201.542V319H203.864V320.548ZM215.442 326.884C214.518 327.796 213.39 328.252 212.058 328.252C210.726 328.252 209.598 327.796 208.674 326.884C207.762 325.96 207.306 324.832 207.306 323.5C207.306 322.168 207.762 321.046 208.674 320.134C209.598 319.21 210.726 318.748 212.058 318.748C213.39 318.748 214.518 319.21 215.442 320.134C216.366 321.046 216.828 322.168 216.828 323.5C216.828 324.832 216.366 325.96 215.442 326.884ZM210.312 325.282C210.78 325.75 211.362 325.984 212.058 325.984C212.754 325.984 213.336 325.75 213.804 325.282C214.272 324.814 214.506 324.22 214.506 323.5C214.506 322.78 214.272 322.186 213.804 321.718C213.336 321.25 212.754 321.016 212.058 321.016C211.362 321.016 210.78 321.25 210.312 321.718C209.856 322.186 209.628 322.78 209.628 323.5C209.628 324.22 209.856 324.814 210.312 325.282ZM219.824 317.92C219.428 317.92 219.086 317.782 218.798 317.506C218.522 317.218 218.384 316.882 218.384 316.498C218.384 316.114 218.522 315.778 218.798 315.49C219.086 315.202 219.428 315.058 219.824 315.058C220.208 315.058 220.538 315.202 220.814 315.49C221.102 315.778 221.246 316.114 221.246 316.498C221.246 316.882 221.102 317.218 220.814 317.506C220.538 317.782 220.208 317.92 219.824 317.92ZM218.654 328.18V319H220.976V328.18C220.976 329.5 220.652 330.46 220.004 331.06C219.368 331.672 218.384 331.936 217.052 331.852V329.62C217.604 329.656 218.006 329.56 218.258 329.332C218.522 329.104 218.654 328.72 218.654 328.18ZM225.206 324.454C225.518 325.582 226.364 326.146 227.744 326.146C228.632 326.146 229.304 325.846 229.76 325.246L231.632 326.326C230.744 327.61 229.436 328.252 227.708 328.252C226.22 328.252 225.026 327.802 224.126 326.902C223.226 326.002 222.776 324.868 222.776 323.5C222.776 322.144 223.22 321.016 224.108 320.116C224.996 319.204 226.136 318.748 227.528 318.748C228.848 318.748 229.934 319.204 230.786 320.116C231.65 321.028 232.082 322.156 232.082 323.5C232.082 323.8 232.052 324.118 231.992 324.454H225.206ZM225.17 322.654H229.76C229.628 322.042 229.352 321.586 228.932 321.286C228.524 320.986 228.056 320.836 227.528 320.836C226.904 320.836 226.388 320.998 225.98 321.322C225.572 321.634 225.302 322.078 225.17 322.654ZM238.067 328.252C236.711 328.252 235.577 327.796 234.665 326.884C233.765 325.972 233.315 324.844 233.315 323.5C233.315 322.156 233.765 321.028 234.665 320.116C235.577 319.204 236.711 318.748 238.067 318.748C238.943 318.748 239.741 318.958 240.461 319.378C241.181 319.798 241.727 320.362 242.099 321.07L240.101 322.24C239.921 321.868 239.645 321.574 239.273 321.358C238.913 321.142 238.505 321.034 238.049 321.034C237.353 321.034 236.777 321.268 236.321 321.736C235.865 322.192 235.637 322.78 235.637 323.5C235.637 324.208 235.865 324.796 236.321 325.264C236.777 325.72 237.353 325.948 238.049 325.948C238.517 325.948 238.931 325.846 239.291 325.642C239.663 325.426 239.939 325.132 240.119 324.76L242.135 325.912C241.739 326.62 241.181 327.19 240.461 327.622C239.741 328.042 238.943 328.252 238.067 328.252ZM248.661 321.232H246.627V324.976C246.627 325.288 246.705 325.516 246.861 325.66C247.017 325.804 247.245 325.888 247.545 325.912C247.845 325.924 248.217 325.918 248.661 325.894V328C247.065 328.18 245.937 328.03 245.277 327.55C244.629 327.07 244.305 326.212 244.305 324.976V321.232H242.739V319H244.305V317.182L246.627 316.48V319H248.661V321.232ZM252.397 321.556C252.397 321.796 252.553 321.994 252.865 322.15C253.189 322.294 253.579 322.426 254.035 322.546C254.491 322.654 254.947 322.798 255.403 322.978C255.859 323.146 256.243 323.434 256.555 323.842C256.879 324.25 257.041 324.76 257.041 325.372C257.041 326.296 256.693 327.01 255.997 327.514C255.313 328.006 254.455 328.252 253.423 328.252C251.575 328.252 250.315 327.538 249.643 326.11L251.659 324.976C251.923 325.756 252.511 326.146 253.423 326.146C254.251 326.146 254.665 325.888 254.665 325.372C254.665 325.132 254.503 324.94 254.179 324.796C253.867 324.64 253.483 324.502 253.027 324.382C252.571 324.262 252.115 324.112 251.659 323.932C251.203 323.752 250.813 323.47 250.489 323.086C250.177 322.69 250.021 322.198 250.021 321.61C250.021 320.722 250.345 320.026 250.993 319.522C251.653 319.006 252.469 318.748 253.441 318.748C254.173 318.748 254.839 318.916 255.439 319.252C256.039 319.576 256.513 320.044 256.861 320.656L254.881 321.736C254.593 321.124 254.113 320.818 253.441 320.818C253.141 320.818 252.889 320.884 252.685 321.016C252.493 321.148 252.397 321.328 252.397 321.556Z" fill="white"/>
<defs>
<filter id="filter0_b_170_944" x="-1.21094" y="44" width="302" height="325" filterUnits="userSpaceOnUse" color-interpolation-filters="sRGB">
<feFlood flood-opacity="0" result="BackgroundImageFix"/>
<feGaussianBlur in="BackgroundImageFix" stdDeviation="3"/>
<feComposite in2="SourceAlpha" operator="in" result="effect1_backgroundBlur_170_944"/>
<feBlend mode="normal" in="SourceGraphic" in2="effect1_backgroundBlur_170_944" result="shape"/>
</filter>
<filter id="filter1_d_170_944" x="0.789062" y="153" width="70" height="70" filterUnits="userSpaceOnUse" color-interpolation-filters="sRGB">
<feFlood flood-opacity="0" result="BackgroundImageFix"/>
<feColorMatrix in="SourceAlpha" type="matrix" values="0 0 0 0 0 0 0 0 0 0 0 0 0 0 0 0 0 0 127 0" result="hardAlpha"/>
<feOffset/>
<feGaussianBlur stdDeviation="15"/>
<feComposite in2="hardAlpha" operator="out"/>
<feColorMatrix type="matrix" values="0 0 0 0 0.517647 0 0 0 0 0.145098 0 0 0 0 0.984314 0 0 0 1 0"/>
<feBlend mode="normal" in2="BackgroundImageFix" result="effect1_dropShadow_170_944"/>
<feBlend mode="normal" in="SourceGraphic" in2="effect1_dropShadow_170_944" result="shape"/>
</filter>
<filter id="filter2_d_170_944" x="0.789062" y="191" width="70" height="70" filterUnits="userSpaceOnUse" color-interpolation-filters="sRGB">
<feFlood flood-opacity="0" result="BackgroundImageFix"/>
<feColorMatrix in="SourceAlpha" type="matrix" values="0 0 0 0 0 0 0 0 0 0 0 0 0 0 0 0 0 0 127 0" result="hardAlpha"/>
<feOffset/>
<feGaussianBlur stdDeviation="15"/>
<feComposite in2="hardAlpha" operator="out"/>
<feColorMatrix type="matrix" values="0 0 0 0 0.517647 0 0 0 0 0.145098 0 0 0 0 0.984314 0 0 0 1 0"/>
<feBlend mode="normal" in2="BackgroundImageFix" result="effect1_dropShadow_170_944"/>
<feBlend mode="normal" in="SourceGraphic" in2="effect1_dropShadow_170_944" result="shape"/>
</filter>
<filter id="filter3_d_170_944" x="0.789062" y="229" width="70" height="70" filterUnits="userSpaceOnUse" color-interpolation-filters="sRGB">
<feFlood flood-opacity="0" result="BackgroundImageFix"/>
<feColorMatrix in="SourceAlpha" type="matrix" values="0 0 0 0 0 0 0 0 0 0 0 0 0 0 0 0 0 0 127 0" result="hardAlpha"/>
<feOffset/>
<feGaussianBlur stdDeviation="15"/>
<feComposite in2="hardAlpha" operator="out"/>
<feColorMatrix type="matrix" values="0 0 0 0 0.517647 0 0 0 0 0.145098 0 0 0 0 0.984314 0 0 0 1 0"/>
<feBlend mode="normal" in2="BackgroundImageFix" result="effect1_dropShadow_170_944"/>
<feBlend mode="normal" in="SourceGraphic" in2="effect1_dropShadow_170_944" result="shape"/>
</filter>
<filter id="filter4_d_170_944" x="0.789062" y="266" width="70" height="70" filterUnits="userSpaceOnUse" color-interpolation-filters="sRGB">
<feFlood flood-opacity="0" result="BackgroundImageFix"/>
<feColorMatrix in="SourceAlpha" type="matrix" values="0 0 0 0 0 0 0 0 0 0 0 0 0 0 0 0 0 0 127 0" result="hardAlpha"/>
<feOffset/>
<feGaussianBlur stdDeviation="15"/>
<feComposite in2="hardAlpha" operator="out"/>
<feColorMatrix type="matrix" values="0 0 0 0 0.517647 0 0 0 0 0.145098 0 0 0 0 0.984314 0 0 0 1 0"/>
<feBlend mode="normal" in2="BackgroundImageFix" result="effect1_dropShadow_170_944"/>
<feBlend mode="normal" in="SourceGraphic" in2="effect1_dropShadow_170_944" result="shape"/>
</filter>
<linearGradient id="paint0_linear_170_944" x1="149.789" y1="26.6057" x2="149.789" y2="92.7552" gradientUnits="userSpaceOnUse">
<stop stop-color="#272C4B"/>
<stop offset="1" stop-color="#272C4B" stop-opacity="0"/>
</linearGradient>
<linearGradient id="paint1_linear_170_944" x1="100" y1="-19.0909" x2="216.247" y2="-9.95245" gradientUnits="userSpaceOnUse">
<stop stop-color="#8A2CFF"/>
<stop offset="1" stop-color="#6B05EA"/>
</linearGradient>
<linearGradient id="paint2_linear_170_944" x1="150" y1="0" x2="150" y2="15.4545" gradientUnits="userSpaceOnUse">
<stop stop-color="#8F34FF"/>
<stop offset="1" stop-color="#8F34FF" stop-opacity="0"/>
</linearGradient>
<linearGradient id="paint3_linear_170_944" x1="30.7891" y1="181.091" x2="42.4137" y2="182.005" gradientUnits="userSpaceOnUse">
<stop stop-color="#8A2CFF"/>
<stop offset="1" stop-color="#6B05EA"/>
</linearGradient>
<linearGradient id="paint4_linear_170_944" x1="30.7891" y1="219.091" x2="42.4137" y2="220.005" gradientUnits="userSpaceOnUse">
<stop stop-color="#8A2CFF"/>
<stop offset="1" stop-color="#6B05EA"/>
</linearGradient>
<linearGradient id="paint5_linear_170_944" x1="30.7891" y1="257.091" x2="42.4137" y2="258.005" gradientUnits="userSpaceOnUse">
<stop stop-color="#8A2CFF"/>
<stop offset="1" stop-color="#6B05EA"/>
</linearGradient>
<linearGradient id="paint6_linear_170_944" x1="30.7891" y1="294.091" x2="42.4137" y2="295.005" gradientUnits="userSpaceOnUse">
<stop stop-color="#8A2CFF"/>
<stop offset="1" stop-color="#6B05EA"/>
</linearGradient>
</defs>
</svg>
