<svg width="294" height="252" viewBox="0 0 294 252" fill="none" xmlns="http://www.w3.org/2000/svg">
<g filter="url(#filter0_b_170_873)">
<rect x="4" y="50" width="290" height="202" rx="12" fill="#323751" fill-opacity="0.3"/>
<rect x="5" y="51" width="288" height="200" rx="11" stroke="url(#paint0_linear_170_873)" stroke-width="2"/>
</g>
<circle cx="149.211" cy="50" r="50" fill="#1F1C3F" fill-opacity="0.6"/>
<circle cx="149.211" cy="50" r="47.5" stroke="#272C4B" stroke-opacity="0.3" stroke-width="5"/>
<path d="M148.978 46.42C151.941 46.42 154.434 47.3147 156.458 49.104C158.482 50.864 159.494 53.328 159.494 56.496C159.494 59.664 158.424 62.1427 156.282 63.932C154.17 65.7213 151.574 66.616 148.494 66.616C146.001 66.616 143.801 66.0587 141.894 64.944C139.988 63.8293 138.609 62.1867 137.758 60.016L142.95 56.98C143.713 59.444 145.561 60.676 148.494 60.676C150.049 60.676 151.252 60.3093 152.102 59.576C152.982 58.8133 153.422 57.7867 153.422 56.496C153.422 55.2347 152.997 54.2227 152.146 53.46C151.296 52.6973 150.137 52.316 148.67 52.316H139.342L140.574 35.2H158.042V40.876H146.206L145.81 46.42H148.978Z" fill="#3C3868"/>
<path d="M64.654 192.624H69.46V195H62.17V182.4H64.654V192.624ZM77.5774 186H79.8994V195H77.5774V193.938C76.8814 194.814 75.9034 195.252 74.6434 195.252C73.4434 195.252 72.4114 194.796 71.5474 193.884C70.6954 192.96 70.2694 191.832 70.2694 190.5C70.2694 189.168 70.6954 188.046 71.5474 187.134C72.4114 186.21 73.4434 185.748 74.6434 185.748C75.9034 185.748 76.8814 186.186 77.5774 187.062V186ZM73.2934 192.336C73.7614 192.804 74.3554 193.038 75.0754 193.038C75.7954 193.038 76.3894 192.804 76.8574 192.336C77.3374 191.856 77.5774 191.244 77.5774 190.5C77.5774 189.756 77.3374 189.15 76.8574 188.682C76.3894 188.202 75.7954 187.962 75.0754 187.962C74.3554 187.962 73.7614 188.202 73.2934 188.682C72.8254 189.15 72.5914 189.756 72.5914 190.5C72.5914 191.244 72.8254 191.856 73.2934 192.336ZM88.095 186H90.417V195H88.095V193.992C87.531 194.832 86.637 195.252 85.413 195.252C84.429 195.252 83.613 194.922 82.965 194.262C82.329 193.602 82.011 192.69 82.011 191.526V186H84.333V191.238C84.333 191.838 84.495 192.3 84.819 192.624C85.143 192.936 85.575 193.092 86.115 193.092C86.715 193.092 87.195 192.906 87.555 192.534C87.915 192.162 88.095 191.604 88.095 190.86V186ZM97.6976 185.748C98.6816 185.748 99.4916 186.078 100.128 186.738C100.776 187.398 101.1 188.31 101.1 189.474V195H98.7776V189.762C98.7776 189.162 98.6156 188.706 98.2916 188.394C97.9676 188.07 97.5356 187.908 96.9956 187.908C96.3956 187.908 95.9156 188.094 95.5556 188.466C95.1956 188.838 95.0156 189.396 95.0156 190.14V195H92.6936V186H95.0156V187.008C95.5796 186.168 96.4736 185.748 97.6976 185.748ZM107.516 195.252C106.16 195.252 105.026 194.796 104.114 193.884C103.214 192.972 102.764 191.844 102.764 190.5C102.764 189.156 103.214 188.028 104.114 187.116C105.026 186.204 106.16 185.748 107.516 185.748C108.392 185.748 109.19 185.958 109.91 186.378C110.63 186.798 111.176 187.362 111.548 188.07L109.55 189.24C109.37 188.868 109.094 188.574 108.722 188.358C108.362 188.142 107.954 188.034 107.498 188.034C106.802 188.034 106.226 188.268 105.77 188.736C105.314 189.192 105.086 189.78 105.086 190.5C105.086 191.208 105.314 191.796 105.77 192.264C106.226 192.72 106.802 192.948 107.498 192.948C107.966 192.948 108.38 192.846 108.74 192.642C109.112 192.426 109.388 192.132 109.568 191.76L111.584 192.912C111.188 193.62 110.63 194.19 109.91 194.622C109.19 195.042 108.392 195.252 107.516 195.252ZM117.966 185.748C118.95 185.748 119.76 186.078 120.396 186.738C121.044 187.398 121.368 188.31 121.368 189.474V195H119.046V189.762C119.046 189.162 118.884 188.706 118.56 188.394C118.236 188.07 117.804 187.908 117.264 187.908C116.664 187.908 116.184 188.094 115.824 188.466C115.464 188.838 115.284 189.396 115.284 190.14V195H112.962V182.4H115.284V187.008C115.848 186.168 116.742 185.748 117.966 185.748ZM124.653 184.92C124.269 184.92 123.933 184.782 123.645 184.506C123.369 184.218 123.231 183.882 123.231 183.498C123.231 183.114 123.369 182.778 123.645 182.49C123.933 182.202 124.269 182.058 124.653 182.058C125.049 182.058 125.385 182.202 125.661 182.49C125.949 182.778 126.093 183.114 126.093 183.498C126.093 183.882 125.949 184.218 125.661 184.506C125.385 184.782 125.049 184.92 124.653 184.92ZM123.501 195V186H125.823V195H123.501ZM133.102 185.748C134.086 185.748 134.896 186.078 135.532 186.738C136.18 187.398 136.504 188.31 136.504 189.474V195H134.182V189.762C134.182 189.162 134.02 188.706 133.696 188.394C133.372 188.07 132.94 187.908 132.4 187.908C131.8 187.908 131.32 188.094 130.96 188.466C130.6 188.838 130.42 189.396 130.42 190.14V195H128.098V186H130.42V187.008C130.984 186.168 131.878 185.748 133.102 185.748ZM145.531 186H147.799V194.568C147.799 195.96 147.337 197.022 146.413 197.754C145.501 198.486 144.397 198.852 143.101 198.852C142.129 198.852 141.271 198.666 140.527 198.294C139.795 197.922 139.231 197.376 138.835 196.656L140.815 195.522C141.271 196.362 142.057 196.782 143.173 196.782C143.905 196.782 144.481 196.59 144.901 196.206C145.321 195.822 145.531 195.276 145.531 194.568V193.596C144.847 194.508 143.887 194.964 142.651 194.964C141.379 194.964 140.311 194.52 139.447 193.632C138.595 192.732 138.169 191.64 138.169 190.356C138.169 189.084 138.601 187.998 139.465 187.098C140.329 186.198 141.391 185.748 142.651 185.748C143.887 185.748 144.847 186.204 145.531 187.116V186ZM141.193 192.138C141.673 192.594 142.279 192.822 143.011 192.822C143.743 192.822 144.343 192.594 144.811 192.138C145.291 191.67 145.531 191.076 145.531 190.356C145.531 189.648 145.291 189.066 144.811 188.61C144.343 188.142 143.743 187.908 143.011 187.908C142.279 187.908 141.673 188.142 141.193 188.61C140.725 189.066 140.491 189.648 140.491 190.356C140.491 191.076 140.725 191.67 141.193 192.138ZM160.573 186H163.057L159.781 195C159.313 196.296 158.689 197.232 157.909 197.808C157.141 198.396 156.181 198.66 155.029 198.6V196.44C155.653 196.452 156.145 196.32 156.505 196.044C156.877 195.768 157.171 195.324 157.387 194.712L153.697 186H156.235L158.575 192.048L160.573 186ZM171.628 193.884C170.704 194.796 169.576 195.252 168.244 195.252C166.912 195.252 165.784 194.796 164.86 193.884C163.948 192.96 163.492 191.832 163.492 190.5C163.492 189.168 163.948 188.046 164.86 187.134C165.784 186.21 166.912 185.748 168.244 185.748C169.576 185.748 170.704 186.21 171.628 187.134C172.552 188.046 173.014 189.168 173.014 190.5C173.014 191.832 172.552 192.96 171.628 193.884ZM166.498 192.282C166.966 192.75 167.548 192.984 168.244 192.984C168.94 192.984 169.522 192.75 169.99 192.282C170.458 191.814 170.692 191.22 170.692 190.5C170.692 189.78 170.458 189.186 169.99 188.718C169.522 188.25 168.94 188.016 168.244 188.016C167.548 188.016 166.966 188.25 166.498 188.718C166.042 189.186 165.814 189.78 165.814 190.5C165.814 191.22 166.042 191.814 166.498 192.282ZM180.738 186H183.06V195H180.738V193.992C180.174 194.832 179.28 195.252 178.056 195.252C177.072 195.252 176.256 194.922 175.608 194.262C174.972 193.602 174.654 192.69 174.654 191.526V186H176.976V191.238C176.976 191.838 177.138 192.3 177.462 192.624C177.786 192.936 178.218 193.092 178.758 193.092C179.358 193.092 179.838 192.906 180.198 192.534C180.558 192.162 180.738 191.604 180.738 190.86V186ZM187.658 187.548C187.874 186.972 188.228 186.54 188.72 186.252C189.224 185.964 189.782 185.82 190.394 185.82V188.412C189.686 188.328 189.05 188.472 188.486 188.844C187.934 189.216 187.658 189.834 187.658 190.698V195H185.336V186H187.658V187.548ZM204.22 193.884C203.296 194.796 202.168 195.252 200.836 195.252C199.504 195.252 198.376 194.796 197.452 193.884C196.54 192.96 196.084 191.832 196.084 190.5C196.084 189.168 196.54 188.046 197.452 187.134C198.376 186.21 199.504 185.748 200.836 185.748C202.168 185.748 203.296 186.21 204.22 187.134C205.144 188.046 205.606 189.168 205.606 190.5C205.606 191.832 205.144 192.96 204.22 193.884ZM199.09 192.282C199.558 192.75 200.14 192.984 200.836 192.984C201.532 192.984 202.114 192.75 202.582 192.282C203.05 191.814 203.284 191.22 203.284 190.5C203.284 189.78 203.05 189.186 202.582 188.718C202.114 188.25 201.532 188.016 200.836 188.016C200.14 188.016 199.558 188.25 199.09 188.718C198.634 189.186 198.406 189.78 198.406 190.5C198.406 191.22 198.634 191.814 199.09 192.282ZM217.172 186H219.638L216.776 195H214.562L212.906 189.546L211.25 195H209.036L206.174 186H208.64L210.17 191.526L211.808 186H214.004L215.642 191.544L217.172 186ZM226.044 185.748C227.028 185.748 227.838 186.078 228.474 186.738C229.122 187.398 229.446 188.31 229.446 189.474V195H227.124V189.762C227.124 189.162 226.962 188.706 226.638 188.394C226.314 188.07 225.882 187.908 225.342 187.908C224.742 187.908 224.262 188.094 223.902 188.466C223.542 188.838 223.362 189.396 223.362 190.14V195H221.04V186H223.362V187.008C223.926 186.168 224.82 185.748 226.044 185.748ZM70.27 217L69.514 214.732H64.492L63.736 217H61.054L65.464 204.4H68.542L72.97 217H70.27ZM65.284 212.41H68.74L67.012 207.262L65.284 212.41ZM81.2554 217L78.7174 212.626H76.8274V217H74.3434V204.4H79.3834C80.5474 204.4 81.5374 204.808 82.3534 205.624C83.1694 206.44 83.5774 207.424 83.5774 208.576C83.5774 209.356 83.3554 210.082 82.9114 210.754C82.4674 211.414 81.8794 211.912 81.1474 212.248L83.9374 217H81.2554ZM76.8274 206.722V210.448H79.3834C79.8514 210.448 80.2534 210.268 80.5894 209.908C80.9254 209.536 81.0934 209.092 81.0934 208.576C81.0934 208.06 80.9254 207.622 80.5894 207.262C80.2534 206.902 79.8514 206.722 79.3834 206.722H76.8274ZM96.9861 208H99.2541V216.568C99.2541 217.96 98.7921 219.022 97.8681 219.754C96.9561 220.486 95.8521 220.852 94.5561 220.852C93.5841 220.852 92.7261 220.666 91.9821 220.294C91.2501 219.922 90.6861 219.376 90.2901 218.656L92.2701 217.522C92.7261 218.362 93.5121 218.782 94.6281 218.782C95.3601 218.782 95.9361 218.59 96.3561 218.206C96.7761 217.822 96.9861 217.276 96.9861 216.568V215.596C96.3021 216.508 95.3421 216.964 94.1061 216.964C92.8341 216.964 91.7661 216.52 90.9021 215.632C90.0501 214.732 89.6241 213.64 89.6241 212.356C89.6241 211.084 90.0561 209.998 90.9201 209.098C91.7841 208.198 92.8461 207.748 94.1061 207.748C95.3421 207.748 96.3021 208.204 96.9861 209.116V208ZM92.6481 214.138C93.1281 214.594 93.7341 214.822 94.4661 214.822C95.1981 214.822 95.7981 214.594 96.2661 214.138C96.7461 213.67 96.9861 213.076 96.9861 212.356C96.9861 211.648 96.7461 211.066 96.2661 210.61C95.7981 210.142 95.1981 209.908 94.4661 209.908C93.7341 209.908 93.1281 210.142 92.6481 210.61C92.1801 211.066 91.9461 211.648 91.9461 212.356C91.9461 213.076 92.1801 213.67 92.6481 214.138ZM108.35 208H110.672V217H108.35V215.938C107.654 216.814 106.676 217.252 105.416 217.252C104.216 217.252 103.184 216.796 102.32 215.884C101.468 214.96 101.042 213.832 101.042 212.5C101.042 211.168 101.468 210.046 102.32 209.134C103.184 208.21 104.216 207.748 105.416 207.748C106.676 207.748 107.654 208.186 108.35 209.062V208ZM104.066 214.336C104.534 214.804 105.128 215.038 105.848 215.038C106.568 215.038 107.162 214.804 107.63 214.336C108.11 213.856 108.35 213.244 108.35 212.5C108.35 211.756 108.11 211.15 107.63 210.682C107.162 210.202 106.568 209.962 105.848 209.962C105.128 209.962 104.534 210.202 104.066 210.682C103.598 211.15 103.364 211.756 103.364 212.5C103.364 213.244 103.598 213.856 104.066 214.336ZM122.881 207.748C123.913 207.748 124.735 208.084 125.347 208.756C125.971 209.428 126.283 210.328 126.283 211.456V217H123.961V211.618C123.961 211.078 123.829 210.658 123.565 210.358C123.301 210.058 122.929 209.908 122.449 209.908C121.921 209.908 121.507 210.082 121.207 210.43C120.919 210.778 120.775 211.282 120.775 211.942V217H118.453V211.618C118.453 211.078 118.321 210.658 118.057 210.358C117.793 210.058 117.421 209.908 116.941 209.908C116.425 209.908 116.011 210.082 115.699 210.43C115.399 210.778 115.249 211.282 115.249 211.942V217H112.927V208H115.249V208.954C115.789 208.15 116.623 207.748 117.751 207.748C118.855 207.748 119.671 208.18 120.199 209.044C120.799 208.18 121.693 207.748 122.881 207.748ZM130.367 213.454C130.679 214.582 131.525 215.146 132.905 215.146C133.793 215.146 134.465 214.846 134.921 214.246L136.793 215.326C135.905 216.61 134.597 217.252 132.869 217.252C131.381 217.252 130.187 216.802 129.287 215.902C128.387 215.002 127.937 213.868 127.937 212.5C127.937 211.144 128.381 210.016 129.269 209.116C130.157 208.204 131.297 207.748 132.689 207.748C134.009 207.748 135.095 208.204 135.947 209.116C136.811 210.028 137.243 211.156 137.243 212.5C137.243 212.8 137.213 213.118 137.153 213.454H130.367ZM130.331 211.654H134.921C134.789 211.042 134.513 210.586 134.093 210.286C133.685 209.986 133.217 209.836 132.689 209.836C132.065 209.836 131.549 209.998 131.141 210.322C130.733 210.634 130.463 211.078 130.331 211.654Z" fill="white"/>
<g filter="url(#filter1_d_170_873)">
<circle cx="35" cy="188" r="5" fill="url(#paint1_linear_170_873)"/>
<circle cx="35" cy="188" r="4.25" stroke="white" stroke-width="1.5"/>
</g>
<defs>
<filter id="filter0_b_170_873" x="-2" y="44" width="302" height="214" filterUnits="userSpaceOnUse" color-interpolation-filters="sRGB">
<feFlood flood-opacity="0" result="BackgroundImageFix"/>
<feGaussianBlur in="BackgroundImageFix" stdDeviation="3"/>
<feComposite in2="SourceAlpha" operator="in" result="effect1_backgroundBlur_170_873"/>
<feBlend mode="normal" in="SourceGraphic" in2="effect1_backgroundBlur_170_873" result="shape"/>
</filter>
<filter id="filter1_d_170_873" x="0" y="153" width="70" height="70" filterUnits="userSpaceOnUse" color-interpolation-filters="sRGB">
<feFlood flood-opacity="0" result="BackgroundImageFix"/>
<feColorMatrix in="SourceAlpha" type="matrix" values="0 0 0 0 0 0 0 0 0 0 0 0 0 0 0 0 0 0 127 0" result="hardAlpha"/>
<feOffset/>
<feGaussianBlur stdDeviation="15"/>
<feComposite in2="hardAlpha" operator="out"/>
<feColorMatrix type="matrix" values="0 0 0 0 0.517647 0 0 0 0 0.145098 0 0 0 0 0.984314 0 0 0 1 0"/>
<feBlend mode="normal" in2="BackgroundImageFix" result="effect1_dropShadow_170_873"/>
<feBlend mode="normal" in="SourceGraphic" in2="effect1_dropShadow_170_873" result="shape"/>
</filter>
<linearGradient id="paint0_linear_170_873" x1="149" y1="34.9021" x2="149" y2="77.5928" gradientUnits="userSpaceOnUse">
<stop stop-color="#272C4B"/>
<stop offset="1" stop-color="#272C4B" stop-opacity="0"/>
</linearGradient>
<linearGradient id="paint1_linear_170_873" x1="30" y1="181.091" x2="41.6247" y2="182.005" gradientUnits="userSpaceOnUse">
<stop stop-color="#8A2CFF"/>
<stop offset="1" stop-color="#6B05EA"/>
</linearGradient>
</defs>
</svg>
