<svg width="294" height="230" viewBox="0 0 294 230" fill="none" xmlns="http://www.w3.org/2000/svg">
<g filter="url(#filter0_b_170_897)">
<rect x="4" y="50" width="290" height="180" rx="12" fill="#323751" fill-opacity="0.3"/>
<rect x="5" y="51" width="288" height="178" rx="11" stroke="url(#paint0_linear_170_897)" stroke-width="2"/>
</g>
<circle cx="149.211" cy="50" r="50" fill="#1F1C3F" fill-opacity="0.6"/>
<circle cx="149.211" cy="50" r="47.5" stroke="#272C4B" stroke-opacity="0.3" stroke-width="5"/>
<path d="M160.353 55.132V60.764H157.053V66H150.937V60.764H136.373V55.132L146.625 35.2H153.137L142.929 55.132H150.937V47.828H157.053V55.132H160.353Z" fill="#3C3868"/>
<path d="M74.5 182.4V195H72.034V186.828L68.488 192.678H68.2L64.654 186.846V195H62.17V182.4H64.726L68.344 188.358L71.944 182.4H74.5ZM85.3317 182.4V184.776H81.9297V195H79.4457V184.776H76.0617V182.4H85.3317ZM89.3524 192.624H94.1584V195H86.8684V182.4H89.3524V192.624ZM100.724 182.4C102.452 182.4 103.892 183.006 105.044 184.218C106.208 185.43 106.79 186.924 106.79 188.7C106.79 190.476 106.208 191.97 105.044 193.182C103.892 194.394 102.452 195 100.724 195H95.7196V182.4H100.724ZM100.724 192.624C101.816 192.624 102.704 192.264 103.388 191.544C104.072 190.812 104.414 189.864 104.414 188.7C104.414 187.536 104.072 186.594 103.388 185.874C102.704 185.142 101.816 184.776 100.724 184.776H98.2036V192.624H100.724ZM117.654 195.252C116.406 195.252 115.356 194.976 114.504 194.424C113.652 193.86 113.052 193.098 112.704 192.138L114.828 190.896C115.32 192.18 116.286 192.822 117.726 192.822C118.422 192.822 118.932 192.696 119.256 192.444C119.58 192.192 119.742 191.874 119.742 191.49C119.742 191.046 119.544 190.704 119.148 190.464C118.752 190.212 118.044 189.942 117.024 189.654C116.46 189.486 115.98 189.318 115.584 189.15C115.2 188.982 114.81 188.76 114.414 188.484C114.03 188.196 113.736 187.836 113.532 187.404C113.328 186.972 113.226 186.468 113.226 185.892C113.226 184.752 113.628 183.846 114.432 183.174C115.248 182.49 116.226 182.148 117.366 182.148C118.386 182.148 119.28 182.4 120.048 182.904C120.828 183.396 121.434 184.086 121.866 184.974L119.778 186.18C119.274 185.1 118.47 184.56 117.366 184.56C116.85 184.56 116.442 184.68 116.142 184.92C115.854 185.148 115.71 185.448 115.71 185.82C115.71 186.216 115.872 186.54 116.196 186.792C116.532 187.032 117.168 187.296 118.104 187.584C118.488 187.704 118.776 187.8 118.968 187.872C119.172 187.932 119.442 188.034 119.778 188.178C120.126 188.31 120.39 188.436 120.57 188.556C120.762 188.676 120.978 188.838 121.218 189.042C121.458 189.246 121.638 189.456 121.758 189.672C121.89 189.888 121.998 190.152 122.082 190.464C122.178 190.764 122.226 191.094 122.226 191.454C122.226 192.618 121.8 193.542 120.948 194.226C120.108 194.91 119.01 195.252 117.654 195.252ZM133.67 186H136.136L133.274 195H131.06L129.404 189.546L127.748 195H125.534L122.672 186H125.138L126.668 191.526L128.306 186H130.502L132.14 191.544L133.67 186ZM144.026 186H146.348V195H144.026V193.938C143.33 194.814 142.352 195.252 141.092 195.252C139.892 195.252 138.86 194.796 137.996 193.884C137.144 192.96 136.718 191.832 136.718 190.5C136.718 189.168 137.144 188.046 137.996 187.134C138.86 186.21 139.892 185.748 141.092 185.748C142.352 185.748 143.33 186.186 144.026 187.062V186ZM139.742 192.336C140.21 192.804 140.804 193.038 141.524 193.038C142.244 193.038 142.838 192.804 143.306 192.336C143.786 191.856 144.026 191.244 144.026 190.5C144.026 189.756 143.786 189.15 143.306 188.682C142.838 188.202 142.244 187.962 141.524 187.962C140.804 187.962 140.21 188.202 139.742 188.682C139.274 189.15 139.04 189.756 139.04 190.5C139.04 191.244 139.274 191.856 139.742 192.336ZM153.842 185.748C155.054 185.748 156.086 186.21 156.938 187.134C157.802 188.046 158.234 189.168 158.234 190.5C158.234 191.832 157.802 192.96 156.938 193.884C156.086 194.796 155.054 195.252 153.842 195.252C152.582 195.252 151.61 194.814 150.926 193.938V198.6H148.604V186H150.926V187.062C151.61 186.186 152.582 185.748 153.842 185.748ZM151.628 192.336C152.096 192.804 152.69 193.038 153.41 193.038C154.13 193.038 154.724 192.804 155.192 192.336C155.672 191.856 155.912 191.244 155.912 190.5C155.912 189.756 155.672 189.15 155.192 188.682C154.724 188.202 154.13 187.962 153.41 187.962C152.69 187.962 152.096 188.202 151.628 188.682C151.16 189.15 150.926 189.756 150.926 190.5C150.926 191.244 151.16 191.856 151.628 192.336ZM169.477 182.4C170.689 182.4 171.709 182.808 172.537 183.624C173.365 184.44 173.779 185.442 173.779 186.63C173.779 187.818 173.365 188.82 172.537 189.636C171.709 190.452 170.689 190.86 169.477 190.86H167.263V195H164.779V182.4H169.477ZM169.477 188.538C170.005 188.538 170.443 188.358 170.791 187.998C171.139 187.626 171.313 187.17 171.313 186.63C171.313 186.078 171.139 185.622 170.791 185.262C170.443 184.902 170.005 184.722 169.477 184.722H167.263V188.538H169.477ZM177.567 187.548C177.783 186.972 178.137 186.54 178.629 186.252C179.133 185.964 179.691 185.82 180.303 185.82V188.412C179.595 188.328 178.959 188.472 178.395 188.844C177.843 189.216 177.567 189.834 177.567 190.698V195H175.245V186H177.567V187.548ZM189.145 193.884C188.221 194.796 187.093 195.252 185.761 195.252C184.429 195.252 183.301 194.796 182.377 193.884C181.465 192.96 181.009 191.832 181.009 190.5C181.009 189.168 181.465 188.046 182.377 187.134C183.301 186.21 184.429 185.748 185.761 185.748C187.093 185.748 188.221 186.21 189.145 187.134C190.069 188.046 190.531 189.168 190.531 190.5C190.531 191.832 190.069 192.96 189.145 193.884ZM184.015 192.282C184.483 192.75 185.065 192.984 185.761 192.984C186.457 192.984 187.039 192.75 187.507 192.282C187.975 191.814 188.209 191.22 188.209 190.5C188.209 189.78 187.975 189.186 187.507 188.718C187.039 188.25 186.457 188.016 185.761 188.016C185.065 188.016 184.483 188.25 184.015 188.718C183.559 189.186 183.331 189.78 183.331 190.5C183.331 191.22 183.559 191.814 184.015 192.282ZM199.209 186H201.477V194.568C201.477 195.96 201.015 197.022 200.091 197.754C199.179 198.486 198.075 198.852 196.779 198.852C195.807 198.852 194.949 198.666 194.205 198.294C193.473 197.922 192.909 197.376 192.513 196.656L194.493 195.522C194.949 196.362 195.735 196.782 196.851 196.782C197.583 196.782 198.159 196.59 198.579 196.206C198.999 195.822 199.209 195.276 199.209 194.568V193.596C198.525 194.508 197.565 194.964 196.329 194.964C195.057 194.964 193.989 194.52 193.125 193.632C192.273 192.732 191.847 191.64 191.847 190.356C191.847 189.084 192.279 187.998 193.143 187.098C194.007 186.198 195.069 185.748 196.329 185.748C197.565 185.748 198.525 186.204 199.209 187.116V186ZM194.871 192.138C195.351 192.594 195.957 192.822 196.689 192.822C197.421 192.822 198.021 192.594 198.489 192.138C198.969 191.67 199.209 191.076 199.209 190.356C199.209 189.648 198.969 189.066 198.489 188.61C198.021 188.142 197.421 187.908 196.689 187.908C195.957 187.908 195.351 188.142 194.871 188.61C194.403 189.066 194.169 189.648 194.169 190.356C194.169 191.076 194.403 191.67 194.871 192.138ZM206.054 187.548C206.27 186.972 206.624 186.54 207.116 186.252C207.62 185.964 208.178 185.82 208.79 185.82V188.412C208.082 188.328 207.446 188.472 206.882 188.844C206.33 189.216 206.054 189.834 206.054 190.698V195H203.732V186H206.054V187.548ZM216.804 186H219.126V195H216.804V193.938C216.108 194.814 215.13 195.252 213.87 195.252C212.67 195.252 211.638 194.796 210.774 193.884C209.922 192.96 209.496 191.832 209.496 190.5C209.496 189.168 209.922 188.046 210.774 187.134C211.638 186.21 212.67 185.748 213.87 185.748C215.13 185.748 216.108 186.186 216.804 187.062V186ZM212.52 192.336C212.988 192.804 213.582 193.038 214.302 193.038C215.022 193.038 215.616 192.804 216.084 192.336C216.564 191.856 216.804 191.244 216.804 190.5C216.804 189.756 216.564 189.15 216.084 188.682C215.616 188.202 215.022 187.962 214.302 187.962C213.582 187.962 212.988 188.202 212.52 188.682C212.052 189.15 211.818 189.756 211.818 190.5C211.818 191.244 212.052 191.856 212.52 192.336ZM231.336 185.748C232.368 185.748 233.19 186.084 233.802 186.756C234.426 187.428 234.738 188.328 234.738 189.456V195H232.416V189.618C232.416 189.078 232.284 188.658 232.02 188.358C231.756 188.058 231.384 187.908 230.904 187.908C230.376 187.908 229.962 188.082 229.662 188.43C229.374 188.778 229.23 189.282 229.23 189.942V195H226.908V189.618C226.908 189.078 226.776 188.658 226.512 188.358C226.248 188.058 225.876 187.908 225.396 187.908C224.88 187.908 224.466 188.082 224.154 188.43C223.854 188.778 223.704 189.282 223.704 189.942V195H221.382V186H223.704V186.954C224.244 186.15 225.078 185.748 226.206 185.748C227.31 185.748 228.126 186.18 228.654 187.044C229.254 186.18 230.148 185.748 231.336 185.748Z" fill="white"/>
<g filter="url(#filter1_d_170_897)">
<circle cx="35" cy="188" r="5" fill="url(#paint1_linear_170_897)"/>
<circle cx="35" cy="188" r="4.25" stroke="white" stroke-width="1.5"/>
</g>
<defs>
<filter id="filter0_b_170_897" x="-2" y="44" width="302" height="192" filterUnits="userSpaceOnUse" color-interpolation-filters="sRGB">
<feFlood flood-opacity="0" result="BackgroundImageFix"/>
<feGaussianBlur in="BackgroundImageFix" stdDeviation="3"/>
<feComposite in2="SourceAlpha" operator="in" result="effect1_backgroundBlur_170_897"/>
<feBlend mode="normal" in="SourceGraphic" in2="effect1_backgroundBlur_170_897" result="shape"/>
</filter>
<filter id="filter1_d_170_897" x="0" y="153" width="70" height="70" filterUnits="userSpaceOnUse" color-interpolation-filters="sRGB">
<feFlood flood-opacity="0" result="BackgroundImageFix"/>
<feColorMatrix in="SourceAlpha" type="matrix" values="0 0 0 0 0 0 0 0 0 0 0 0 0 0 0 0 0 0 127 0" result="hardAlpha"/>
<feOffset/>
<feGaussianBlur stdDeviation="15"/>
<feComposite in2="hardAlpha" operator="out"/>
<feColorMatrix type="matrix" values="0 0 0 0 0.517647 0 0 0 0 0.145098 0 0 0 0 0.984314 0 0 0 1 0"/>
<feBlend mode="normal" in2="BackgroundImageFix" result="effect1_dropShadow_170_897"/>
<feBlend mode="normal" in="SourceGraphic" in2="effect1_dropShadow_170_897" result="shape"/>
</filter>
<linearGradient id="paint0_linear_170_897" x1="149" y1="36.5464" x2="149" y2="74.5876" gradientUnits="userSpaceOnUse">
<stop stop-color="#272C4B"/>
<stop offset="1" stop-color="#272C4B" stop-opacity="0"/>
</linearGradient>
<linearGradient id="paint1_linear_170_897" x1="30" y1="181.091" x2="41.6247" y2="182.005" gradientUnits="userSpaceOnUse">
<stop stop-color="#8A2CFF"/>
<stop offset="1" stop-color="#6B05EA"/>
</linearGradient>
</defs>
</svg>
