<svg width="295" height="370" viewBox="0 0 295 370" fill="none" xmlns="http://www.w3.org/2000/svg">
<g filter="url(#filter0_b_170_856)">
<rect x="4.78906" y="50" width="290" height="320" rx="12" fill="#323751" fill-opacity="0.3"/>
<rect x="5.78906" y="51" width="288" height="318" rx="11" stroke="url(#paint0_linear_170_856)" stroke-width="2"/>
</g>
<circle cx="150" cy="50" r="49" fill="url(#paint1_linear_170_856)" fill-opacity="0.6" stroke="url(#paint2_linear_170_856)" stroke-width="2"/>
<path d="M149.072 35.2H154.352V66H148.28V41.624L142.472 43.252L140.976 38.06L149.072 35.2Z" fill="white"/>
<path d="M67.6571 195.252C66.2531 195.252 65.1011 194.856 64.2011 194.064C63.3011 193.272 62.8511 192.21 62.8511 190.878V182.4H65.3171V190.68C65.3171 191.34 65.5031 191.862 65.8751 192.246C66.2591 192.63 66.8531 192.822 67.6571 192.822C68.4611 192.822 69.0491 192.63 69.4211 192.246C69.8051 191.862 69.9971 191.34 69.9971 190.68V182.4H72.4811V190.878C72.4811 192.21 72.0311 193.272 71.1311 194.064C70.2311 194.856 69.0731 195.252 67.6571 195.252ZM76.8149 188.556C76.8149 188.796 76.9709 188.994 77.2829 189.15C77.6069 189.294 77.9969 189.426 78.4529 189.546C78.9089 189.654 79.3649 189.798 79.8209 189.978C80.2769 190.146 80.6609 190.434 80.9729 190.842C81.2969 191.25 81.4589 191.76 81.4589 192.372C81.4589 193.296 81.1109 194.01 80.4149 194.514C79.7309 195.006 78.8729 195.252 77.8409 195.252C75.9929 195.252 74.7329 194.538 74.0609 193.11L76.0769 191.976C76.3409 192.756 76.9289 193.146 77.8409 193.146C78.6689 193.146 79.0829 192.888 79.0829 192.372C79.0829 192.132 78.9209 191.94 78.5969 191.796C78.2849 191.64 77.9009 191.502 77.4449 191.382C76.9889 191.262 76.5329 191.112 76.0769 190.932C75.6209 190.752 75.2309 190.47 74.9069 190.086C74.5949 189.69 74.4389 189.198 74.4389 188.61C74.4389 187.722 74.7629 187.026 75.4109 186.522C76.0709 186.006 76.8869 185.748 77.8589 185.748C78.5909 185.748 79.2569 185.916 79.8569 186.252C80.4569 186.576 80.9309 187.044 81.2789 187.656L79.2989 188.736C79.0109 188.124 78.5309 187.818 77.8589 187.818C77.5589 187.818 77.3069 187.884 77.1029 188.016C76.9109 188.148 76.8149 188.328 76.8149 188.556ZM84.9412 191.454C85.2532 192.582 86.0992 193.146 87.4792 193.146C88.3672 193.146 89.0392 192.846 89.4952 192.246L91.3672 193.326C90.4792 194.61 89.1712 195.252 87.4432 195.252C85.9552 195.252 84.7612 194.802 83.8612 193.902C82.9612 193.002 82.5112 191.868 82.5112 190.5C82.5112 189.144 82.9552 188.016 83.8432 187.116C84.7312 186.204 85.8712 185.748 87.2632 185.748C88.5832 185.748 89.6692 186.204 90.5212 187.116C91.3852 188.028 91.8172 189.156 91.8172 190.5C91.8172 190.8 91.7872 191.118 91.7272 191.454H84.9412ZM84.9052 189.654H89.4952C89.3632 189.042 89.0872 188.586 88.6672 188.286C88.2592 187.986 87.7912 187.836 87.2632 187.836C86.6392 187.836 86.1232 187.998 85.7152 188.322C85.3072 188.634 85.0372 189.078 84.9052 189.654ZM104.322 195.252C102.426 195.252 100.86 194.622 99.6242 193.362C98.3882 192.102 97.7702 190.548 97.7702 188.7C97.7702 186.84 98.3882 185.286 99.6242 184.038C100.86 182.778 102.426 182.148 104.322 182.148C105.462 182.148 106.512 182.418 107.472 182.958C108.444 183.486 109.2 184.206 109.74 185.118L107.598 186.36C107.286 185.796 106.842 185.358 106.266 185.046C105.69 184.722 105.042 184.56 104.322 184.56C103.098 184.56 102.108 184.944 101.352 185.712C100.608 186.48 100.236 187.476 100.236 188.7C100.236 189.912 100.608 190.902 101.352 191.67C102.108 192.438 103.098 192.822 104.322 192.822C105.042 192.822 105.69 192.666 106.266 192.354C106.854 192.03 107.298 191.592 107.598 191.04L109.74 192.282C109.2 193.194 108.45 193.92 107.49 194.46C106.53 194.988 105.474 195.252 104.322 195.252ZM118.201 186H120.523V195H118.201V193.938C117.505 194.814 116.527 195.252 115.267 195.252C114.067 195.252 113.035 194.796 112.171 193.884C111.319 192.96 110.893 191.832 110.893 190.5C110.893 189.168 111.319 188.046 112.171 187.134C113.035 186.21 114.067 185.748 115.267 185.748C116.527 185.748 117.505 186.186 118.201 187.062V186ZM113.917 192.336C114.385 192.804 114.979 193.038 115.699 193.038C116.419 193.038 117.013 192.804 117.481 192.336C117.961 191.856 118.201 191.244 118.201 190.5C118.201 189.756 117.961 189.15 117.481 188.682C117.013 188.202 116.419 187.962 115.699 187.962C114.979 187.962 114.385 188.202 113.917 188.682C113.449 189.15 113.215 189.756 113.215 190.5C113.215 191.244 113.449 191.856 113.917 192.336ZM124.85 188.556C124.85 188.796 125.006 188.994 125.318 189.15C125.642 189.294 126.032 189.426 126.488 189.546C126.944 189.654 127.4 189.798 127.856 189.978C128.312 190.146 128.696 190.434 129.008 190.842C129.332 191.25 129.494 191.76 129.494 192.372C129.494 193.296 129.146 194.01 128.45 194.514C127.766 195.006 126.908 195.252 125.876 195.252C124.028 195.252 122.768 194.538 122.096 193.11L124.112 191.976C124.376 192.756 124.964 193.146 125.876 193.146C126.704 193.146 127.118 192.888 127.118 192.372C127.118 192.132 126.956 191.94 126.632 191.796C126.32 191.64 125.936 191.502 125.48 191.382C125.024 191.262 124.568 191.112 124.112 190.932C123.656 190.752 123.266 190.47 122.942 190.086C122.63 189.69 122.474 189.198 122.474 188.61C122.474 187.722 122.798 187.026 123.446 186.522C124.106 186.006 124.922 185.748 125.894 185.748C126.626 185.748 127.292 185.916 127.892 186.252C128.492 186.576 128.966 187.044 129.314 187.656L127.334 188.736C127.046 188.124 126.566 187.818 125.894 187.818C125.594 187.818 125.342 187.884 125.138 188.016C124.946 188.148 124.85 188.328 124.85 188.556ZM132.976 191.454C133.288 192.582 134.134 193.146 135.514 193.146C136.402 193.146 137.074 192.846 137.53 192.246L139.402 193.326C138.514 194.61 137.206 195.252 135.478 195.252C133.99 195.252 132.796 194.802 131.896 193.902C130.996 193.002 130.546 191.868 130.546 190.5C130.546 189.144 130.99 188.016 131.878 187.116C132.766 186.204 133.906 185.748 135.298 185.748C136.618 185.748 137.704 186.204 138.556 187.116C139.42 188.028 139.852 189.156 139.852 190.5C139.852 190.8 139.822 191.118 139.762 191.454H132.976ZM132.94 189.654H137.53C137.398 189.042 137.122 188.586 136.702 188.286C136.294 187.986 135.826 187.836 135.298 187.836C134.674 187.836 134.158 187.998 133.75 188.322C133.342 188.634 133.072 189.078 132.94 189.654ZM153.113 186H155.435V195H153.113V193.938C152.417 194.814 151.439 195.252 150.179 195.252C148.979 195.252 147.947 194.796 147.083 193.884C146.231 192.96 145.805 191.832 145.805 190.5C145.805 189.168 146.231 188.046 147.083 187.134C147.947 186.21 148.979 185.748 150.179 185.748C151.439 185.748 152.417 186.186 153.113 187.062V186ZM148.829 192.336C149.297 192.804 149.891 193.038 150.611 193.038C151.331 193.038 151.925 192.804 152.393 192.336C152.873 191.856 153.113 191.244 153.113 190.5C153.113 189.756 152.873 189.15 152.393 188.682C151.925 188.202 151.331 187.962 150.611 187.962C149.891 187.962 149.297 188.202 148.829 188.682C148.361 189.15 148.127 189.756 148.127 190.5C148.127 191.244 148.361 191.856 148.829 192.336ZM162.695 185.748C163.679 185.748 164.489 186.078 165.125 186.738C165.773 187.398 166.097 188.31 166.097 189.474V195H163.775V189.762C163.775 189.162 163.613 188.706 163.289 188.394C162.965 188.07 162.533 187.908 161.993 187.908C161.393 187.908 160.913 188.094 160.553 188.466C160.193 188.838 160.013 189.396 160.013 190.14V195H157.691V186H160.013V187.008C160.577 186.168 161.471 185.748 162.695 185.748ZM175.052 182.4H177.374V195H175.052V193.938C174.368 194.814 173.396 195.252 172.136 195.252C170.924 195.252 169.886 194.796 169.022 193.884C168.17 192.96 167.744 191.832 167.744 190.5C167.744 189.168 168.17 188.046 169.022 187.134C169.886 186.21 170.924 185.748 172.136 185.748C173.396 185.748 174.368 186.186 175.052 187.062V182.4ZM170.768 192.336C171.248 192.804 171.848 193.038 172.568 193.038C173.288 193.038 173.882 192.804 174.35 192.336C174.818 191.856 175.052 191.244 175.052 190.5C175.052 189.756 174.818 189.15 174.35 188.682C173.882 188.202 173.288 187.962 172.568 187.962C171.848 187.962 171.248 188.202 170.768 188.682C170.3 189.15 170.066 189.756 170.066 190.5C170.066 191.244 170.3 191.856 170.768 192.336ZM196.735 182.4V195H194.269V186.828L190.723 192.678H190.435L186.889 186.846V195H184.405V182.4H186.961L190.579 188.358L194.179 182.4H196.735ZM202.347 195L198.117 182.4H200.817L203.895 192.084L206.955 182.4H209.673L205.425 195H202.347ZM215.735 182.4C216.947 182.4 217.967 182.808 218.795 183.624C219.623 184.44 220.037 185.442 220.037 186.63C220.037 187.818 219.623 188.82 218.795 189.636C217.967 190.452 216.947 190.86 215.735 190.86H213.521V195H211.037V182.4H215.735ZM215.735 188.538C216.263 188.538 216.701 188.358 217.049 187.998C217.397 187.626 217.571 187.17 217.571 186.63C217.571 186.078 217.397 185.622 217.049 185.262C216.701 184.902 216.263 184.722 215.735 184.722H213.521V188.538H215.735ZM67.9631 204.4C69.6911 204.4 71.1311 205.006 72.2831 206.218C73.4471 207.43 74.0291 208.924 74.0291 210.7C74.0291 212.476 73.4471 213.97 72.2831 215.182C71.1311 216.394 69.6911 217 67.9631 217H62.9591V204.4H67.9631ZM67.9631 214.624C69.0551 214.624 69.9431 214.264 70.6271 213.544C71.3111 212.812 71.6531 211.864 71.6531 210.7C71.6531 209.536 71.3111 208.594 70.6271 207.874C69.9431 207.142 69.0551 206.776 67.9631 206.776H65.4431V214.624H67.9631ZM77.7951 213.454C78.1071 214.582 78.9531 215.146 80.3331 215.146C81.2211 215.146 81.8931 214.846 82.3491 214.246L84.2211 215.326C83.3331 216.61 82.0251 217.252 80.2971 217.252C78.8091 217.252 77.6151 216.802 76.7151 215.902C75.8151 215.002 75.3651 213.868 75.3651 212.5C75.3651 211.144 75.8091 210.016 76.6971 209.116C77.5851 208.204 78.7251 207.748 80.1171 207.748C81.4371 207.748 82.5231 208.204 83.3751 209.116C84.2391 210.028 84.6711 211.156 84.6711 212.5C84.6711 212.8 84.6411 213.118 84.5811 213.454H77.7951ZM77.7591 211.654H82.3491C82.2171 211.042 81.9411 210.586 81.5211 210.286C81.1131 209.986 80.6451 209.836 80.1171 209.836C79.4931 209.836 78.9771 209.998 78.5691 210.322C78.1611 210.634 77.8911 211.078 77.7591 211.654ZM92.0125 208H94.5685L91.1485 217H88.5025L85.0825 208H87.6385L89.8165 214.3L92.0125 208ZM97.4486 213.454C97.7606 214.582 98.6066 215.146 99.9866 215.146C100.875 215.146 101.547 214.846 102.003 214.246L103.875 215.326C102.987 216.61 101.679 217.252 99.9506 217.252C98.4626 217.252 97.2686 216.802 96.3686 215.902C95.4686 215.002 95.0186 213.868 95.0186 212.5C95.0186 211.144 95.4626 210.016 96.3506 209.116C97.2386 208.204 98.3786 207.748 99.7706 207.748C101.091 207.748 102.177 208.204 103.029 209.116C103.893 210.028 104.325 211.156 104.325 212.5C104.325 212.8 104.295 213.118 104.235 213.454H97.4486ZM97.4126 211.654H102.003C101.871 211.042 101.595 210.586 101.175 210.286C100.767 209.986 100.299 209.836 99.7706 209.836C99.1466 209.836 98.6306 209.998 98.2226 210.322C97.8146 210.634 97.5446 211.078 97.4126 211.654ZM106.096 217V203.86H108.418V217H106.096ZM118.361 215.884C117.437 216.796 116.309 217.252 114.977 217.252C113.645 217.252 112.517 216.796 111.593 215.884C110.681 214.96 110.225 213.832 110.225 212.5C110.225 211.168 110.681 210.046 111.593 209.134C112.517 208.21 113.645 207.748 114.977 207.748C116.309 207.748 117.437 208.21 118.361 209.134C119.285 210.046 119.747 211.168 119.747 212.5C119.747 213.832 119.285 214.96 118.361 215.884ZM113.231 214.282C113.699 214.75 114.281 214.984 114.977 214.984C115.673 214.984 116.255 214.75 116.723 214.282C117.191 213.814 117.425 213.22 117.425 212.5C117.425 211.78 117.191 211.186 116.723 210.718C116.255 210.25 115.673 210.016 114.977 210.016C114.281 210.016 113.699 210.25 113.231 210.718C112.775 211.186 112.547 211.78 112.547 212.5C112.547 213.22 112.775 213.814 113.231 214.282ZM126.768 207.748C127.98 207.748 129.012 208.21 129.864 209.134C130.728 210.046 131.16 211.168 131.16 212.5C131.16 213.832 130.728 214.96 129.864 215.884C129.012 216.796 127.98 217.252 126.768 217.252C125.508 217.252 124.536 216.814 123.852 215.938V220.6H121.53V208H123.852V209.062C124.536 208.186 125.508 207.748 126.768 207.748ZM124.554 214.336C125.022 214.804 125.616 215.038 126.336 215.038C127.056 215.038 127.65 214.804 128.118 214.336C128.598 213.856 128.838 213.244 128.838 212.5C128.838 211.756 128.598 211.15 128.118 210.682C127.65 210.202 127.056 209.962 126.336 209.962C125.616 209.962 125.022 210.202 124.554 210.682C124.086 211.15 123.852 211.756 123.852 212.5C123.852 213.244 124.086 213.856 124.554 214.336ZM142.902 207.748C143.934 207.748 144.756 208.084 145.368 208.756C145.992 209.428 146.304 210.328 146.304 211.456V217H143.982V211.618C143.982 211.078 143.85 210.658 143.586 210.358C143.322 210.058 142.95 209.908 142.47 209.908C141.942 209.908 141.528 210.082 141.228 210.43C140.94 210.778 140.796 211.282 140.796 211.942V217H138.474V211.618C138.474 211.078 138.342 210.658 138.078 210.358C137.814 210.058 137.442 209.908 136.962 209.908C136.446 209.908 136.032 210.082 135.72 210.43C135.42 210.778 135.27 211.282 135.27 211.942V217H132.948V208H135.27V208.954C135.81 208.15 136.644 207.748 137.772 207.748C138.876 207.748 139.692 208.18 140.22 209.044C140.82 208.18 141.714 207.748 142.902 207.748ZM150.388 213.454C150.7 214.582 151.546 215.146 152.926 215.146C153.814 215.146 154.486 214.846 154.942 214.246L156.814 215.326C155.926 216.61 154.618 217.252 152.89 217.252C151.402 217.252 150.208 216.802 149.308 215.902C148.408 215.002 147.958 213.868 147.958 212.5C147.958 211.144 148.402 210.016 149.29 209.116C150.178 208.204 151.318 207.748 152.71 207.748C154.03 207.748 155.116 208.204 155.968 209.116C156.832 210.028 157.264 211.156 157.264 212.5C157.264 212.8 157.234 213.118 157.174 213.454H150.388ZM150.352 211.654H154.942C154.81 211.042 154.534 210.586 154.114 210.286C153.706 209.986 153.238 209.836 152.71 209.836C152.086 209.836 151.57 209.998 151.162 210.322C150.754 210.634 150.484 211.078 150.352 211.654ZM164.039 207.748C165.023 207.748 165.833 208.078 166.469 208.738C167.117 209.398 167.441 210.31 167.441 211.474V217H165.119V211.762C165.119 211.162 164.957 210.706 164.633 210.394C164.309 210.07 163.877 209.908 163.337 209.908C162.737 209.908 162.257 210.094 161.897 210.466C161.537 210.838 161.357 211.396 161.357 212.14V217H159.035V208H161.357V209.008C161.921 208.168 162.815 207.748 164.039 207.748ZM174.722 210.232H172.688V213.976C172.688 214.288 172.766 214.516 172.922 214.66C173.078 214.804 173.306 214.888 173.606 214.912C173.906 214.924 174.278 214.918 174.722 214.894V217C173.126 217.18 171.998 217.03 171.338 216.55C170.69 216.07 170.366 215.212 170.366 213.976V210.232H168.8V208H170.366V206.182L172.688 205.48V208H174.722V210.232Z" fill="white"/>
<g filter="url(#filter1_d_170_856)">
<circle cx="35.7891" cy="188" r="5" fill="url(#paint3_linear_170_856)"/>
<circle cx="35.7891" cy="188" r="4.25" stroke="white" stroke-width="1.5"/>
</g>
<g filter="url(#filter2_d_170_856)">
<circle cx="35.7891" cy="248" r="5" fill="url(#paint4_linear_170_856)"/>
<circle cx="35.7891" cy="248" r="4.25" stroke="white" stroke-width="1.5"/>
</g>
<path d="M65.5871 254L62.0591 241.4H64.6691L67.0811 250.742L69.7091 241.4H71.8331L74.4791 250.742L76.8911 241.4H79.5011L75.9731 254H73.1471L70.7711 245.684L68.4131 254H65.5871ZM81.8732 250.454C82.1852 251.582 83.0312 252.146 84.4112 252.146C85.2992 252.146 85.9712 251.846 86.4272 251.246L88.2992 252.326C87.4112 253.61 86.1032 254.252 84.3752 254.252C82.8872 254.252 81.6932 253.802 80.7932 252.902C79.8932 252.002 79.4432 250.868 79.4432 249.5C79.4432 248.144 79.8872 247.016 80.7752 246.116C81.6632 245.204 82.8032 244.748 84.1952 244.748C85.5152 244.748 86.6012 245.204 87.4532 246.116C88.3172 247.028 88.7492 248.156 88.7492 249.5C88.7492 249.8 88.7192 250.118 88.6592 250.454H81.8732ZM81.8372 248.654H86.4272C86.2952 248.042 86.0192 247.586 85.5992 247.286C85.1912 246.986 84.7232 246.836 84.1952 246.836C83.5712 246.836 83.0552 246.998 82.6472 247.322C82.2392 247.634 81.9692 248.078 81.8372 248.654ZM95.7582 244.748C96.9702 244.748 98.0022 245.21 98.8542 246.134C99.7182 247.046 100.15 248.168 100.15 249.5C100.15 250.832 99.7182 251.96 98.8542 252.884C98.0022 253.796 96.9702 254.252 95.7582 254.252C94.4982 254.252 93.5262 253.814 92.8422 252.938V254H90.5202V241.4H92.8422V246.062C93.5262 245.186 94.4982 244.748 95.7582 244.748ZM93.5442 251.336C94.0122 251.804 94.6062 252.038 95.3262 252.038C96.0462 252.038 96.6402 251.804 97.1082 251.336C97.5882 250.856 97.8282 250.244 97.8282 249.5C97.8282 248.756 97.5882 248.15 97.1082 247.682C96.6402 247.202 96.0462 246.962 95.3262 246.962C94.6062 246.962 94.0122 247.202 93.5442 247.682C93.0762 248.15 92.8422 248.756 92.8422 249.5C92.8422 250.244 93.0762 250.856 93.5442 251.336ZM103.886 247.556C103.886 247.796 104.042 247.994 104.354 248.15C104.678 248.294 105.068 248.426 105.524 248.546C105.98 248.654 106.436 248.798 106.892 248.978C107.348 249.146 107.732 249.434 108.044 249.842C108.368 250.25 108.53 250.76 108.53 251.372C108.53 252.296 108.182 253.01 107.486 253.514C106.802 254.006 105.944 254.252 104.912 254.252C103.064 254.252 101.804 253.538 101.132 252.11L103.148 250.976C103.412 251.756 104 252.146 104.912 252.146C105.74 252.146 106.154 251.888 106.154 251.372C106.154 251.132 105.992 250.94 105.668 250.796C105.356 250.64 104.972 250.502 104.516 250.382C104.06 250.262 103.604 250.112 103.148 249.932C102.692 249.752 102.302 249.47 101.978 249.086C101.666 248.69 101.51 248.198 101.51 247.61C101.51 246.722 101.834 246.026 102.482 245.522C103.142 245.006 103.958 244.748 104.93 244.748C105.662 244.748 106.328 244.916 106.928 245.252C107.528 245.576 108.002 246.044 108.35 246.656L106.37 247.736C106.082 247.124 105.602 246.818 104.93 246.818C104.63 246.818 104.378 246.884 104.174 247.016C103.982 247.148 103.886 247.328 103.886 247.556ZM111.326 243.92C110.942 243.92 110.606 243.782 110.318 243.506C110.042 243.218 109.904 242.882 109.904 242.498C109.904 242.114 110.042 241.778 110.318 241.49C110.606 241.202 110.942 241.058 111.326 241.058C111.722 241.058 112.058 241.202 112.334 241.49C112.622 241.778 112.766 242.114 112.766 242.498C112.766 242.882 112.622 243.218 112.334 243.506C112.058 243.782 111.722 243.92 111.326 243.92ZM110.174 254V245H112.496V254H110.174ZM119.919 247.232H117.885V250.976C117.885 251.288 117.963 251.516 118.119 251.66C118.275 251.804 118.503 251.888 118.803 251.912C119.103 251.924 119.475 251.918 119.919 251.894V254C118.323 254.18 117.195 254.03 116.535 253.55C115.887 253.07 115.563 252.212 115.563 250.976V247.232H113.997V245H115.563V243.182L117.885 242.48V245H119.919V247.232ZM123.387 250.454C123.699 251.582 124.545 252.146 125.925 252.146C126.813 252.146 127.485 251.846 127.941 251.246L129.813 252.326C128.925 253.61 127.617 254.252 125.889 254.252C124.401 254.252 123.207 253.802 122.307 252.902C121.407 252.002 120.957 250.868 120.957 249.5C120.957 248.144 121.401 247.016 122.289 246.116C123.177 245.204 124.317 244.748 125.709 244.748C127.029 244.748 128.115 245.204 128.967 246.116C129.831 247.028 130.263 248.156 130.263 249.5C130.263 249.8 130.233 250.118 130.173 250.454H123.387ZM123.351 248.654H127.941C127.809 248.042 127.533 247.586 127.113 247.286C126.705 246.986 126.237 246.836 125.709 246.836C125.085 246.836 124.569 246.998 124.161 247.322C123.753 247.634 123.483 248.078 123.351 248.654ZM146.818 245H149.284L146.422 254H144.208L142.552 248.546L140.896 254H138.682L135.82 245H138.286L139.816 250.526L141.454 245H143.65L145.288 250.544L146.818 245ZM151.837 243.92C151.453 243.92 151.117 243.782 150.829 243.506C150.553 243.218 150.415 242.882 150.415 242.498C150.415 242.114 150.553 241.778 150.829 241.49C151.117 241.202 151.453 241.058 151.837 241.058C152.233 241.058 152.569 241.202 152.845 241.49C153.133 241.778 153.277 242.114 153.277 242.498C153.277 242.882 153.133 243.218 152.845 243.506C152.569 243.782 152.233 243.92 151.837 243.92ZM150.685 254V245H153.007V254H150.685ZM160.431 247.232H158.397V250.976C158.397 251.288 158.475 251.516 158.631 251.66C158.787 251.804 159.015 251.888 159.315 251.912C159.615 251.924 159.987 251.918 160.431 251.894V254C158.835 254.18 157.707 254.03 157.047 253.55C156.399 253.07 156.075 252.212 156.075 250.976V247.232H154.509V245H156.075V243.182L158.397 242.48V245H160.431V247.232ZM167.222 244.748C168.206 244.748 169.016 245.078 169.652 245.738C170.3 246.398 170.624 247.31 170.624 248.474V254H168.302V248.762C168.302 248.162 168.14 247.706 167.816 247.394C167.492 247.07 167.06 246.908 166.52 246.908C165.92 246.908 165.44 247.094 165.08 247.466C164.72 247.838 164.54 248.396 164.54 249.14V254H162.218V241.4H164.54V246.008C165.104 245.168 165.998 244.748 167.222 244.748ZM189.845 241.4V254H187.379V245.828L183.833 251.678H183.545L179.999 245.846V254H177.515V241.4H180.071L183.689 247.358L187.289 241.4H189.845ZM195.456 254L191.226 241.4H193.926L197.004 251.084L200.064 241.4H202.782L198.534 254H195.456ZM208.845 241.4C210.057 241.4 211.077 241.808 211.905 242.624C212.733 243.44 213.147 244.442 213.147 245.63C213.147 246.818 212.733 247.82 211.905 248.636C211.077 249.452 210.057 249.86 208.845 249.86H206.631V254H204.147V241.4H208.845ZM208.845 247.538C209.373 247.538 209.811 247.358 210.159 246.998C210.507 246.626 210.681 246.17 210.681 245.63C210.681 245.078 210.507 244.622 210.159 244.262C209.811 243.902 209.373 243.722 208.845 243.722H206.631V247.538H208.845ZM69.8711 276L67.3331 271.626H65.4431V276H62.9591V263.4H67.9991C69.1631 263.4 70.1531 263.808 70.9691 264.624C71.7851 265.44 72.1931 266.424 72.1931 267.576C72.1931 268.356 71.9711 269.082 71.5271 269.754C71.0831 270.414 70.4951 270.912 69.7631 271.248L72.5531 276H69.8711ZM65.4431 265.722V269.448H67.9991C68.4671 269.448 68.8691 269.268 69.2051 268.908C69.5411 268.536 69.7091 268.092 69.7091 267.576C69.7091 267.06 69.5411 266.622 69.2051 266.262C68.8691 265.902 68.4671 265.722 67.9991 265.722H65.4431ZM75.5627 272.454C75.8747 273.582 76.7207 274.146 78.1007 274.146C78.9887 274.146 79.6607 273.846 80.1167 273.246L81.9887 274.326C81.1007 275.61 79.7927 276.252 78.0647 276.252C76.5767 276.252 75.3827 275.802 74.4827 274.902C73.5827 274.002 73.1327 272.868 73.1327 271.5C73.1327 270.144 73.5767 269.016 74.4647 268.116C75.3527 267.204 76.4927 266.748 77.8847 266.748C79.2047 266.748 80.2907 267.204 81.1427 268.116C82.0067 269.028 82.4387 270.156 82.4387 271.5C82.4387 271.8 82.4087 272.118 82.3487 272.454H75.5627ZM75.5267 270.654H80.1167C79.9847 270.042 79.7087 269.586 79.2887 269.286C78.8807 268.986 78.4127 268.836 77.8847 268.836C77.2607 268.836 76.7447 268.998 76.3367 269.322C75.9287 269.634 75.6587 270.078 75.5267 270.654ZM84.2097 276V262.86H86.5317V276H84.2097ZM90.7689 272.454C91.0809 273.582 91.9269 274.146 93.3069 274.146C94.1949 274.146 94.8669 273.846 95.3229 273.246L97.1949 274.326C96.3069 275.61 94.9989 276.252 93.2709 276.252C91.7829 276.252 90.5889 275.802 89.6889 274.902C88.7889 274.002 88.3389 272.868 88.3389 271.5C88.3389 270.144 88.7829 269.016 89.6709 268.116C90.5589 267.204 91.6989 266.748 93.0909 266.748C94.4109 266.748 95.4969 267.204 96.3489 268.116C97.2129 269.028 97.6449 270.156 97.6449 271.5C97.6449 271.8 97.6149 272.118 97.5549 272.454H90.7689ZM90.7329 270.654H95.3229C95.1909 270.042 94.9149 269.586 94.4949 269.286C94.0869 268.986 93.6189 268.836 93.0909 268.836C92.4669 268.836 91.9509 268.998 91.5429 269.322C91.1349 269.634 90.8649 270.078 90.7329 270.654ZM106.186 267H108.508V276H106.186V274.938C105.49 275.814 104.512 276.252 103.252 276.252C102.052 276.252 101.02 275.796 100.156 274.884C99.3036 273.96 98.8776 272.832 98.8776 271.5C98.8776 270.168 99.3036 269.046 100.156 268.134C101.02 267.21 102.052 266.748 103.252 266.748C104.512 266.748 105.49 267.186 106.186 268.062V267ZM101.902 273.336C102.37 273.804 102.964 274.038 103.684 274.038C104.404 274.038 104.998 273.804 105.466 273.336C105.946 272.856 106.186 272.244 106.186 271.5C106.186 270.756 105.946 270.15 105.466 269.682C104.998 269.202 104.404 268.962 103.684 268.962C102.964 268.962 102.37 269.202 101.902 269.682C101.434 270.15 101.2 270.756 101.2 271.5C101.2 272.244 101.434 272.856 101.902 273.336ZM112.835 269.556C112.835 269.796 112.991 269.994 113.303 270.15C113.627 270.294 114.017 270.426 114.473 270.546C114.929 270.654 115.385 270.798 115.841 270.978C116.297 271.146 116.681 271.434 116.993 271.842C117.317 272.25 117.479 272.76 117.479 273.372C117.479 274.296 117.131 275.01 116.435 275.514C115.751 276.006 114.893 276.252 113.861 276.252C112.013 276.252 110.753 275.538 110.081 274.11L112.097 272.976C112.361 273.756 112.949 274.146 113.861 274.146C114.689 274.146 115.103 273.888 115.103 273.372C115.103 273.132 114.941 272.94 114.617 272.796C114.305 272.64 113.921 272.502 113.465 272.382C113.009 272.262 112.553 272.112 112.097 271.932C111.641 271.752 111.251 271.47 110.927 271.086C110.615 270.69 110.459 270.198 110.459 269.61C110.459 268.722 110.783 268.026 111.431 267.522C112.091 267.006 112.907 266.748 113.879 266.748C114.611 266.748 115.277 266.916 115.877 267.252C116.477 267.576 116.951 268.044 117.299 268.656L115.319 269.736C115.031 269.124 114.551 268.818 113.879 268.818C113.579 268.818 113.327 268.884 113.123 269.016C112.931 269.148 112.835 269.328 112.835 269.556ZM120.961 272.454C121.273 273.582 122.119 274.146 123.499 274.146C124.387 274.146 125.059 273.846 125.515 273.246L127.387 274.326C126.499 275.61 125.191 276.252 123.463 276.252C121.975 276.252 120.781 275.802 119.881 274.902C118.981 274.002 118.531 272.868 118.531 271.5C118.531 270.144 118.975 269.016 119.863 268.116C120.751 267.204 121.891 266.748 123.283 266.748C124.603 266.748 125.689 267.204 126.541 268.116C127.405 269.028 127.837 270.156 127.837 271.5C127.837 271.8 127.807 272.118 127.747 272.454H120.961ZM120.925 270.654H125.515C125.383 270.042 125.107 269.586 124.687 269.286C124.279 268.986 123.811 268.836 123.283 268.836C122.659 268.836 122.143 268.998 121.735 269.322C121.327 269.634 121.057 270.078 120.925 270.654Z" fill="white"/>
<g filter="url(#filter3_d_170_856)">
<circle cx="35.7891" cy="308" r="5" fill="url(#paint5_linear_170_856)"/>
<circle cx="35.7891" cy="308" r="4.25" stroke="white" stroke-width="1.5"/>
</g>
<path d="M67.6571 300.4C68.8691 300.4 69.8891 300.808 70.7171 301.624C71.5451 302.44 71.9591 303.442 71.9591 304.63C71.9591 305.818 71.5451 306.82 70.7171 307.636C69.8891 308.452 68.8691 308.86 67.6571 308.86H65.4431V313H62.9591V300.4H67.6571ZM67.6571 306.538C68.1851 306.538 68.6231 306.358 68.9711 305.998C69.3191 305.626 69.4931 305.17 69.4931 304.63C69.4931 304.078 69.3191 303.622 68.9711 303.262C68.6231 302.902 68.1851 302.722 67.6571 302.722H65.4431V306.538H67.6571ZM75.7469 305.548C75.9629 304.972 76.3169 304.54 76.8089 304.252C77.3129 303.964 77.8709 303.82 78.4829 303.82V306.412C77.7749 306.328 77.1389 306.472 76.5749 306.844C76.0229 307.216 75.7469 307.834 75.7469 308.698V313H73.4249V304H75.7469V305.548ZM81.1429 302.92C80.7589 302.92 80.4229 302.782 80.1349 302.506C79.8589 302.218 79.7209 301.882 79.7209 301.498C79.7209 301.114 79.8589 300.778 80.1349 300.49C80.4229 300.202 80.7589 300.058 81.1429 300.058C81.5389 300.058 81.8749 300.202 82.1509 300.49C82.4389 300.778 82.5829 301.114 82.5829 301.498C82.5829 301.882 82.4389 302.218 82.1509 302.506C81.8749 302.782 81.5389 302.92 81.1429 302.92ZM79.9909 313V304H82.3129V313H79.9909ZM90.5102 304H93.0662L89.6462 313H87.0002L83.5802 304H86.1362L88.3142 310.3L90.5102 304ZM100.824 304H103.146V313H100.824V311.938C100.128 312.814 99.1503 313.252 97.8903 313.252C96.6903 313.252 95.6583 312.796 94.7943 311.884C93.9423 310.96 93.5163 309.832 93.5163 308.5C93.5163 307.168 93.9423 306.046 94.7943 305.134C95.6583 304.21 96.6903 303.748 97.8903 303.748C99.1503 303.748 100.128 304.186 100.824 305.062V304ZM96.5403 310.336C97.0083 310.804 97.6023 311.038 98.3223 311.038C99.0423 311.038 99.6363 310.804 100.104 310.336C100.584 309.856 100.824 309.244 100.824 308.5C100.824 307.756 100.584 307.15 100.104 306.682C99.6363 306.202 99.0423 305.962 98.3223 305.962C97.6023 305.962 97.0083 306.202 96.5403 306.682C96.0723 307.15 95.8383 307.756 95.8383 308.5C95.8383 309.244 96.0723 309.856 96.5403 310.336ZM110.55 306.232H108.516V309.976C108.516 310.288 108.594 310.516 108.75 310.66C108.906 310.804 109.134 310.888 109.434 310.912C109.734 310.924 110.106 310.918 110.55 310.894V313C108.954 313.18 107.826 313.03 107.166 312.55C106.518 312.07 106.194 311.212 106.194 309.976V306.232H104.628V304H106.194V302.182L108.516 301.48V304H110.55V306.232ZM114.018 309.454C114.33 310.582 115.176 311.146 116.556 311.146C117.444 311.146 118.116 310.846 118.572 310.246L120.444 311.326C119.556 312.61 118.248 313.252 116.52 313.252C115.032 313.252 113.838 312.802 112.938 311.902C112.038 311.002 111.588 309.868 111.588 308.5C111.588 307.144 112.032 306.016 112.92 305.116C113.808 304.204 114.948 303.748 116.34 303.748C117.66 303.748 118.746 304.204 119.598 305.116C120.462 306.028 120.894 307.156 120.894 308.5C120.894 308.8 120.864 309.118 120.804 309.454H114.018ZM113.982 307.654H118.572C118.44 307.042 118.164 306.586 117.744 306.286C117.336 305.986 116.868 305.836 116.34 305.836C115.716 305.836 115.2 305.998 114.792 306.322C114.384 306.634 114.114 307.078 113.982 307.654ZM131.725 313.252C130.477 313.252 129.427 312.976 128.575 312.424C127.723 311.86 127.123 311.098 126.775 310.138L128.899 308.896C129.391 310.18 130.357 310.822 131.797 310.822C132.493 310.822 133.003 310.696 133.327 310.444C133.651 310.192 133.813 309.874 133.813 309.49C133.813 309.046 133.615 308.704 133.219 308.464C132.823 308.212 132.115 307.942 131.095 307.654C130.531 307.486 130.051 307.318 129.655 307.15C129.271 306.982 128.881 306.76 128.485 306.484C128.101 306.196 127.807 305.836 127.603 305.404C127.399 304.972 127.297 304.468 127.297 303.892C127.297 302.752 127.699 301.846 128.503 301.174C129.319 300.49 130.297 300.148 131.437 300.148C132.457 300.148 133.351 300.4 134.119 300.904C134.899 301.396 135.505 302.086 135.937 302.974L133.849 304.18C133.345 303.1 132.541 302.56 131.437 302.56C130.921 302.56 130.513 302.68 130.213 302.92C129.925 303.148 129.781 303.448 129.781 303.82C129.781 304.216 129.943 304.54 130.267 304.792C130.603 305.032 131.239 305.296 132.175 305.584C132.559 305.704 132.847 305.8 133.039 305.872C133.243 305.932 133.513 306.034 133.849 306.178C134.197 306.31 134.461 306.436 134.641 306.556C134.833 306.676 135.049 306.838 135.289 307.042C135.529 307.246 135.709 307.456 135.829 307.672C135.961 307.888 136.069 308.152 136.153 308.464C136.249 308.764 136.297 309.094 136.297 309.454C136.297 310.618 135.871 311.542 135.019 312.226C134.179 312.91 133.081 313.252 131.725 313.252ZM145.045 304H147.367V313H145.045V311.938C144.349 312.814 143.371 313.252 142.111 313.252C140.911 313.252 139.879 312.796 139.015 311.884C138.163 310.96 137.737 309.832 137.737 308.5C137.737 307.168 138.163 306.046 139.015 305.134C139.879 304.21 140.911 303.748 142.111 303.748C143.371 303.748 144.349 304.186 145.045 305.062V304ZM140.761 310.336C141.229 310.804 141.823 311.038 142.543 311.038C143.263 311.038 143.857 310.804 144.325 310.336C144.805 309.856 145.045 309.244 145.045 308.5C145.045 307.756 144.805 307.15 144.325 306.682C143.857 306.202 143.263 305.962 142.543 305.962C141.823 305.962 141.229 306.202 140.761 306.682C140.293 307.15 140.059 307.756 140.059 308.5C140.059 309.244 140.293 309.856 140.761 310.336ZM149.623 313V299.86H151.945V313H149.623ZM156.182 309.454C156.494 310.582 157.34 311.146 158.72 311.146C159.608 311.146 160.28 310.846 160.736 310.246L162.608 311.326C161.72 312.61 160.412 313.252 158.684 313.252C157.196 313.252 156.002 312.802 155.102 311.902C154.202 311.002 153.752 309.868 153.752 308.5C153.752 307.144 154.196 306.016 155.084 305.116C155.972 304.204 157.112 303.748 158.504 303.748C159.824 303.748 160.91 304.204 161.762 305.116C162.626 306.028 163.058 307.156 163.058 308.5C163.058 308.8 163.028 309.118 162.968 309.454H156.182ZM156.146 307.654H160.736C160.604 307.042 160.328 306.586 159.908 306.286C159.5 305.986 159.032 305.836 158.504 305.836C157.88 305.836 157.364 305.998 156.956 306.322C156.548 306.634 156.278 307.078 156.146 307.654ZM176.319 304H178.641V313H176.319V311.938C175.623 312.814 174.645 313.252 173.385 313.252C172.185 313.252 171.153 312.796 170.289 311.884C169.437 310.96 169.011 309.832 169.011 308.5C169.011 307.168 169.437 306.046 170.289 305.134C171.153 304.21 172.185 303.748 173.385 303.748C174.645 303.748 175.623 304.186 176.319 305.062V304ZM172.035 310.336C172.503 310.804 173.097 311.038 173.817 311.038C174.537 311.038 175.131 310.804 175.599 310.336C176.079 309.856 176.319 309.244 176.319 308.5C176.319 307.756 176.079 307.15 175.599 306.682C175.131 306.202 174.537 305.962 173.817 305.962C173.097 305.962 172.503 306.202 172.035 306.682C171.567 307.15 171.333 307.756 171.333 308.5C171.333 309.244 171.567 309.856 172.035 310.336ZM185.9 303.748C186.884 303.748 187.694 304.078 188.33 304.738C188.978 305.398 189.302 306.31 189.302 307.474V313H186.98V307.762C186.98 307.162 186.818 306.706 186.494 306.394C186.17 306.07 185.738 305.908 185.198 305.908C184.598 305.908 184.118 306.094 183.758 306.466C183.398 306.838 183.218 307.396 183.218 308.14V313H180.896V304H183.218V305.008C183.782 304.168 184.676 303.748 185.9 303.748ZM198.257 300.4H200.579V313H198.257V311.938C197.573 312.814 196.601 313.252 195.341 313.252C194.129 313.252 193.091 312.796 192.227 311.884C191.375 310.96 190.949 309.832 190.949 308.5C190.949 307.168 191.375 306.046 192.227 305.134C193.091 304.21 194.129 303.748 195.341 303.748C196.601 303.748 197.573 304.186 198.257 305.062V300.4ZM193.973 310.336C194.453 310.804 195.053 311.038 195.773 311.038C196.493 311.038 197.087 310.804 197.555 310.336C198.023 309.856 198.257 309.244 198.257 308.5C198.257 307.756 198.023 307.15 197.555 306.682C197.087 306.202 196.493 305.962 195.773 305.962C195.053 305.962 194.453 306.202 193.973 306.682C193.505 307.15 193.271 307.756 193.271 308.5C193.271 309.244 193.505 309.856 193.973 310.336ZM219.941 300.4V313H217.475V304.828L213.929 310.678H213.641L210.095 304.846V313H207.611V300.4H210.167L213.785 306.358L217.385 300.4H219.941ZM230.772 300.4V302.776H227.37V313H224.886V302.776H221.502V300.4H230.772ZM234.793 310.624H239.599V313H232.309V300.4H234.793V310.624ZM246.164 300.4C247.892 300.4 249.332 301.006 250.484 302.218C251.648 303.43 252.23 304.924 252.23 306.7C252.23 308.476 251.648 309.97 250.484 311.182C249.332 312.394 247.892 313 246.164 313H241.16V300.4H246.164ZM246.164 310.624C247.256 310.624 248.144 310.264 248.828 309.544C249.512 308.812 249.854 307.864 249.854 306.7C249.854 305.536 249.512 304.594 248.828 303.874C248.144 303.142 247.256 302.776 246.164 302.776H243.644V310.624H246.164ZM71.2931 322.4V324.776H67.8911V335H65.4071V324.776H62.0231V322.4H71.2931ZM78.755 333.884C77.831 334.796 76.703 335.252 75.371 335.252C74.039 335.252 72.911 334.796 71.987 333.884C71.075 332.96 70.619 331.832 70.619 330.5C70.619 329.168 71.075 328.046 71.987 327.134C72.911 326.21 74.039 325.748 75.371 325.748C76.703 325.748 77.831 326.21 78.755 327.134C79.679 328.046 80.141 329.168 80.141 330.5C80.141 331.832 79.679 332.96 78.755 333.884ZM73.625 332.282C74.093 332.75 74.675 332.984 75.371 332.984C76.067 332.984 76.649 332.75 77.117 332.282C77.585 331.814 77.819 331.22 77.819 330.5C77.819 329.78 77.585 329.186 77.117 328.718C76.649 328.25 76.067 328.016 75.371 328.016C74.675 328.016 74.093 328.25 73.625 328.718C73.169 329.186 72.941 329.78 72.941 330.5C72.941 331.22 73.169 331.814 73.625 332.282ZM90.2225 335H87.5225L84.2465 330.914V335H81.9245V322.4H84.2465V329.96L87.3425 326H90.1145L86.4965 330.446L90.2225 335ZM92.8431 331.454C93.1551 332.582 94.0011 333.146 95.3811 333.146C96.2691 333.146 96.9411 332.846 97.3971 332.246L99.2691 333.326C98.3811 334.61 97.0731 335.252 95.3451 335.252C93.8571 335.252 92.6631 334.802 91.7631 333.902C90.8631 333.002 90.4131 331.868 90.4131 330.5C90.4131 329.144 90.8571 328.016 91.7451 327.116C92.6331 326.204 93.7731 325.748 95.1651 325.748C96.4851 325.748 97.5711 326.204 98.4231 327.116C99.2871 328.028 99.7191 329.156 99.7191 330.5C99.7191 330.8 99.6891 331.118 99.6291 331.454H92.8431ZM92.8071 329.654H97.3971C97.2651 329.042 96.9891 328.586 96.5691 328.286C96.1611 327.986 95.6931 327.836 95.1651 327.836C94.5411 327.836 94.0251 327.998 93.6171 328.322C93.2091 328.634 92.9391 329.078 92.8071 329.654ZM106.494 325.748C107.478 325.748 108.288 326.078 108.924 326.738C109.572 327.398 109.896 328.31 109.896 329.474V335H107.574V329.762C107.574 329.162 107.412 328.706 107.088 328.394C106.764 328.07 106.332 327.908 105.792 327.908C105.192 327.908 104.712 328.094 104.352 328.466C103.992 328.838 103.812 329.396 103.812 330.14V335H101.49V326H103.812V327.008C104.376 326.168 105.27 325.748 106.494 325.748ZM121.791 322.4C123.519 322.4 124.959 323.006 126.111 324.218C127.275 325.43 127.857 326.924 127.857 328.7C127.857 330.476 127.275 331.97 126.111 333.182C124.959 334.394 123.519 335 121.791 335H116.787V322.4H121.791ZM121.791 332.624C122.883 332.624 123.771 332.264 124.455 331.544C125.139 330.812 125.481 329.864 125.481 328.7C125.481 327.536 125.139 326.594 124.455 325.874C123.771 325.142 122.883 324.776 121.791 324.776H119.271V332.624H121.791ZM131.623 331.454C131.935 332.582 132.781 333.146 134.161 333.146C135.049 333.146 135.721 332.846 136.177 332.246L138.049 333.326C137.161 334.61 135.853 335.252 134.125 335.252C132.637 335.252 131.443 334.802 130.543 333.902C129.643 333.002 129.193 331.868 129.193 330.5C129.193 329.144 129.637 328.016 130.525 327.116C131.413 326.204 132.553 325.748 133.945 325.748C135.265 325.748 136.351 326.204 137.203 327.116C138.067 328.028 138.499 329.156 138.499 330.5C138.499 330.8 138.469 331.118 138.409 331.454H131.623ZM131.587 329.654H136.177C136.045 329.042 135.769 328.586 135.349 328.286C134.941 327.986 134.473 327.836 133.945 327.836C133.321 327.836 132.805 327.998 132.397 328.322C131.989 328.634 131.719 329.078 131.587 329.654ZM145.84 326H148.396L144.976 335H142.33L138.91 326H141.466L143.644 332.3L145.84 326ZM151.276 331.454C151.588 332.582 152.434 333.146 153.814 333.146C154.702 333.146 155.374 332.846 155.83 332.246L157.702 333.326C156.814 334.61 155.506 335.252 153.778 335.252C152.29 335.252 151.096 334.802 150.196 333.902C149.296 333.002 148.846 331.868 148.846 330.5C148.846 329.144 149.29 328.016 150.178 327.116C151.066 326.204 152.206 325.748 153.598 325.748C154.918 325.748 156.004 326.204 156.856 327.116C157.72 328.028 158.152 329.156 158.152 330.5C158.152 330.8 158.122 331.118 158.062 331.454H151.276ZM151.24 329.654H155.83C155.698 329.042 155.422 328.586 155.002 328.286C154.594 327.986 154.126 327.836 153.598 327.836C152.974 327.836 152.458 327.998 152.05 328.322C151.642 328.634 151.372 329.078 151.24 329.654ZM159.923 335V321.86H162.245V335H159.923ZM172.189 333.884C171.265 334.796 170.137 335.252 168.805 335.252C167.473 335.252 166.345 334.796 165.421 333.884C164.509 332.96 164.053 331.832 164.053 330.5C164.053 329.168 164.509 328.046 165.421 327.134C166.345 326.21 167.473 325.748 168.805 325.748C170.137 325.748 171.265 326.21 172.189 327.134C173.113 328.046 173.575 329.168 173.575 330.5C173.575 331.832 173.113 332.96 172.189 333.884ZM167.059 332.282C167.527 332.75 168.109 332.984 168.805 332.984C169.501 332.984 170.083 332.75 170.551 332.282C171.019 331.814 171.253 331.22 171.253 330.5C171.253 329.78 171.019 329.186 170.551 328.718C170.083 328.25 169.501 328.016 168.805 328.016C168.109 328.016 167.527 328.25 167.059 328.718C166.603 329.186 166.375 329.78 166.375 330.5C166.375 331.22 166.603 331.814 167.059 332.282ZM180.596 325.748C181.808 325.748 182.84 326.21 183.692 327.134C184.556 328.046 184.988 329.168 184.988 330.5C184.988 331.832 184.556 332.96 183.692 333.884C182.84 334.796 181.808 335.252 180.596 335.252C179.336 335.252 178.364 334.814 177.68 333.938V338.6H175.358V326H177.68V327.062C178.364 326.186 179.336 325.748 180.596 325.748ZM178.382 332.336C178.85 332.804 179.444 333.038 180.164 333.038C180.884 333.038 181.478 332.804 181.946 332.336C182.426 331.856 182.666 331.244 182.666 330.5C182.666 329.756 182.426 329.15 181.946 328.682C181.478 328.202 180.884 327.962 180.164 327.962C179.444 327.962 178.85 328.202 178.382 328.682C177.914 329.15 177.68 329.756 177.68 330.5C177.68 331.244 177.914 331.856 178.382 332.336ZM196.73 325.748C197.762 325.748 198.584 326.084 199.196 326.756C199.82 327.428 200.132 328.328 200.132 329.456V335H197.81V329.618C197.81 329.078 197.678 328.658 197.414 328.358C197.15 328.058 196.778 327.908 196.298 327.908C195.77 327.908 195.356 328.082 195.056 328.43C194.768 328.778 194.624 329.282 194.624 329.942V335H192.302V329.618C192.302 329.078 192.17 328.658 191.906 328.358C191.642 328.058 191.27 327.908 190.79 327.908C190.274 327.908 189.86 328.082 189.548 328.43C189.248 328.778 189.098 329.282 189.098 329.942V335H186.776V326H189.098V326.954C189.638 326.15 190.472 325.748 191.6 325.748C192.704 325.748 193.52 326.18 194.048 327.044C194.648 326.18 195.542 325.748 196.73 325.748ZM204.216 331.454C204.528 332.582 205.374 333.146 206.754 333.146C207.642 333.146 208.314 332.846 208.77 332.246L210.642 333.326C209.754 334.61 208.446 335.252 206.718 335.252C205.23 335.252 204.036 334.802 203.136 333.902C202.236 333.002 201.786 331.868 201.786 330.5C201.786 329.144 202.23 328.016 203.118 327.116C204.006 326.204 205.146 325.748 206.538 325.748C207.858 325.748 208.944 326.204 209.796 327.116C210.66 328.028 211.092 329.156 211.092 330.5C211.092 330.8 211.062 331.118 211.002 331.454H204.216ZM204.18 329.654H208.77C208.638 329.042 208.362 328.586 207.942 328.286C207.534 327.986 207.066 327.836 206.538 327.836C205.914 327.836 205.398 327.998 204.99 328.322C204.582 328.634 204.312 329.078 204.18 329.654ZM217.867 325.748C218.851 325.748 219.661 326.078 220.297 326.738C220.945 327.398 221.269 328.31 221.269 329.474V335H218.947V329.762C218.947 329.162 218.785 328.706 218.461 328.394C218.137 328.07 217.705 327.908 217.165 327.908C216.565 327.908 216.085 328.094 215.725 328.466C215.365 328.838 215.185 329.396 215.185 330.14V335H212.863V326H215.185V327.008C215.749 326.168 216.643 325.748 217.867 325.748ZM228.549 328.232H226.515V331.976C226.515 332.288 226.593 332.516 226.749 332.66C226.905 332.804 227.133 332.888 227.433 332.912C227.733 332.924 228.105 332.918 228.549 332.894V335C226.953 335.18 225.825 335.03 225.165 334.55C224.517 334.07 224.193 333.212 224.193 331.976V328.232H222.627V326H224.193V324.182L226.515 323.48V326H228.549V328.232Z" fill="white"/>
<defs>
<filter id="filter0_b_170_856" x="-1.21094" y="44" width="302" height="332" filterUnits="userSpaceOnUse" color-interpolation-filters="sRGB">
<feFlood flood-opacity="0" result="BackgroundImageFix"/>
<feGaussianBlur in="BackgroundImageFix" stdDeviation="3"/>
<feComposite in2="SourceAlpha" operator="in" result="effect1_backgroundBlur_170_856"/>
<feBlend mode="normal" in="SourceGraphic" in2="effect1_backgroundBlur_170_856" result="shape"/>
</filter>
<filter id="filter1_d_170_856" x="0.789062" y="153" width="70" height="70" filterUnits="userSpaceOnUse" color-interpolation-filters="sRGB">
<feFlood flood-opacity="0" result="BackgroundImageFix"/>
<feColorMatrix in="SourceAlpha" type="matrix" values="0 0 0 0 0 0 0 0 0 0 0 0 0 0 0 0 0 0 127 0" result="hardAlpha"/>
<feOffset/>
<feGaussianBlur stdDeviation="15"/>
<feComposite in2="hardAlpha" operator="out"/>
<feColorMatrix type="matrix" values="0 0 0 0 0.517647 0 0 0 0 0.145098 0 0 0 0 0.984314 0 0 0 1 0"/>
<feBlend mode="normal" in2="BackgroundImageFix" result="effect1_dropShadow_170_856"/>
<feBlend mode="normal" in="SourceGraphic" in2="effect1_dropShadow_170_856" result="shape"/>
</filter>
<filter id="filter2_d_170_856" x="0.789062" y="213" width="70" height="70" filterUnits="userSpaceOnUse" color-interpolation-filters="sRGB">
<feFlood flood-opacity="0" result="BackgroundImageFix"/>
<feColorMatrix in="SourceAlpha" type="matrix" values="0 0 0 0 0 0 0 0 0 0 0 0 0 0 0 0 0 0 127 0" result="hardAlpha"/>
<feOffset/>
<feGaussianBlur stdDeviation="15"/>
<feComposite in2="hardAlpha" operator="out"/>
<feColorMatrix type="matrix" values="0 0 0 0 0.517647 0 0 0 0 0.145098 0 0 0 0 0.984314 0 0 0 1 0"/>
<feBlend mode="normal" in2="BackgroundImageFix" result="effect1_dropShadow_170_856"/>
<feBlend mode="normal" in="SourceGraphic" in2="effect1_dropShadow_170_856" result="shape"/>
</filter>
<filter id="filter3_d_170_856" x="0.789062" y="273" width="70" height="70" filterUnits="userSpaceOnUse" color-interpolation-filters="sRGB">
<feFlood flood-opacity="0" result="BackgroundImageFix"/>
<feColorMatrix in="SourceAlpha" type="matrix" values="0 0 0 0 0 0 0 0 0 0 0 0 0 0 0 0 0 0 127 0" result="hardAlpha"/>
<feOffset/>
<feGaussianBlur stdDeviation="15"/>
<feComposite in2="hardAlpha" operator="out"/>
<feColorMatrix type="matrix" values="0 0 0 0 0.517647 0 0 0 0 0.145098 0 0 0 0 0.984314 0 0 0 1 0"/>
<feBlend mode="normal" in2="BackgroundImageFix" result="effect1_dropShadow_170_856"/>
<feBlend mode="normal" in="SourceGraphic" in2="effect1_dropShadow_170_856" result="shape"/>
</filter>
<linearGradient id="paint0_linear_170_856" x1="149.789" y1="26.0825" x2="149.789" y2="93.7113" gradientUnits="userSpaceOnUse">
<stop stop-color="#272C4B"/>
<stop offset="1" stop-color="#272C4B" stop-opacity="0"/>
</linearGradient>
<linearGradient id="paint1_linear_170_856" x1="100" y1="-19.0909" x2="216.247" y2="-9.95245" gradientUnits="userSpaceOnUse">
<stop stop-color="#8A2CFF"/>
<stop offset="1" stop-color="#6B05EA"/>
</linearGradient>
<linearGradient id="paint2_linear_170_856" x1="150" y1="0" x2="150" y2="15.4545" gradientUnits="userSpaceOnUse">
<stop stop-color="#8F34FF"/>
<stop offset="1" stop-color="#8F34FF" stop-opacity="0"/>
</linearGradient>
<linearGradient id="paint3_linear_170_856" x1="30.7891" y1="181.091" x2="42.4137" y2="182.005" gradientUnits="userSpaceOnUse">
<stop stop-color="#8A2CFF"/>
<stop offset="1" stop-color="#6B05EA"/>
</linearGradient>
<linearGradient id="paint4_linear_170_856" x1="30.7891" y1="241.091" x2="42.4137" y2="242.005" gradientUnits="userSpaceOnUse">
<stop stop-color="#8A2CFF"/>
<stop offset="1" stop-color="#6B05EA"/>
</linearGradient>
<linearGradient id="paint5_linear_170_856" x1="30.7891" y1="301.091" x2="42.4137" y2="302.005" gradientUnits="userSpaceOnUse">
<stop stop-color="#8A2CFF"/>
<stop offset="1" stop-color="#6B05EA"/>
</linearGradient>
</defs>
</svg>
