<svg width="110" height="111" viewBox="0 0 110 111" fill="none" xmlns="http://www.w3.org/2000/svg">
<circle cx="55" cy="55.375" r="54" fill="url(#paint0_linear_170_803)" stroke="url(#paint1_linear_170_803)" stroke-width="2"/>
<path d="M67.4906 35.375H42.4906C32.9156 35.375 30.2406 37.675 30.0156 46.625C34.8406 46.625 38.7406 50.55 38.7406 55.375C38.7406 60.2 34.8406 64.1 30.0156 64.125C30.2406 73.075 32.9156 75.375 42.4906 75.375H67.4906C77.4906 75.375 79.9906 72.875 79.9906 62.875V47.875C79.9906 37.875 77.4906 35.375 67.4906 35.375Z" stroke="white" stroke-width="3.75" stroke-linecap="round" stroke-linejoin="round"/>
<path d="M47.4844 35.375V44.125" stroke="white" stroke-width="3.75" stroke-linecap="round" stroke-linejoin="round"/>
<path d="M47.4844 66.625V75.375" stroke="white" stroke-width="3.75" stroke-linecap="round" stroke-linejoin="round"/>
<path d="M62.5621 48.7004L64.1121 51.8254C64.2621 52.1254 64.5621 52.3504 64.8871 52.4004L68.3371 52.9004C69.1871 53.0254 69.5371 54.0754 68.9121 54.6754L66.4121 57.1004C66.1621 57.3254 66.0621 57.6754 66.1121 58.0254L66.7121 61.4504C66.8621 62.3004 65.9621 62.9504 65.2121 62.5504L62.1371 60.9254C61.8371 60.7754 61.4621 60.7754 61.1621 60.9254L58.0871 62.5504C57.3121 62.9504 56.4371 62.3004 56.5871 61.4504L57.1871 58.0254C57.2371 57.6754 57.1371 57.3504 56.8871 57.1004L54.4121 54.6754C53.7871 54.0754 54.1371 53.0254 54.9871 52.9004L58.4371 52.4004C58.7871 52.3504 59.0621 52.1504 59.2121 51.8254L60.7371 48.7004C61.0871 47.9254 62.1871 47.9254 62.5621 48.7004Z" stroke="white" stroke-width="3.75" stroke-linecap="round" stroke-linejoin="round"/>
<defs>
<linearGradient id="paint0_linear_170_803" x1="-4.12991e-06" y1="-20.6249" x2="127.871" y2="-10.5727" gradientUnits="userSpaceOnUse">
<stop stop-color="#8A2CFF"/>
<stop offset="1" stop-color="#6B05EA"/>
</linearGradient>
<linearGradient id="paint1_linear_170_803" x1="55" y1="0.375" x2="55" y2="17.375" gradientUnits="userSpaceOnUse">
<stop stop-color="#8F34FF"/>
<stop offset="1" stop-color="#8F34FF" stop-opacity="0"/>
</linearGradient>
</defs>
</svg>
