<svg width="110" height="111" viewBox="0 0 110 111" fill="none" xmlns="http://www.w3.org/2000/svg">
<circle cx="55" cy="55.375" r="54" fill="url(#paint0_linear_170_817)" stroke="url(#paint1_linear_170_817)" stroke-width="2"/>
<path d="M45.3359 53.9254C45.3359 55.7862 46.7859 57.3087 48.5501 57.3087H52.1751C53.7218 57.3087 54.9784 55.9796 54.9784 54.3604C54.9784 52.5962 54.2051 51.9679 53.0693 51.5571L47.2693 49.5271C46.1093 49.1162 45.3359 48.4879 45.3359 46.7237C45.3359 45.1046 46.5926 43.7754 48.1393 43.7754H51.7643C53.5526 43.7996 55.0026 45.2979 55.0026 47.1587" stroke="white" stroke-width="3.625" stroke-linecap="round" stroke-linejoin="round"/>
<path d="M50.1641 57.4287V59.217" stroke="white" stroke-width="3.625" stroke-linecap="round" stroke-linejoin="round"/>
<path d="M50.1641 41.8662V43.7512" stroke="white" stroke-width="3.625" stroke-linecap="round" stroke-linejoin="round"/>
<path d="M50.1451 69.8263C60.8093 69.8263 69.4543 61.1813 69.4543 50.5172C69.4543 39.853 60.8093 31.208 50.1451 31.208C39.4809 31.208 30.8359 39.853 30.8359 50.5172C30.8359 61.1813 39.4809 69.8263 50.1451 69.8263Z" stroke="white" stroke-width="3.625" stroke-linecap="round" stroke-linejoin="round"/>
<path d="M57.3672 74.4187C59.5422 77.4878 63.0947 79.4937 67.1547 79.4937C73.7522 79.4937 79.1172 74.1287 79.1172 67.5312C79.1172 63.5195 77.1355 59.967 74.1147 57.792" stroke="white" stroke-width="3.625" stroke-linecap="round" stroke-linejoin="round"/>
<defs>
<linearGradient id="paint0_linear_170_817" x1="-4.12991e-06" y1="-20.6249" x2="127.871" y2="-10.5727" gradientUnits="userSpaceOnUse">
<stop stop-color="#8A2CFF"/>
<stop offset="1" stop-color="#6B05EA"/>
</linearGradient>
<linearGradient id="paint1_linear_170_817" x1="55" y1="0.375" x2="55" y2="17.375" gradientUnits="userSpaceOnUse">
<stop stop-color="#8F34FF"/>
<stop offset="1" stop-color="#8F34FF" stop-opacity="0"/>
</linearGradient>
</defs>
</svg>
